M48
; DRILL file {KiCad 8.0.4} date 2024-07-29T20:06:17+0930
; FORMAT={-:-/ absolute / metric / decimal}
; #@! TF.CreationDate,2024-07-29T20:06:17+09:30
; #@! TF.GenerationSoftware,Kicad,Pcbnew,8.0.4
; #@! TF.FileFunction,Plated,1,2,PTH
FMAT,2
METRIC
; #@! TA.AperFunction,Plated,PTH,ViaDrill
T1C0.300
; #@! TA.AperFunction,Plated,PTH,ComponentDrill
T2C0.500
; #@! TA.AperFunction,Plated,PTH,ComponentDrill
T3C3.200
%
G90
G05
T1
X130.0Y-155.0
X130.075Y-181.0
X131.0Y-122.5
X131.5Y-181.5
X131.562Y-164.938
X131.575Y-135.575
X133.5Y-88.0
X134.0Y-101.5
X135.075Y-181.0
X136.0Y-122.5
X136.0Y-155.0
X137.5Y-163.55
X137.5Y-181.5
X138.0Y-88.0
X139.394Y-101.369
X139.5Y-135.5
X141.0Y-122.5
X141.075Y-181.0
X142.0Y-155.0
X142.5Y-88.0
X142.6Y-163.5
X142.85Y-135.25
X143.5Y-181.5
X144.575Y-101.4
X146.0Y-122.5
X146.5Y-163.5
X146.575Y-135.475
X147.0Y-88.0
X147.075Y-181.0
X148.0Y-155.0
X148.5Y-101.5
X149.5Y-181.5
X150.5Y-163.5
X151.0Y-122.5
X151.5Y-88.0
X151.6Y-135.5
X153.0Y-101.5
X153.075Y-181.0
X154.0Y-155.0
X155.0Y-163.5
X155.2Y-135.5
X155.5Y-181.5
X155.575Y-98.0
X156.0Y-88.0
X156.0Y-122.5
X158.075Y-180.925
X159.999Y-97.559
X160.0Y-155.0
X160.1Y-163.5
X160.5Y-88.0
X161.0Y-122.5
X161.5Y-181.6
X163.1Y-135.5
X163.5Y-181.0
X164.5Y-96.995
X165.0Y-88.0
X165.5Y-132.5
X166.0Y-122.5
X166.0Y-155.0
X167.5Y-181.5
X170.18Y-166.98
X170.5Y-132.0
X171.0Y-122.5
X171.075Y-181.0
X172.0Y-155.0
X173.5Y-181.5
X175.25Y-131.5
X176.0Y-122.5
X177.0Y-163.5
X177.075Y-181.0
X178.0Y-155.0
X179.5Y-181.5
X180.5Y-130.9
X181.0Y-122.5
X183.575Y-181.0
X185.1Y-128.0
X185.5Y-181.5
X186.0Y-122.5
X189.575Y-181.0
X191.364Y-181.661
T2
X128.2Y-70.0
X128.2Y-196.0
X128.903Y-68.303
X128.903Y-71.697
X128.903Y-194.303
X128.903Y-197.697
X130.6Y-67.6
X130.6Y-72.4
X130.6Y-193.6
X130.6Y-198.4
X132.297Y-68.303
X132.297Y-71.697
X132.297Y-194.303
X132.297Y-197.697
X133.0Y-70.0
X133.0Y-196.0
X191.2Y-70.0
X191.2Y-196.0
X191.903Y-68.303
X191.903Y-71.697
X191.903Y-194.303
X191.903Y-197.697
X193.6Y-67.6
X193.6Y-72.4
X193.6Y-193.6
X193.6Y-198.4
X195.297Y-68.303
X195.297Y-71.697
X195.297Y-194.303
X195.297Y-197.697
X196.0Y-70.0
X196.0Y-196.0
T3
X130.6Y-70.0
X130.6Y-196.0
X193.6Y-70.0
X193.6Y-196.0
M30
