%TF.GenerationSoftware,KiCad,Pcbnew,8.0.4*%
%TF.CreationDate,2024-07-29T20:22:16+09:30*%
%TF.ProjectId,2024_LED_Breakout_Board,32303234-5f4c-4454-945f-427265616b6f,rev?*%
%TF.SameCoordinates,Original*%
%TF.FileFunction,Soldermask,Bot*%
%TF.FilePolarity,Negative*%
%FSLAX46Y46*%
G04 Gerber Fmt 4.6, Leading zero omitted, Abs format (unit mm)*
G04 Created by KiCad (PCBNEW 8.0.4) date 2024-07-29 20:22:16*
%MOMM*%
%LPD*%
G01*
G04 APERTURE LIST*
%ADD10C,0.800000*%
%ADD11C,6.400000*%
%ADD12C,2.410000*%
%ADD13R,1.270000X2.540000*%
G04 APERTURE END LIST*
D10*
%TO.C,H3*%
X191200000Y-70000000D03*
X191902944Y-68302944D03*
X191902944Y-71697056D03*
X193600000Y-67600000D03*
D11*
X193600000Y-70000000D03*
D10*
X193600000Y-72400000D03*
X195297056Y-68302944D03*
X195297056Y-71697056D03*
X196000000Y-70000000D03*
%TD*%
%TO.C,H2*%
X128200000Y-196000000D03*
X128902944Y-194302944D03*
X128902944Y-197697056D03*
X130600000Y-193600000D03*
D11*
X130600000Y-196000000D03*
D10*
X130600000Y-198400000D03*
X132297056Y-194302944D03*
X132297056Y-197697056D03*
X133000000Y-196000000D03*
%TD*%
%TO.C,H4*%
X191200000Y-196000000D03*
X191902944Y-194302944D03*
X191902944Y-197697056D03*
X193600000Y-193600000D03*
D11*
X193600000Y-196000000D03*
D10*
X193600000Y-198400000D03*
X195297056Y-194302944D03*
X195297056Y-197697056D03*
X196000000Y-196000000D03*
%TD*%
%TO.C,H1*%
X128200000Y-70000000D03*
X128902944Y-68302944D03*
X128902944Y-71697056D03*
X130600000Y-67600000D03*
D11*
X130600000Y-70000000D03*
D10*
X130600000Y-72400000D03*
X132297056Y-68302944D03*
X132297056Y-71697056D03*
X133000000Y-70000000D03*
%TD*%
D12*
%TO.C,J2*%
X160350000Y-134000000D03*
X135050000Y-134000000D03*
D13*
X137200000Y-138700000D03*
X140200000Y-138700000D03*
X143200000Y-138700000D03*
X146200000Y-138700000D03*
X149200000Y-138700000D03*
X152200000Y-138700000D03*
X155200000Y-138700000D03*
X158200000Y-138700000D03*
X137200000Y-129300000D03*
X140200000Y-129300000D03*
X143200000Y-129300000D03*
X146200000Y-129300000D03*
X149200000Y-129300000D03*
X152200000Y-129300000D03*
X155200000Y-129300000D03*
X158200000Y-129300000D03*
%TD*%
D12*
%TO.C,J1*%
X158100000Y-99000000D03*
X141800000Y-99000000D03*
D13*
X143950000Y-103700000D03*
X146950000Y-103700000D03*
X149950000Y-103700000D03*
X152950000Y-103700000D03*
X155950000Y-103700000D03*
X143950000Y-94300000D03*
X146950000Y-94300000D03*
X149950000Y-94300000D03*
X152950000Y-94300000D03*
X155950000Y-94300000D03*
%TD*%
D12*
%TO.C,J3*%
X169200000Y-170200000D03*
X134900000Y-170200000D03*
D13*
X137050000Y-174900000D03*
X140050000Y-174900000D03*
X143050000Y-174900000D03*
X146050000Y-174900000D03*
X149050000Y-174900000D03*
X152050000Y-174900000D03*
X155050000Y-174900000D03*
X158050000Y-174900000D03*
X161050000Y-174900000D03*
X164050000Y-174900000D03*
X167050000Y-174900000D03*
X137050000Y-165500000D03*
X140050000Y-165500000D03*
X143050000Y-165500000D03*
X146050000Y-165500000D03*
X149050000Y-165500000D03*
X152050000Y-165500000D03*
X155050000Y-165500000D03*
X158050000Y-165500000D03*
X161050000Y-165500000D03*
X164050000Y-165500000D03*
X167050000Y-165500000D03*
%TD*%
M02*
