%TF.GenerationSoftware,KiCad,Pcbnew,8.0.4*%
%TF.CreationDate,2024-07-29T20:22:20+09:30*%
%TF.ProjectId,2024_LED_Breakout_Board,32303234-5f4c-4454-945f-427265616b6f,rev?*%
%TF.SameCoordinates,Original*%
%TF.FileFunction,Drillmap*%
%TF.FilePolarity,Positive*%
%FSLAX45Y45*%
G04 Gerber Fmt 4.5, Leading zero omitted, Abs format (unit mm)*
G04 Created by KiCad (PCBNEW 8.0.4) date 2024-07-29 20:22:20*
%MOMM*%
%LPD*%
G01*
G04 APERTURE LIST*
%ADD10C,0.050000*%
%ADD11C,0.200000*%
%ADD12C,0.100000*%
%ADD13C,0.320000*%
G04 APERTURE END LIST*
D10*
X19950000Y-7000000D02*
X19950000Y-19600000D01*
X13050000Y-6400000D02*
X19350000Y-6400000D01*
X12450000Y-19600000D02*
X12450000Y-7000000D01*
X19950000Y-19600000D02*
G75*
G02*
X19350000Y-20200000I-600000J0D01*
G01*
X13050000Y-20200000D02*
G75*
G02*
X12450000Y-19600000I0J600000D01*
G01*
X19350000Y-20200000D02*
X13050000Y-20200000D01*
X12450000Y-7000000D02*
G75*
G02*
X13050000Y-6400000I600000J0D01*
G01*
X19350000Y-6400000D02*
G75*
G02*
X19950000Y-7000000I0J-600000D01*
G01*
D11*
D12*
X12985000Y-15485000D02*
X13015000Y-15515000D01*
X13015000Y-15485000D02*
X12985000Y-15515000D01*
X12992500Y-18085000D02*
X13022500Y-18115000D01*
X13022500Y-18085000D02*
X12992500Y-18115000D01*
X13085000Y-12235000D02*
X13115000Y-12265000D01*
X13115000Y-12235000D02*
X13085000Y-12265000D01*
X13135000Y-18135000D02*
X13165000Y-18165000D01*
X13165000Y-18135000D02*
X13135000Y-18165000D01*
X13141250Y-16478750D02*
X13171250Y-16508750D01*
X13171250Y-16478750D02*
X13141250Y-16508750D01*
X13142500Y-13542500D02*
X13172500Y-13572500D01*
X13172500Y-13542500D02*
X13142500Y-13572500D01*
X13335000Y-8785000D02*
X13365000Y-8815000D01*
X13365000Y-8785000D02*
X13335000Y-8815000D01*
X13385000Y-10135000D02*
X13415000Y-10165000D01*
X13415000Y-10135000D02*
X13385000Y-10165000D01*
X13492500Y-18085000D02*
X13522500Y-18115000D01*
X13522500Y-18085000D02*
X13492500Y-18115000D01*
X13585000Y-12235000D02*
X13615000Y-12265000D01*
X13615000Y-12235000D02*
X13585000Y-12265000D01*
X13585000Y-15485000D02*
X13615000Y-15515000D01*
X13615000Y-15485000D02*
X13585000Y-15515000D01*
X13735000Y-16340000D02*
X13765000Y-16370000D01*
X13765000Y-16340000D02*
X13735000Y-16370000D01*
X13735000Y-18135000D02*
X13765000Y-18165000D01*
X13765000Y-18135000D02*
X13735000Y-18165000D01*
X13785000Y-8785000D02*
X13815000Y-8815000D01*
X13815000Y-8785000D02*
X13785000Y-8815000D01*
X13924375Y-10121875D02*
X13954375Y-10151875D01*
X13954375Y-10121875D02*
X13924375Y-10151875D01*
X13935000Y-13535000D02*
X13965000Y-13565000D01*
X13965000Y-13535000D02*
X13935000Y-13565000D01*
X14085000Y-12235000D02*
X14115000Y-12265000D01*
X14115000Y-12235000D02*
X14085000Y-12265000D01*
X14092500Y-18085000D02*
X14122500Y-18115000D01*
X14122500Y-18085000D02*
X14092500Y-18115000D01*
X14185000Y-15485000D02*
X14215000Y-15515000D01*
X14215000Y-15485000D02*
X14185000Y-15515000D01*
X14235000Y-8785000D02*
X14265000Y-8815000D01*
X14265000Y-8785000D02*
X14235000Y-8815000D01*
X14245000Y-16335000D02*
X14275000Y-16365000D01*
X14275000Y-16335000D02*
X14245000Y-16365000D01*
X14270000Y-13510000D02*
X14300000Y-13540000D01*
X14300000Y-13510000D02*
X14270000Y-13540000D01*
X14335000Y-18135000D02*
X14365000Y-18165000D01*
X14365000Y-18135000D02*
X14335000Y-18165000D01*
X14442500Y-10125000D02*
X14472500Y-10155000D01*
X14472500Y-10125000D02*
X14442500Y-10155000D01*
X14585000Y-12235000D02*
X14615000Y-12265000D01*
X14615000Y-12235000D02*
X14585000Y-12265000D01*
X14635000Y-16335000D02*
X14665000Y-16365000D01*
X14665000Y-16335000D02*
X14635000Y-16365000D01*
X14642500Y-13532500D02*
X14672500Y-13562500D01*
X14672500Y-13532500D02*
X14642500Y-13562500D01*
X14685000Y-8785000D02*
X14715000Y-8815000D01*
X14715000Y-8785000D02*
X14685000Y-8815000D01*
X14692500Y-18085000D02*
X14722500Y-18115000D01*
X14722500Y-18085000D02*
X14692500Y-18115000D01*
X14785000Y-15485000D02*
X14815000Y-15515000D01*
X14815000Y-15485000D02*
X14785000Y-15515000D01*
X14835000Y-10135000D02*
X14865000Y-10165000D01*
X14865000Y-10135000D02*
X14835000Y-10165000D01*
X14935000Y-18135000D02*
X14965000Y-18165000D01*
X14965000Y-18135000D02*
X14935000Y-18165000D01*
X15035000Y-16335000D02*
X15065000Y-16365000D01*
X15065000Y-16335000D02*
X15035000Y-16365000D01*
X15085000Y-12235000D02*
X15115000Y-12265000D01*
X15115000Y-12235000D02*
X15085000Y-12265000D01*
X15135000Y-8785000D02*
X15165000Y-8815000D01*
X15165000Y-8785000D02*
X15135000Y-8815000D01*
X15145000Y-13535000D02*
X15175000Y-13565000D01*
X15175000Y-13535000D02*
X15145000Y-13565000D01*
X15285000Y-10135000D02*
X15315000Y-10165000D01*
X15315000Y-10135000D02*
X15285000Y-10165000D01*
X15292500Y-18085000D02*
X15322500Y-18115000D01*
X15322500Y-18085000D02*
X15292500Y-18115000D01*
X15385000Y-15485000D02*
X15415000Y-15515000D01*
X15415000Y-15485000D02*
X15385000Y-15515000D01*
X15485000Y-16335000D02*
X15515000Y-16365000D01*
X15515000Y-16335000D02*
X15485000Y-16365000D01*
X15505000Y-13535000D02*
X15535000Y-13565000D01*
X15535000Y-13535000D02*
X15505000Y-13565000D01*
X15535000Y-18135000D02*
X15565000Y-18165000D01*
X15565000Y-18135000D02*
X15535000Y-18165000D01*
X15542500Y-9785000D02*
X15572500Y-9815000D01*
X15572500Y-9785000D02*
X15542500Y-9815000D01*
X15585000Y-8785000D02*
X15615000Y-8815000D01*
X15615000Y-8785000D02*
X15585000Y-8815000D01*
X15585000Y-12235000D02*
X15615000Y-12265000D01*
X15615000Y-12235000D02*
X15585000Y-12265000D01*
X15792500Y-18077500D02*
X15822500Y-18107500D01*
X15822500Y-18077500D02*
X15792500Y-18107500D01*
X15984909Y-9740949D02*
X16014909Y-9770949D01*
X16014909Y-9740949D02*
X15984909Y-9770949D01*
X15985000Y-15485000D02*
X16015000Y-15515000D01*
X16015000Y-15485000D02*
X15985000Y-15515000D01*
X15995000Y-16335000D02*
X16025000Y-16365000D01*
X16025000Y-16335000D02*
X15995000Y-16365000D01*
X16035000Y-8785000D02*
X16065000Y-8815000D01*
X16065000Y-8785000D02*
X16035000Y-8815000D01*
X16085000Y-12235000D02*
X16115000Y-12265000D01*
X16115000Y-12235000D02*
X16085000Y-12265000D01*
X16135000Y-18145000D02*
X16165000Y-18175000D01*
X16165000Y-18145000D02*
X16135000Y-18175000D01*
X16295000Y-13535000D02*
X16325000Y-13565000D01*
X16325000Y-13535000D02*
X16295000Y-13565000D01*
X16335000Y-18085000D02*
X16365000Y-18115000D01*
X16365000Y-18085000D02*
X16335000Y-18115000D01*
X16435000Y-9684541D02*
X16465000Y-9714541D01*
X16465000Y-9684541D02*
X16435000Y-9714541D01*
X16485000Y-8785000D02*
X16515000Y-8815000D01*
X16515000Y-8785000D02*
X16485000Y-8815000D01*
X16535000Y-13235000D02*
X16565000Y-13265000D01*
X16565000Y-13235000D02*
X16535000Y-13265000D01*
X16585000Y-12235000D02*
X16615000Y-12265000D01*
X16615000Y-12235000D02*
X16585000Y-12265000D01*
X16585000Y-15485000D02*
X16615000Y-15515000D01*
X16615000Y-15485000D02*
X16585000Y-15515000D01*
X16735000Y-18135000D02*
X16765000Y-18165000D01*
X16765000Y-18135000D02*
X16735000Y-18165000D01*
X17003000Y-16682960D02*
X17033000Y-16712960D01*
X17033000Y-16682960D02*
X17003000Y-16712960D01*
X17035000Y-13185000D02*
X17065000Y-13215000D01*
X17065000Y-13185000D02*
X17035000Y-13215000D01*
X17085000Y-12235000D02*
X17115000Y-12265000D01*
X17115000Y-12235000D02*
X17085000Y-12265000D01*
X17092500Y-18085000D02*
X17122500Y-18115000D01*
X17122500Y-18085000D02*
X17092500Y-18115000D01*
X17185000Y-15485000D02*
X17215000Y-15515000D01*
X17215000Y-15485000D02*
X17185000Y-15515000D01*
X17335000Y-18135000D02*
X17365000Y-18165000D01*
X17365000Y-18135000D02*
X17335000Y-18165000D01*
X17510000Y-13135000D02*
X17540000Y-13165000D01*
X17540000Y-13135000D02*
X17510000Y-13165000D01*
X17585000Y-12235000D02*
X17615000Y-12265000D01*
X17615000Y-12235000D02*
X17585000Y-12265000D01*
X17685000Y-16335000D02*
X17715000Y-16365000D01*
X17715000Y-16335000D02*
X17685000Y-16365000D01*
X17692500Y-18085000D02*
X17722500Y-18115000D01*
X17722500Y-18085000D02*
X17692500Y-18115000D01*
X17785000Y-15485000D02*
X17815000Y-15515000D01*
X17815000Y-15485000D02*
X17785000Y-15515000D01*
X17935000Y-18135000D02*
X17965000Y-18165000D01*
X17965000Y-18135000D02*
X17935000Y-18165000D01*
X18035000Y-13075000D02*
X18065000Y-13105000D01*
X18065000Y-13075000D02*
X18035000Y-13105000D01*
X18085000Y-12235000D02*
X18115000Y-12265000D01*
X18115000Y-12235000D02*
X18085000Y-12265000D01*
X18342500Y-18085000D02*
X18372500Y-18115000D01*
X18372500Y-18085000D02*
X18342500Y-18115000D01*
X18495000Y-12785000D02*
X18525000Y-12815000D01*
X18525000Y-12785000D02*
X18495000Y-12815000D01*
X18535000Y-18135000D02*
X18565000Y-18165000D01*
X18565000Y-18135000D02*
X18535000Y-18165000D01*
X18585000Y-12235000D02*
X18615000Y-12265000D01*
X18615000Y-12235000D02*
X18585000Y-12265000D01*
X18942500Y-18085000D02*
X18972500Y-18115000D01*
X18972500Y-18085000D02*
X18942500Y-18115000D01*
X19121360Y-18151080D02*
X19151360Y-18181080D01*
X19151360Y-18151080D02*
X19121360Y-18181080D01*
X12845000Y-7000000D02*
G75*
G02*
X12795000Y-7000000I-25000J0D01*
G01*
X12795000Y-7000000D02*
G75*
G02*
X12845000Y-7000000I25000J0D01*
G01*
X12845000Y-19600000D02*
G75*
G02*
X12795000Y-19600000I-25000J0D01*
G01*
X12795000Y-19600000D02*
G75*
G02*
X12845000Y-19600000I25000J0D01*
G01*
X12915294Y-6830294D02*
G75*
G02*
X12865294Y-6830294I-25000J0D01*
G01*
X12865294Y-6830294D02*
G75*
G02*
X12915294Y-6830294I25000J0D01*
G01*
X12915294Y-7169706D02*
G75*
G02*
X12865294Y-7169706I-25000J0D01*
G01*
X12865294Y-7169706D02*
G75*
G02*
X12915294Y-7169706I25000J0D01*
G01*
X12915294Y-19430294D02*
G75*
G02*
X12865294Y-19430294I-25000J0D01*
G01*
X12865294Y-19430294D02*
G75*
G02*
X12915294Y-19430294I25000J0D01*
G01*
X12915294Y-19769706D02*
G75*
G02*
X12865294Y-19769706I-25000J0D01*
G01*
X12865294Y-19769706D02*
G75*
G02*
X12915294Y-19769706I25000J0D01*
G01*
X13085000Y-6760000D02*
G75*
G02*
X13035000Y-6760000I-25000J0D01*
G01*
X13035000Y-6760000D02*
G75*
G02*
X13085000Y-6760000I25000J0D01*
G01*
X13085000Y-7240000D02*
G75*
G02*
X13035000Y-7240000I-25000J0D01*
G01*
X13035000Y-7240000D02*
G75*
G02*
X13085000Y-7240000I25000J0D01*
G01*
X13085000Y-19360000D02*
G75*
G02*
X13035000Y-19360000I-25000J0D01*
G01*
X13035000Y-19360000D02*
G75*
G02*
X13085000Y-19360000I25000J0D01*
G01*
X13085000Y-19840000D02*
G75*
G02*
X13035000Y-19840000I-25000J0D01*
G01*
X13035000Y-19840000D02*
G75*
G02*
X13085000Y-19840000I25000J0D01*
G01*
X13254706Y-6830294D02*
G75*
G02*
X13204706Y-6830294I-25000J0D01*
G01*
X13204706Y-6830294D02*
G75*
G02*
X13254706Y-6830294I25000J0D01*
G01*
X13254706Y-7169706D02*
G75*
G02*
X13204706Y-7169706I-25000J0D01*
G01*
X13204706Y-7169706D02*
G75*
G02*
X13254706Y-7169706I25000J0D01*
G01*
X13254706Y-19430294D02*
G75*
G02*
X13204706Y-19430294I-25000J0D01*
G01*
X13204706Y-19430294D02*
G75*
G02*
X13254706Y-19430294I25000J0D01*
G01*
X13254706Y-19769706D02*
G75*
G02*
X13204706Y-19769706I-25000J0D01*
G01*
X13204706Y-19769706D02*
G75*
G02*
X13254706Y-19769706I25000J0D01*
G01*
X13325000Y-7000000D02*
G75*
G02*
X13275000Y-7000000I-25000J0D01*
G01*
X13275000Y-7000000D02*
G75*
G02*
X13325000Y-7000000I25000J0D01*
G01*
X13325000Y-19600000D02*
G75*
G02*
X13275000Y-19600000I-25000J0D01*
G01*
X13275000Y-19600000D02*
G75*
G02*
X13325000Y-19600000I25000J0D01*
G01*
X19145000Y-7000000D02*
G75*
G02*
X19095000Y-7000000I-25000J0D01*
G01*
X19095000Y-7000000D02*
G75*
G02*
X19145000Y-7000000I25000J0D01*
G01*
X19145000Y-19600000D02*
G75*
G02*
X19095000Y-19600000I-25000J0D01*
G01*
X19095000Y-19600000D02*
G75*
G02*
X19145000Y-19600000I25000J0D01*
G01*
X19215294Y-6830294D02*
G75*
G02*
X19165294Y-6830294I-25000J0D01*
G01*
X19165294Y-6830294D02*
G75*
G02*
X19215294Y-6830294I25000J0D01*
G01*
X19215294Y-7169706D02*
G75*
G02*
X19165294Y-7169706I-25000J0D01*
G01*
X19165294Y-7169706D02*
G75*
G02*
X19215294Y-7169706I25000J0D01*
G01*
X19215294Y-19430294D02*
G75*
G02*
X19165294Y-19430294I-25000J0D01*
G01*
X19165294Y-19430294D02*
G75*
G02*
X19215294Y-19430294I25000J0D01*
G01*
X19215294Y-19769706D02*
G75*
G02*
X19165294Y-19769706I-25000J0D01*
G01*
X19165294Y-19769706D02*
G75*
G02*
X19215294Y-19769706I25000J0D01*
G01*
X19385000Y-6760000D02*
G75*
G02*
X19335000Y-6760000I-25000J0D01*
G01*
X19335000Y-6760000D02*
G75*
G02*
X19385000Y-6760000I25000J0D01*
G01*
X19385000Y-7240000D02*
G75*
G02*
X19335000Y-7240000I-25000J0D01*
G01*
X19335000Y-7240000D02*
G75*
G02*
X19385000Y-7240000I25000J0D01*
G01*
X19385000Y-19360000D02*
G75*
G02*
X19335000Y-19360000I-25000J0D01*
G01*
X19335000Y-19360000D02*
G75*
G02*
X19385000Y-19360000I25000J0D01*
G01*
X19385000Y-19840000D02*
G75*
G02*
X19335000Y-19840000I-25000J0D01*
G01*
X19335000Y-19840000D02*
G75*
G02*
X19385000Y-19840000I25000J0D01*
G01*
X19554706Y-6830294D02*
G75*
G02*
X19504706Y-6830294I-25000J0D01*
G01*
X19504706Y-6830294D02*
G75*
G02*
X19554706Y-6830294I25000J0D01*
G01*
X19554706Y-7169706D02*
G75*
G02*
X19504706Y-7169706I-25000J0D01*
G01*
X19504706Y-7169706D02*
G75*
G02*
X19554706Y-7169706I25000J0D01*
G01*
X19554706Y-19430294D02*
G75*
G02*
X19504706Y-19430294I-25000J0D01*
G01*
X19504706Y-19430294D02*
G75*
G02*
X19554706Y-19430294I25000J0D01*
G01*
X19554706Y-19769706D02*
G75*
G02*
X19504706Y-19769706I-25000J0D01*
G01*
X19504706Y-19769706D02*
G75*
G02*
X19554706Y-19769706I25000J0D01*
G01*
X19625000Y-7000000D02*
G75*
G02*
X19575000Y-7000000I-25000J0D01*
G01*
X19575000Y-7000000D02*
G75*
G02*
X19625000Y-7000000I25000J0D01*
G01*
X19625000Y-19600000D02*
G75*
G02*
X19575000Y-19600000I-25000J0D01*
G01*
X19575000Y-19600000D02*
G75*
G02*
X19625000Y-19600000I25000J0D01*
G01*
D13*
X13060000Y-6840000D02*
X13060000Y-7160000D01*
X12900000Y-7000000D02*
X13220000Y-7000000D01*
X13060000Y-19440000D02*
X13060000Y-19760000D01*
X12900000Y-19600000D02*
X13220000Y-19600000D01*
X19360000Y-6840000D02*
X19360000Y-7160000D01*
X19200000Y-7000000D02*
X19520000Y-7000000D01*
X19360000Y-19440000D02*
X19360000Y-19760000D01*
X19200000Y-19600000D02*
X19520000Y-19600000D01*
D11*
X12708277Y-20513984D02*
X12708277Y-20313984D01*
X12708277Y-20313984D02*
X12755896Y-20313984D01*
X12755896Y-20313984D02*
X12784467Y-20323508D01*
X12784467Y-20323508D02*
X12803515Y-20342555D01*
X12803515Y-20342555D02*
X12813039Y-20361603D01*
X12813039Y-20361603D02*
X12822562Y-20399698D01*
X12822562Y-20399698D02*
X12822562Y-20428270D01*
X12822562Y-20428270D02*
X12813039Y-20466365D01*
X12813039Y-20466365D02*
X12803515Y-20485412D01*
X12803515Y-20485412D02*
X12784467Y-20504460D01*
X12784467Y-20504460D02*
X12755896Y-20513984D01*
X12755896Y-20513984D02*
X12708277Y-20513984D01*
X12908277Y-20513984D02*
X12908277Y-20380650D01*
X12908277Y-20418746D02*
X12917801Y-20399698D01*
X12917801Y-20399698D02*
X12927324Y-20390174D01*
X12927324Y-20390174D02*
X12946372Y-20380650D01*
X12946372Y-20380650D02*
X12965420Y-20380650D01*
X13032086Y-20513984D02*
X13032086Y-20380650D01*
X13032086Y-20313984D02*
X13022562Y-20323508D01*
X13022562Y-20323508D02*
X13032086Y-20333031D01*
X13032086Y-20333031D02*
X13041610Y-20323508D01*
X13041610Y-20323508D02*
X13032086Y-20313984D01*
X13032086Y-20313984D02*
X13032086Y-20333031D01*
X13155896Y-20513984D02*
X13136848Y-20504460D01*
X13136848Y-20504460D02*
X13127324Y-20485412D01*
X13127324Y-20485412D02*
X13127324Y-20313984D01*
X13260658Y-20513984D02*
X13241610Y-20504460D01*
X13241610Y-20504460D02*
X13232086Y-20485412D01*
X13232086Y-20485412D02*
X13232086Y-20313984D01*
X13489229Y-20513984D02*
X13489229Y-20313984D01*
X13489229Y-20313984D02*
X13555896Y-20456841D01*
X13555896Y-20456841D02*
X13622562Y-20313984D01*
X13622562Y-20313984D02*
X13622562Y-20513984D01*
X13803515Y-20513984D02*
X13803515Y-20409222D01*
X13803515Y-20409222D02*
X13793991Y-20390174D01*
X13793991Y-20390174D02*
X13774943Y-20380650D01*
X13774943Y-20380650D02*
X13736848Y-20380650D01*
X13736848Y-20380650D02*
X13717801Y-20390174D01*
X13803515Y-20504460D02*
X13784467Y-20513984D01*
X13784467Y-20513984D02*
X13736848Y-20513984D01*
X13736848Y-20513984D02*
X13717801Y-20504460D01*
X13717801Y-20504460D02*
X13708277Y-20485412D01*
X13708277Y-20485412D02*
X13708277Y-20466365D01*
X13708277Y-20466365D02*
X13717801Y-20447317D01*
X13717801Y-20447317D02*
X13736848Y-20437793D01*
X13736848Y-20437793D02*
X13784467Y-20437793D01*
X13784467Y-20437793D02*
X13803515Y-20428270D01*
X13898753Y-20380650D02*
X13898753Y-20580650D01*
X13898753Y-20390174D02*
X13917801Y-20380650D01*
X13917801Y-20380650D02*
X13955896Y-20380650D01*
X13955896Y-20380650D02*
X13974943Y-20390174D01*
X13974943Y-20390174D02*
X13984467Y-20399698D01*
X13984467Y-20399698D02*
X13993991Y-20418746D01*
X13993991Y-20418746D02*
X13993991Y-20475889D01*
X13993991Y-20475889D02*
X13984467Y-20494936D01*
X13984467Y-20494936D02*
X13974943Y-20504460D01*
X13974943Y-20504460D02*
X13955896Y-20513984D01*
X13955896Y-20513984D02*
X13917801Y-20513984D01*
X13917801Y-20513984D02*
X13898753Y-20504460D01*
X14079705Y-20494936D02*
X14089229Y-20504460D01*
X14089229Y-20504460D02*
X14079705Y-20513984D01*
X14079705Y-20513984D02*
X14070182Y-20504460D01*
X14070182Y-20504460D02*
X14079705Y-20494936D01*
X14079705Y-20494936D02*
X14079705Y-20513984D01*
X14079705Y-20390174D02*
X14089229Y-20399698D01*
X14089229Y-20399698D02*
X14079705Y-20409222D01*
X14079705Y-20409222D02*
X14070182Y-20399698D01*
X14070182Y-20399698D02*
X14079705Y-20390174D01*
X14079705Y-20390174D02*
X14079705Y-20409222D01*
D12*
X12417500Y-20827500D02*
X12447500Y-20857500D01*
X12447500Y-20827500D02*
X12417500Y-20857500D01*
D11*
X12746372Y-20733984D02*
X12765420Y-20733984D01*
X12765420Y-20733984D02*
X12784467Y-20743508D01*
X12784467Y-20743508D02*
X12793991Y-20753031D01*
X12793991Y-20753031D02*
X12803515Y-20772079D01*
X12803515Y-20772079D02*
X12813039Y-20810174D01*
X12813039Y-20810174D02*
X12813039Y-20857793D01*
X12813039Y-20857793D02*
X12803515Y-20895889D01*
X12803515Y-20895889D02*
X12793991Y-20914936D01*
X12793991Y-20914936D02*
X12784467Y-20924460D01*
X12784467Y-20924460D02*
X12765420Y-20933984D01*
X12765420Y-20933984D02*
X12746372Y-20933984D01*
X12746372Y-20933984D02*
X12727324Y-20924460D01*
X12727324Y-20924460D02*
X12717801Y-20914936D01*
X12717801Y-20914936D02*
X12708277Y-20895889D01*
X12708277Y-20895889D02*
X12698753Y-20857793D01*
X12698753Y-20857793D02*
X12698753Y-20810174D01*
X12698753Y-20810174D02*
X12708277Y-20772079D01*
X12708277Y-20772079D02*
X12717801Y-20753031D01*
X12717801Y-20753031D02*
X12727324Y-20743508D01*
X12727324Y-20743508D02*
X12746372Y-20733984D01*
X12898753Y-20914936D02*
X12908277Y-20924460D01*
X12908277Y-20924460D02*
X12898753Y-20933984D01*
X12898753Y-20933984D02*
X12889229Y-20924460D01*
X12889229Y-20924460D02*
X12898753Y-20914936D01*
X12898753Y-20914936D02*
X12898753Y-20933984D01*
X12974943Y-20733984D02*
X13098753Y-20733984D01*
X13098753Y-20733984D02*
X13032086Y-20810174D01*
X13032086Y-20810174D02*
X13060658Y-20810174D01*
X13060658Y-20810174D02*
X13079705Y-20819698D01*
X13079705Y-20819698D02*
X13089229Y-20829222D01*
X13089229Y-20829222D02*
X13098753Y-20848270D01*
X13098753Y-20848270D02*
X13098753Y-20895889D01*
X13098753Y-20895889D02*
X13089229Y-20914936D01*
X13089229Y-20914936D02*
X13079705Y-20924460D01*
X13079705Y-20924460D02*
X13060658Y-20933984D01*
X13060658Y-20933984D02*
X13003515Y-20933984D01*
X13003515Y-20933984D02*
X12984467Y-20924460D01*
X12984467Y-20924460D02*
X12974943Y-20914936D01*
X13222562Y-20733984D02*
X13241610Y-20733984D01*
X13241610Y-20733984D02*
X13260658Y-20743508D01*
X13260658Y-20743508D02*
X13270182Y-20753031D01*
X13270182Y-20753031D02*
X13279705Y-20772079D01*
X13279705Y-20772079D02*
X13289229Y-20810174D01*
X13289229Y-20810174D02*
X13289229Y-20857793D01*
X13289229Y-20857793D02*
X13279705Y-20895889D01*
X13279705Y-20895889D02*
X13270182Y-20914936D01*
X13270182Y-20914936D02*
X13260658Y-20924460D01*
X13260658Y-20924460D02*
X13241610Y-20933984D01*
X13241610Y-20933984D02*
X13222562Y-20933984D01*
X13222562Y-20933984D02*
X13203515Y-20924460D01*
X13203515Y-20924460D02*
X13193991Y-20914936D01*
X13193991Y-20914936D02*
X13184467Y-20895889D01*
X13184467Y-20895889D02*
X13174943Y-20857793D01*
X13174943Y-20857793D02*
X13174943Y-20810174D01*
X13174943Y-20810174D02*
X13184467Y-20772079D01*
X13184467Y-20772079D02*
X13193991Y-20753031D01*
X13193991Y-20753031D02*
X13203515Y-20743508D01*
X13203515Y-20743508D02*
X13222562Y-20733984D01*
X13413039Y-20733984D02*
X13432086Y-20733984D01*
X13432086Y-20733984D02*
X13451134Y-20743508D01*
X13451134Y-20743508D02*
X13460658Y-20753031D01*
X13460658Y-20753031D02*
X13470182Y-20772079D01*
X13470182Y-20772079D02*
X13479705Y-20810174D01*
X13479705Y-20810174D02*
X13479705Y-20857793D01*
X13479705Y-20857793D02*
X13470182Y-20895889D01*
X13470182Y-20895889D02*
X13460658Y-20914936D01*
X13460658Y-20914936D02*
X13451134Y-20924460D01*
X13451134Y-20924460D02*
X13432086Y-20933984D01*
X13432086Y-20933984D02*
X13413039Y-20933984D01*
X13413039Y-20933984D02*
X13393991Y-20924460D01*
X13393991Y-20924460D02*
X13384467Y-20914936D01*
X13384467Y-20914936D02*
X13374943Y-20895889D01*
X13374943Y-20895889D02*
X13365420Y-20857793D01*
X13365420Y-20857793D02*
X13365420Y-20810174D01*
X13365420Y-20810174D02*
X13374943Y-20772079D01*
X13374943Y-20772079D02*
X13384467Y-20753031D01*
X13384467Y-20753031D02*
X13393991Y-20743508D01*
X13393991Y-20743508D02*
X13413039Y-20733984D01*
X13565420Y-20933984D02*
X13565420Y-20800650D01*
X13565420Y-20819698D02*
X13574943Y-20810174D01*
X13574943Y-20810174D02*
X13593991Y-20800650D01*
X13593991Y-20800650D02*
X13622563Y-20800650D01*
X13622563Y-20800650D02*
X13641610Y-20810174D01*
X13641610Y-20810174D02*
X13651134Y-20829222D01*
X13651134Y-20829222D02*
X13651134Y-20933984D01*
X13651134Y-20829222D02*
X13660658Y-20810174D01*
X13660658Y-20810174D02*
X13679705Y-20800650D01*
X13679705Y-20800650D02*
X13708277Y-20800650D01*
X13708277Y-20800650D02*
X13727324Y-20810174D01*
X13727324Y-20810174D02*
X13736848Y-20829222D01*
X13736848Y-20829222D02*
X13736848Y-20933984D01*
X13832086Y-20933984D02*
X13832086Y-20800650D01*
X13832086Y-20819698D02*
X13841610Y-20810174D01*
X13841610Y-20810174D02*
X13860658Y-20800650D01*
X13860658Y-20800650D02*
X13889229Y-20800650D01*
X13889229Y-20800650D02*
X13908277Y-20810174D01*
X13908277Y-20810174D02*
X13917801Y-20829222D01*
X13917801Y-20829222D02*
X13917801Y-20933984D01*
X13917801Y-20829222D02*
X13927324Y-20810174D01*
X13927324Y-20810174D02*
X13946372Y-20800650D01*
X13946372Y-20800650D02*
X13974943Y-20800650D01*
X13974943Y-20800650D02*
X13993991Y-20810174D01*
X13993991Y-20810174D02*
X14003515Y-20829222D01*
X14003515Y-20829222D02*
X14003515Y-20933984D01*
X14393991Y-20724460D02*
X14222563Y-20981603D01*
X14651134Y-20733984D02*
X14670182Y-20733984D01*
X14670182Y-20733984D02*
X14689229Y-20743508D01*
X14689229Y-20743508D02*
X14698753Y-20753031D01*
X14698753Y-20753031D02*
X14708277Y-20772079D01*
X14708277Y-20772079D02*
X14717801Y-20810174D01*
X14717801Y-20810174D02*
X14717801Y-20857793D01*
X14717801Y-20857793D02*
X14708277Y-20895889D01*
X14708277Y-20895889D02*
X14698753Y-20914936D01*
X14698753Y-20914936D02*
X14689229Y-20924460D01*
X14689229Y-20924460D02*
X14670182Y-20933984D01*
X14670182Y-20933984D02*
X14651134Y-20933984D01*
X14651134Y-20933984D02*
X14632086Y-20924460D01*
X14632086Y-20924460D02*
X14622563Y-20914936D01*
X14622563Y-20914936D02*
X14613039Y-20895889D01*
X14613039Y-20895889D02*
X14603515Y-20857793D01*
X14603515Y-20857793D02*
X14603515Y-20810174D01*
X14603515Y-20810174D02*
X14613039Y-20772079D01*
X14613039Y-20772079D02*
X14622563Y-20753031D01*
X14622563Y-20753031D02*
X14632086Y-20743508D01*
X14632086Y-20743508D02*
X14651134Y-20733984D01*
X14803515Y-20914936D02*
X14813039Y-20924460D01*
X14813039Y-20924460D02*
X14803515Y-20933984D01*
X14803515Y-20933984D02*
X14793991Y-20924460D01*
X14793991Y-20924460D02*
X14803515Y-20914936D01*
X14803515Y-20914936D02*
X14803515Y-20933984D01*
X14936848Y-20733984D02*
X14955896Y-20733984D01*
X14955896Y-20733984D02*
X14974944Y-20743508D01*
X14974944Y-20743508D02*
X14984467Y-20753031D01*
X14984467Y-20753031D02*
X14993991Y-20772079D01*
X14993991Y-20772079D02*
X15003515Y-20810174D01*
X15003515Y-20810174D02*
X15003515Y-20857793D01*
X15003515Y-20857793D02*
X14993991Y-20895889D01*
X14993991Y-20895889D02*
X14984467Y-20914936D01*
X14984467Y-20914936D02*
X14974944Y-20924460D01*
X14974944Y-20924460D02*
X14955896Y-20933984D01*
X14955896Y-20933984D02*
X14936848Y-20933984D01*
X14936848Y-20933984D02*
X14917801Y-20924460D01*
X14917801Y-20924460D02*
X14908277Y-20914936D01*
X14908277Y-20914936D02*
X14898753Y-20895889D01*
X14898753Y-20895889D02*
X14889229Y-20857793D01*
X14889229Y-20857793D02*
X14889229Y-20810174D01*
X14889229Y-20810174D02*
X14898753Y-20772079D01*
X14898753Y-20772079D02*
X14908277Y-20753031D01*
X14908277Y-20753031D02*
X14917801Y-20743508D01*
X14917801Y-20743508D02*
X14936848Y-20733984D01*
X15193991Y-20933984D02*
X15079706Y-20933984D01*
X15136848Y-20933984D02*
X15136848Y-20733984D01*
X15136848Y-20733984D02*
X15117801Y-20762555D01*
X15117801Y-20762555D02*
X15098753Y-20781603D01*
X15098753Y-20781603D02*
X15079706Y-20791127D01*
X15384467Y-20933984D02*
X15270182Y-20933984D01*
X15327325Y-20933984D02*
X15327325Y-20733984D01*
X15327325Y-20733984D02*
X15308277Y-20762555D01*
X15308277Y-20762555D02*
X15289229Y-20781603D01*
X15289229Y-20781603D02*
X15270182Y-20791127D01*
X15498753Y-20819698D02*
X15479706Y-20810174D01*
X15479706Y-20810174D02*
X15470182Y-20800650D01*
X15470182Y-20800650D02*
X15460658Y-20781603D01*
X15460658Y-20781603D02*
X15460658Y-20772079D01*
X15460658Y-20772079D02*
X15470182Y-20753031D01*
X15470182Y-20753031D02*
X15479706Y-20743508D01*
X15479706Y-20743508D02*
X15498753Y-20733984D01*
X15498753Y-20733984D02*
X15536848Y-20733984D01*
X15536848Y-20733984D02*
X15555896Y-20743508D01*
X15555896Y-20743508D02*
X15565420Y-20753031D01*
X15565420Y-20753031D02*
X15574944Y-20772079D01*
X15574944Y-20772079D02*
X15574944Y-20781603D01*
X15574944Y-20781603D02*
X15565420Y-20800650D01*
X15565420Y-20800650D02*
X15555896Y-20810174D01*
X15555896Y-20810174D02*
X15536848Y-20819698D01*
X15536848Y-20819698D02*
X15498753Y-20819698D01*
X15498753Y-20819698D02*
X15479706Y-20829222D01*
X15479706Y-20829222D02*
X15470182Y-20838746D01*
X15470182Y-20838746D02*
X15460658Y-20857793D01*
X15460658Y-20857793D02*
X15460658Y-20895889D01*
X15460658Y-20895889D02*
X15470182Y-20914936D01*
X15470182Y-20914936D02*
X15479706Y-20924460D01*
X15479706Y-20924460D02*
X15498753Y-20933984D01*
X15498753Y-20933984D02*
X15536848Y-20933984D01*
X15536848Y-20933984D02*
X15555896Y-20924460D01*
X15555896Y-20924460D02*
X15565420Y-20914936D01*
X15565420Y-20914936D02*
X15574944Y-20895889D01*
X15574944Y-20895889D02*
X15574944Y-20857793D01*
X15574944Y-20857793D02*
X15565420Y-20838746D01*
X15565420Y-20838746D02*
X15555896Y-20829222D01*
X15555896Y-20829222D02*
X15536848Y-20819698D01*
X15651134Y-20733984D02*
X15651134Y-20772079D01*
X15727325Y-20733984D02*
X15727325Y-20772079D01*
X16022563Y-21010174D02*
X16013039Y-21000650D01*
X16013039Y-21000650D02*
X15993991Y-20972079D01*
X15993991Y-20972079D02*
X15984468Y-20953031D01*
X15984468Y-20953031D02*
X15974944Y-20924460D01*
X15974944Y-20924460D02*
X15965420Y-20876841D01*
X15965420Y-20876841D02*
X15965420Y-20838746D01*
X15965420Y-20838746D02*
X15974944Y-20791127D01*
X15974944Y-20791127D02*
X15984468Y-20762555D01*
X15984468Y-20762555D02*
X15993991Y-20743508D01*
X15993991Y-20743508D02*
X16013039Y-20714936D01*
X16013039Y-20714936D02*
X16022563Y-20705412D01*
X16127325Y-20819698D02*
X16108277Y-20810174D01*
X16108277Y-20810174D02*
X16098753Y-20800650D01*
X16098753Y-20800650D02*
X16089229Y-20781603D01*
X16089229Y-20781603D02*
X16089229Y-20772079D01*
X16089229Y-20772079D02*
X16098753Y-20753031D01*
X16098753Y-20753031D02*
X16108277Y-20743508D01*
X16108277Y-20743508D02*
X16127325Y-20733984D01*
X16127325Y-20733984D02*
X16165420Y-20733984D01*
X16165420Y-20733984D02*
X16184468Y-20743508D01*
X16184468Y-20743508D02*
X16193991Y-20753031D01*
X16193991Y-20753031D02*
X16203515Y-20772079D01*
X16203515Y-20772079D02*
X16203515Y-20781603D01*
X16203515Y-20781603D02*
X16193991Y-20800650D01*
X16193991Y-20800650D02*
X16184468Y-20810174D01*
X16184468Y-20810174D02*
X16165420Y-20819698D01*
X16165420Y-20819698D02*
X16127325Y-20819698D01*
X16127325Y-20819698D02*
X16108277Y-20829222D01*
X16108277Y-20829222D02*
X16098753Y-20838746D01*
X16098753Y-20838746D02*
X16089229Y-20857793D01*
X16089229Y-20857793D02*
X16089229Y-20895889D01*
X16089229Y-20895889D02*
X16098753Y-20914936D01*
X16098753Y-20914936D02*
X16108277Y-20924460D01*
X16108277Y-20924460D02*
X16127325Y-20933984D01*
X16127325Y-20933984D02*
X16165420Y-20933984D01*
X16165420Y-20933984D02*
X16184468Y-20924460D01*
X16184468Y-20924460D02*
X16193991Y-20914936D01*
X16193991Y-20914936D02*
X16203515Y-20895889D01*
X16203515Y-20895889D02*
X16203515Y-20857793D01*
X16203515Y-20857793D02*
X16193991Y-20838746D01*
X16193991Y-20838746D02*
X16184468Y-20829222D01*
X16184468Y-20829222D02*
X16165420Y-20819698D01*
X16327325Y-20733984D02*
X16346372Y-20733984D01*
X16346372Y-20733984D02*
X16365420Y-20743508D01*
X16365420Y-20743508D02*
X16374944Y-20753031D01*
X16374944Y-20753031D02*
X16384468Y-20772079D01*
X16384468Y-20772079D02*
X16393991Y-20810174D01*
X16393991Y-20810174D02*
X16393991Y-20857793D01*
X16393991Y-20857793D02*
X16384468Y-20895889D01*
X16384468Y-20895889D02*
X16374944Y-20914936D01*
X16374944Y-20914936D02*
X16365420Y-20924460D01*
X16365420Y-20924460D02*
X16346372Y-20933984D01*
X16346372Y-20933984D02*
X16327325Y-20933984D01*
X16327325Y-20933984D02*
X16308277Y-20924460D01*
X16308277Y-20924460D02*
X16298753Y-20914936D01*
X16298753Y-20914936D02*
X16289229Y-20895889D01*
X16289229Y-20895889D02*
X16279706Y-20857793D01*
X16279706Y-20857793D02*
X16279706Y-20810174D01*
X16279706Y-20810174D02*
X16289229Y-20772079D01*
X16289229Y-20772079D02*
X16298753Y-20753031D01*
X16298753Y-20753031D02*
X16308277Y-20743508D01*
X16308277Y-20743508D02*
X16327325Y-20733984D01*
X16632087Y-20933984D02*
X16632087Y-20733984D01*
X16717801Y-20933984D02*
X16717801Y-20829222D01*
X16717801Y-20829222D02*
X16708277Y-20810174D01*
X16708277Y-20810174D02*
X16689230Y-20800650D01*
X16689230Y-20800650D02*
X16660658Y-20800650D01*
X16660658Y-20800650D02*
X16641610Y-20810174D01*
X16641610Y-20810174D02*
X16632087Y-20819698D01*
X16841611Y-20933984D02*
X16822563Y-20924460D01*
X16822563Y-20924460D02*
X16813039Y-20914936D01*
X16813039Y-20914936D02*
X16803515Y-20895889D01*
X16803515Y-20895889D02*
X16803515Y-20838746D01*
X16803515Y-20838746D02*
X16813039Y-20819698D01*
X16813039Y-20819698D02*
X16822563Y-20810174D01*
X16822563Y-20810174D02*
X16841611Y-20800650D01*
X16841611Y-20800650D02*
X16870182Y-20800650D01*
X16870182Y-20800650D02*
X16889230Y-20810174D01*
X16889230Y-20810174D02*
X16898753Y-20819698D01*
X16898753Y-20819698D02*
X16908277Y-20838746D01*
X16908277Y-20838746D02*
X16908277Y-20895889D01*
X16908277Y-20895889D02*
X16898753Y-20914936D01*
X16898753Y-20914936D02*
X16889230Y-20924460D01*
X16889230Y-20924460D02*
X16870182Y-20933984D01*
X16870182Y-20933984D02*
X16841611Y-20933984D01*
X17022563Y-20933984D02*
X17003515Y-20924460D01*
X17003515Y-20924460D02*
X16993992Y-20905412D01*
X16993992Y-20905412D02*
X16993992Y-20733984D01*
X17174944Y-20924460D02*
X17155896Y-20933984D01*
X17155896Y-20933984D02*
X17117801Y-20933984D01*
X17117801Y-20933984D02*
X17098753Y-20924460D01*
X17098753Y-20924460D02*
X17089230Y-20905412D01*
X17089230Y-20905412D02*
X17089230Y-20829222D01*
X17089230Y-20829222D02*
X17098753Y-20810174D01*
X17098753Y-20810174D02*
X17117801Y-20800650D01*
X17117801Y-20800650D02*
X17155896Y-20800650D01*
X17155896Y-20800650D02*
X17174944Y-20810174D01*
X17174944Y-20810174D02*
X17184468Y-20829222D01*
X17184468Y-20829222D02*
X17184468Y-20848270D01*
X17184468Y-20848270D02*
X17089230Y-20867317D01*
X17260658Y-20924460D02*
X17279706Y-20933984D01*
X17279706Y-20933984D02*
X17317801Y-20933984D01*
X17317801Y-20933984D02*
X17336849Y-20924460D01*
X17336849Y-20924460D02*
X17346373Y-20905412D01*
X17346373Y-20905412D02*
X17346373Y-20895889D01*
X17346373Y-20895889D02*
X17336849Y-20876841D01*
X17336849Y-20876841D02*
X17317801Y-20867317D01*
X17317801Y-20867317D02*
X17289230Y-20867317D01*
X17289230Y-20867317D02*
X17270182Y-20857793D01*
X17270182Y-20857793D02*
X17260658Y-20838746D01*
X17260658Y-20838746D02*
X17260658Y-20829222D01*
X17260658Y-20829222D02*
X17270182Y-20810174D01*
X17270182Y-20810174D02*
X17289230Y-20800650D01*
X17289230Y-20800650D02*
X17317801Y-20800650D01*
X17317801Y-20800650D02*
X17336849Y-20810174D01*
X17413039Y-21010174D02*
X17422563Y-21000650D01*
X17422563Y-21000650D02*
X17441611Y-20972079D01*
X17441611Y-20972079D02*
X17451134Y-20953031D01*
X17451134Y-20953031D02*
X17460658Y-20924460D01*
X17460658Y-20924460D02*
X17470182Y-20876841D01*
X17470182Y-20876841D02*
X17470182Y-20838746D01*
X17470182Y-20838746D02*
X17460658Y-20791127D01*
X17460658Y-20791127D02*
X17451134Y-20762555D01*
X17451134Y-20762555D02*
X17441611Y-20743508D01*
X17441611Y-20743508D02*
X17422563Y-20714936D01*
X17422563Y-20714936D02*
X17413039Y-20705412D01*
D12*
X12447500Y-21106500D02*
G75*
G02*
X12397500Y-21106500I-25000J0D01*
G01*
X12397500Y-21106500D02*
G75*
G02*
X12447500Y-21106500I25000J0D01*
G01*
D11*
X12746372Y-20997984D02*
X12765420Y-20997984D01*
X12765420Y-20997984D02*
X12784467Y-21007508D01*
X12784467Y-21007508D02*
X12793991Y-21017031D01*
X12793991Y-21017031D02*
X12803515Y-21036079D01*
X12803515Y-21036079D02*
X12813039Y-21074174D01*
X12813039Y-21074174D02*
X12813039Y-21121793D01*
X12813039Y-21121793D02*
X12803515Y-21159889D01*
X12803515Y-21159889D02*
X12793991Y-21178936D01*
X12793991Y-21178936D02*
X12784467Y-21188460D01*
X12784467Y-21188460D02*
X12765420Y-21197984D01*
X12765420Y-21197984D02*
X12746372Y-21197984D01*
X12746372Y-21197984D02*
X12727324Y-21188460D01*
X12727324Y-21188460D02*
X12717801Y-21178936D01*
X12717801Y-21178936D02*
X12708277Y-21159889D01*
X12708277Y-21159889D02*
X12698753Y-21121793D01*
X12698753Y-21121793D02*
X12698753Y-21074174D01*
X12698753Y-21074174D02*
X12708277Y-21036079D01*
X12708277Y-21036079D02*
X12717801Y-21017031D01*
X12717801Y-21017031D02*
X12727324Y-21007508D01*
X12727324Y-21007508D02*
X12746372Y-20997984D01*
X12898753Y-21178936D02*
X12908277Y-21188460D01*
X12908277Y-21188460D02*
X12898753Y-21197984D01*
X12898753Y-21197984D02*
X12889229Y-21188460D01*
X12889229Y-21188460D02*
X12898753Y-21178936D01*
X12898753Y-21178936D02*
X12898753Y-21197984D01*
X13089229Y-20997984D02*
X12993991Y-20997984D01*
X12993991Y-20997984D02*
X12984467Y-21093222D01*
X12984467Y-21093222D02*
X12993991Y-21083698D01*
X12993991Y-21083698D02*
X13013039Y-21074174D01*
X13013039Y-21074174D02*
X13060658Y-21074174D01*
X13060658Y-21074174D02*
X13079705Y-21083698D01*
X13079705Y-21083698D02*
X13089229Y-21093222D01*
X13089229Y-21093222D02*
X13098753Y-21112270D01*
X13098753Y-21112270D02*
X13098753Y-21159889D01*
X13098753Y-21159889D02*
X13089229Y-21178936D01*
X13089229Y-21178936D02*
X13079705Y-21188460D01*
X13079705Y-21188460D02*
X13060658Y-21197984D01*
X13060658Y-21197984D02*
X13013039Y-21197984D01*
X13013039Y-21197984D02*
X12993991Y-21188460D01*
X12993991Y-21188460D02*
X12984467Y-21178936D01*
X13222562Y-20997984D02*
X13241610Y-20997984D01*
X13241610Y-20997984D02*
X13260658Y-21007508D01*
X13260658Y-21007508D02*
X13270182Y-21017031D01*
X13270182Y-21017031D02*
X13279705Y-21036079D01*
X13279705Y-21036079D02*
X13289229Y-21074174D01*
X13289229Y-21074174D02*
X13289229Y-21121793D01*
X13289229Y-21121793D02*
X13279705Y-21159889D01*
X13279705Y-21159889D02*
X13270182Y-21178936D01*
X13270182Y-21178936D02*
X13260658Y-21188460D01*
X13260658Y-21188460D02*
X13241610Y-21197984D01*
X13241610Y-21197984D02*
X13222562Y-21197984D01*
X13222562Y-21197984D02*
X13203515Y-21188460D01*
X13203515Y-21188460D02*
X13193991Y-21178936D01*
X13193991Y-21178936D02*
X13184467Y-21159889D01*
X13184467Y-21159889D02*
X13174943Y-21121793D01*
X13174943Y-21121793D02*
X13174943Y-21074174D01*
X13174943Y-21074174D02*
X13184467Y-21036079D01*
X13184467Y-21036079D02*
X13193991Y-21017031D01*
X13193991Y-21017031D02*
X13203515Y-21007508D01*
X13203515Y-21007508D02*
X13222562Y-20997984D01*
X13413039Y-20997984D02*
X13432086Y-20997984D01*
X13432086Y-20997984D02*
X13451134Y-21007508D01*
X13451134Y-21007508D02*
X13460658Y-21017031D01*
X13460658Y-21017031D02*
X13470182Y-21036079D01*
X13470182Y-21036079D02*
X13479705Y-21074174D01*
X13479705Y-21074174D02*
X13479705Y-21121793D01*
X13479705Y-21121793D02*
X13470182Y-21159889D01*
X13470182Y-21159889D02*
X13460658Y-21178936D01*
X13460658Y-21178936D02*
X13451134Y-21188460D01*
X13451134Y-21188460D02*
X13432086Y-21197984D01*
X13432086Y-21197984D02*
X13413039Y-21197984D01*
X13413039Y-21197984D02*
X13393991Y-21188460D01*
X13393991Y-21188460D02*
X13384467Y-21178936D01*
X13384467Y-21178936D02*
X13374943Y-21159889D01*
X13374943Y-21159889D02*
X13365420Y-21121793D01*
X13365420Y-21121793D02*
X13365420Y-21074174D01*
X13365420Y-21074174D02*
X13374943Y-21036079D01*
X13374943Y-21036079D02*
X13384467Y-21017031D01*
X13384467Y-21017031D02*
X13393991Y-21007508D01*
X13393991Y-21007508D02*
X13413039Y-20997984D01*
X13565420Y-21197984D02*
X13565420Y-21064650D01*
X13565420Y-21083698D02*
X13574943Y-21074174D01*
X13574943Y-21074174D02*
X13593991Y-21064650D01*
X13593991Y-21064650D02*
X13622563Y-21064650D01*
X13622563Y-21064650D02*
X13641610Y-21074174D01*
X13641610Y-21074174D02*
X13651134Y-21093222D01*
X13651134Y-21093222D02*
X13651134Y-21197984D01*
X13651134Y-21093222D02*
X13660658Y-21074174D01*
X13660658Y-21074174D02*
X13679705Y-21064650D01*
X13679705Y-21064650D02*
X13708277Y-21064650D01*
X13708277Y-21064650D02*
X13727324Y-21074174D01*
X13727324Y-21074174D02*
X13736848Y-21093222D01*
X13736848Y-21093222D02*
X13736848Y-21197984D01*
X13832086Y-21197984D02*
X13832086Y-21064650D01*
X13832086Y-21083698D02*
X13841610Y-21074174D01*
X13841610Y-21074174D02*
X13860658Y-21064650D01*
X13860658Y-21064650D02*
X13889229Y-21064650D01*
X13889229Y-21064650D02*
X13908277Y-21074174D01*
X13908277Y-21074174D02*
X13917801Y-21093222D01*
X13917801Y-21093222D02*
X13917801Y-21197984D01*
X13917801Y-21093222D02*
X13927324Y-21074174D01*
X13927324Y-21074174D02*
X13946372Y-21064650D01*
X13946372Y-21064650D02*
X13974943Y-21064650D01*
X13974943Y-21064650D02*
X13993991Y-21074174D01*
X13993991Y-21074174D02*
X14003515Y-21093222D01*
X14003515Y-21093222D02*
X14003515Y-21197984D01*
X14393991Y-20988460D02*
X14222563Y-21245603D01*
X14651134Y-20997984D02*
X14670182Y-20997984D01*
X14670182Y-20997984D02*
X14689229Y-21007508D01*
X14689229Y-21007508D02*
X14698753Y-21017031D01*
X14698753Y-21017031D02*
X14708277Y-21036079D01*
X14708277Y-21036079D02*
X14717801Y-21074174D01*
X14717801Y-21074174D02*
X14717801Y-21121793D01*
X14717801Y-21121793D02*
X14708277Y-21159889D01*
X14708277Y-21159889D02*
X14698753Y-21178936D01*
X14698753Y-21178936D02*
X14689229Y-21188460D01*
X14689229Y-21188460D02*
X14670182Y-21197984D01*
X14670182Y-21197984D02*
X14651134Y-21197984D01*
X14651134Y-21197984D02*
X14632086Y-21188460D01*
X14632086Y-21188460D02*
X14622563Y-21178936D01*
X14622563Y-21178936D02*
X14613039Y-21159889D01*
X14613039Y-21159889D02*
X14603515Y-21121793D01*
X14603515Y-21121793D02*
X14603515Y-21074174D01*
X14603515Y-21074174D02*
X14613039Y-21036079D01*
X14613039Y-21036079D02*
X14622563Y-21017031D01*
X14622563Y-21017031D02*
X14632086Y-21007508D01*
X14632086Y-21007508D02*
X14651134Y-20997984D01*
X14803515Y-21178936D02*
X14813039Y-21188460D01*
X14813039Y-21188460D02*
X14803515Y-21197984D01*
X14803515Y-21197984D02*
X14793991Y-21188460D01*
X14793991Y-21188460D02*
X14803515Y-21178936D01*
X14803515Y-21178936D02*
X14803515Y-21197984D01*
X14936848Y-20997984D02*
X14955896Y-20997984D01*
X14955896Y-20997984D02*
X14974944Y-21007508D01*
X14974944Y-21007508D02*
X14984467Y-21017031D01*
X14984467Y-21017031D02*
X14993991Y-21036079D01*
X14993991Y-21036079D02*
X15003515Y-21074174D01*
X15003515Y-21074174D02*
X15003515Y-21121793D01*
X15003515Y-21121793D02*
X14993991Y-21159889D01*
X14993991Y-21159889D02*
X14984467Y-21178936D01*
X14984467Y-21178936D02*
X14974944Y-21188460D01*
X14974944Y-21188460D02*
X14955896Y-21197984D01*
X14955896Y-21197984D02*
X14936848Y-21197984D01*
X14936848Y-21197984D02*
X14917801Y-21188460D01*
X14917801Y-21188460D02*
X14908277Y-21178936D01*
X14908277Y-21178936D02*
X14898753Y-21159889D01*
X14898753Y-21159889D02*
X14889229Y-21121793D01*
X14889229Y-21121793D02*
X14889229Y-21074174D01*
X14889229Y-21074174D02*
X14898753Y-21036079D01*
X14898753Y-21036079D02*
X14908277Y-21017031D01*
X14908277Y-21017031D02*
X14917801Y-21007508D01*
X14917801Y-21007508D02*
X14936848Y-20997984D01*
X15193991Y-21197984D02*
X15079706Y-21197984D01*
X15136848Y-21197984D02*
X15136848Y-20997984D01*
X15136848Y-20997984D02*
X15117801Y-21026555D01*
X15117801Y-21026555D02*
X15098753Y-21045603D01*
X15098753Y-21045603D02*
X15079706Y-21055127D01*
X15289229Y-21197984D02*
X15327325Y-21197984D01*
X15327325Y-21197984D02*
X15346372Y-21188460D01*
X15346372Y-21188460D02*
X15355896Y-21178936D01*
X15355896Y-21178936D02*
X15374944Y-21150365D01*
X15374944Y-21150365D02*
X15384467Y-21112270D01*
X15384467Y-21112270D02*
X15384467Y-21036079D01*
X15384467Y-21036079D02*
X15374944Y-21017031D01*
X15374944Y-21017031D02*
X15365420Y-21007508D01*
X15365420Y-21007508D02*
X15346372Y-20997984D01*
X15346372Y-20997984D02*
X15308277Y-20997984D01*
X15308277Y-20997984D02*
X15289229Y-21007508D01*
X15289229Y-21007508D02*
X15279706Y-21017031D01*
X15279706Y-21017031D02*
X15270182Y-21036079D01*
X15270182Y-21036079D02*
X15270182Y-21083698D01*
X15270182Y-21083698D02*
X15279706Y-21102746D01*
X15279706Y-21102746D02*
X15289229Y-21112270D01*
X15289229Y-21112270D02*
X15308277Y-21121793D01*
X15308277Y-21121793D02*
X15346372Y-21121793D01*
X15346372Y-21121793D02*
X15365420Y-21112270D01*
X15365420Y-21112270D02*
X15374944Y-21102746D01*
X15374944Y-21102746D02*
X15384467Y-21083698D01*
X15451134Y-20997984D02*
X15584467Y-20997984D01*
X15584467Y-20997984D02*
X15498753Y-21197984D01*
X15651134Y-20997984D02*
X15651134Y-21036079D01*
X15727325Y-20997984D02*
X15727325Y-21036079D01*
X16022563Y-21274174D02*
X16013039Y-21264650D01*
X16013039Y-21264650D02*
X15993991Y-21236079D01*
X15993991Y-21236079D02*
X15984468Y-21217031D01*
X15984468Y-21217031D02*
X15974944Y-21188460D01*
X15974944Y-21188460D02*
X15965420Y-21140841D01*
X15965420Y-21140841D02*
X15965420Y-21102746D01*
X15965420Y-21102746D02*
X15974944Y-21055127D01*
X15974944Y-21055127D02*
X15984468Y-21026555D01*
X15984468Y-21026555D02*
X15993991Y-21007508D01*
X15993991Y-21007508D02*
X16013039Y-20978936D01*
X16013039Y-20978936D02*
X16022563Y-20969412D01*
X16079706Y-20997984D02*
X16203515Y-20997984D01*
X16203515Y-20997984D02*
X16136848Y-21074174D01*
X16136848Y-21074174D02*
X16165420Y-21074174D01*
X16165420Y-21074174D02*
X16184468Y-21083698D01*
X16184468Y-21083698D02*
X16193991Y-21093222D01*
X16193991Y-21093222D02*
X16203515Y-21112270D01*
X16203515Y-21112270D02*
X16203515Y-21159889D01*
X16203515Y-21159889D02*
X16193991Y-21178936D01*
X16193991Y-21178936D02*
X16184468Y-21188460D01*
X16184468Y-21188460D02*
X16165420Y-21197984D01*
X16165420Y-21197984D02*
X16108277Y-21197984D01*
X16108277Y-21197984D02*
X16089229Y-21188460D01*
X16089229Y-21188460D02*
X16079706Y-21178936D01*
X16279706Y-21017031D02*
X16289229Y-21007508D01*
X16289229Y-21007508D02*
X16308277Y-20997984D01*
X16308277Y-20997984D02*
X16355896Y-20997984D01*
X16355896Y-20997984D02*
X16374944Y-21007508D01*
X16374944Y-21007508D02*
X16384468Y-21017031D01*
X16384468Y-21017031D02*
X16393991Y-21036079D01*
X16393991Y-21036079D02*
X16393991Y-21055127D01*
X16393991Y-21055127D02*
X16384468Y-21083698D01*
X16384468Y-21083698D02*
X16270182Y-21197984D01*
X16270182Y-21197984D02*
X16393991Y-21197984D01*
X16632087Y-21197984D02*
X16632087Y-20997984D01*
X16717801Y-21197984D02*
X16717801Y-21093222D01*
X16717801Y-21093222D02*
X16708277Y-21074174D01*
X16708277Y-21074174D02*
X16689230Y-21064650D01*
X16689230Y-21064650D02*
X16660658Y-21064650D01*
X16660658Y-21064650D02*
X16641610Y-21074174D01*
X16641610Y-21074174D02*
X16632087Y-21083698D01*
X16841611Y-21197984D02*
X16822563Y-21188460D01*
X16822563Y-21188460D02*
X16813039Y-21178936D01*
X16813039Y-21178936D02*
X16803515Y-21159889D01*
X16803515Y-21159889D02*
X16803515Y-21102746D01*
X16803515Y-21102746D02*
X16813039Y-21083698D01*
X16813039Y-21083698D02*
X16822563Y-21074174D01*
X16822563Y-21074174D02*
X16841611Y-21064650D01*
X16841611Y-21064650D02*
X16870182Y-21064650D01*
X16870182Y-21064650D02*
X16889230Y-21074174D01*
X16889230Y-21074174D02*
X16898753Y-21083698D01*
X16898753Y-21083698D02*
X16908277Y-21102746D01*
X16908277Y-21102746D02*
X16908277Y-21159889D01*
X16908277Y-21159889D02*
X16898753Y-21178936D01*
X16898753Y-21178936D02*
X16889230Y-21188460D01*
X16889230Y-21188460D02*
X16870182Y-21197984D01*
X16870182Y-21197984D02*
X16841611Y-21197984D01*
X17022563Y-21197984D02*
X17003515Y-21188460D01*
X17003515Y-21188460D02*
X16993992Y-21169412D01*
X16993992Y-21169412D02*
X16993992Y-20997984D01*
X17174944Y-21188460D02*
X17155896Y-21197984D01*
X17155896Y-21197984D02*
X17117801Y-21197984D01*
X17117801Y-21197984D02*
X17098753Y-21188460D01*
X17098753Y-21188460D02*
X17089230Y-21169412D01*
X17089230Y-21169412D02*
X17089230Y-21093222D01*
X17089230Y-21093222D02*
X17098753Y-21074174D01*
X17098753Y-21074174D02*
X17117801Y-21064650D01*
X17117801Y-21064650D02*
X17155896Y-21064650D01*
X17155896Y-21064650D02*
X17174944Y-21074174D01*
X17174944Y-21074174D02*
X17184468Y-21093222D01*
X17184468Y-21093222D02*
X17184468Y-21112270D01*
X17184468Y-21112270D02*
X17089230Y-21131317D01*
X17260658Y-21188460D02*
X17279706Y-21197984D01*
X17279706Y-21197984D02*
X17317801Y-21197984D01*
X17317801Y-21197984D02*
X17336849Y-21188460D01*
X17336849Y-21188460D02*
X17346373Y-21169412D01*
X17346373Y-21169412D02*
X17346373Y-21159889D01*
X17346373Y-21159889D02*
X17336849Y-21140841D01*
X17336849Y-21140841D02*
X17317801Y-21131317D01*
X17317801Y-21131317D02*
X17289230Y-21131317D01*
X17289230Y-21131317D02*
X17270182Y-21121793D01*
X17270182Y-21121793D02*
X17260658Y-21102746D01*
X17260658Y-21102746D02*
X17260658Y-21093222D01*
X17260658Y-21093222D02*
X17270182Y-21074174D01*
X17270182Y-21074174D02*
X17289230Y-21064650D01*
X17289230Y-21064650D02*
X17317801Y-21064650D01*
X17317801Y-21064650D02*
X17336849Y-21074174D01*
X17413039Y-21274174D02*
X17422563Y-21264650D01*
X17422563Y-21264650D02*
X17441611Y-21236079D01*
X17441611Y-21236079D02*
X17451134Y-21217031D01*
X17451134Y-21217031D02*
X17460658Y-21188460D01*
X17460658Y-21188460D02*
X17470182Y-21140841D01*
X17470182Y-21140841D02*
X17470182Y-21102746D01*
X17470182Y-21102746D02*
X17460658Y-21055127D01*
X17460658Y-21055127D02*
X17451134Y-21026555D01*
X17451134Y-21026555D02*
X17441611Y-21007508D01*
X17441611Y-21007508D02*
X17422563Y-20978936D01*
X17422563Y-20978936D02*
X17413039Y-20969412D01*
X12347500Y-21270500D02*
X12347500Y-21470500D01*
X12247500Y-21370500D02*
X12447500Y-21370500D01*
X12689229Y-21261984D02*
X12813039Y-21261984D01*
X12813039Y-21261984D02*
X12746372Y-21338174D01*
X12746372Y-21338174D02*
X12774943Y-21338174D01*
X12774943Y-21338174D02*
X12793991Y-21347698D01*
X12793991Y-21347698D02*
X12803515Y-21357222D01*
X12803515Y-21357222D02*
X12813039Y-21376270D01*
X12813039Y-21376270D02*
X12813039Y-21423889D01*
X12813039Y-21423889D02*
X12803515Y-21442936D01*
X12803515Y-21442936D02*
X12793991Y-21452460D01*
X12793991Y-21452460D02*
X12774943Y-21461984D01*
X12774943Y-21461984D02*
X12717801Y-21461984D01*
X12717801Y-21461984D02*
X12698753Y-21452460D01*
X12698753Y-21452460D02*
X12689229Y-21442936D01*
X12898753Y-21442936D02*
X12908277Y-21452460D01*
X12908277Y-21452460D02*
X12898753Y-21461984D01*
X12898753Y-21461984D02*
X12889229Y-21452460D01*
X12889229Y-21452460D02*
X12898753Y-21442936D01*
X12898753Y-21442936D02*
X12898753Y-21461984D01*
X12984467Y-21281031D02*
X12993991Y-21271508D01*
X12993991Y-21271508D02*
X13013039Y-21261984D01*
X13013039Y-21261984D02*
X13060658Y-21261984D01*
X13060658Y-21261984D02*
X13079705Y-21271508D01*
X13079705Y-21271508D02*
X13089229Y-21281031D01*
X13089229Y-21281031D02*
X13098753Y-21300079D01*
X13098753Y-21300079D02*
X13098753Y-21319127D01*
X13098753Y-21319127D02*
X13089229Y-21347698D01*
X13089229Y-21347698D02*
X12974943Y-21461984D01*
X12974943Y-21461984D02*
X13098753Y-21461984D01*
X13222562Y-21261984D02*
X13241610Y-21261984D01*
X13241610Y-21261984D02*
X13260658Y-21271508D01*
X13260658Y-21271508D02*
X13270182Y-21281031D01*
X13270182Y-21281031D02*
X13279705Y-21300079D01*
X13279705Y-21300079D02*
X13289229Y-21338174D01*
X13289229Y-21338174D02*
X13289229Y-21385793D01*
X13289229Y-21385793D02*
X13279705Y-21423889D01*
X13279705Y-21423889D02*
X13270182Y-21442936D01*
X13270182Y-21442936D02*
X13260658Y-21452460D01*
X13260658Y-21452460D02*
X13241610Y-21461984D01*
X13241610Y-21461984D02*
X13222562Y-21461984D01*
X13222562Y-21461984D02*
X13203515Y-21452460D01*
X13203515Y-21452460D02*
X13193991Y-21442936D01*
X13193991Y-21442936D02*
X13184467Y-21423889D01*
X13184467Y-21423889D02*
X13174943Y-21385793D01*
X13174943Y-21385793D02*
X13174943Y-21338174D01*
X13174943Y-21338174D02*
X13184467Y-21300079D01*
X13184467Y-21300079D02*
X13193991Y-21281031D01*
X13193991Y-21281031D02*
X13203515Y-21271508D01*
X13203515Y-21271508D02*
X13222562Y-21261984D01*
X13413039Y-21261984D02*
X13432086Y-21261984D01*
X13432086Y-21261984D02*
X13451134Y-21271508D01*
X13451134Y-21271508D02*
X13460658Y-21281031D01*
X13460658Y-21281031D02*
X13470182Y-21300079D01*
X13470182Y-21300079D02*
X13479705Y-21338174D01*
X13479705Y-21338174D02*
X13479705Y-21385793D01*
X13479705Y-21385793D02*
X13470182Y-21423889D01*
X13470182Y-21423889D02*
X13460658Y-21442936D01*
X13460658Y-21442936D02*
X13451134Y-21452460D01*
X13451134Y-21452460D02*
X13432086Y-21461984D01*
X13432086Y-21461984D02*
X13413039Y-21461984D01*
X13413039Y-21461984D02*
X13393991Y-21452460D01*
X13393991Y-21452460D02*
X13384467Y-21442936D01*
X13384467Y-21442936D02*
X13374943Y-21423889D01*
X13374943Y-21423889D02*
X13365420Y-21385793D01*
X13365420Y-21385793D02*
X13365420Y-21338174D01*
X13365420Y-21338174D02*
X13374943Y-21300079D01*
X13374943Y-21300079D02*
X13384467Y-21281031D01*
X13384467Y-21281031D02*
X13393991Y-21271508D01*
X13393991Y-21271508D02*
X13413039Y-21261984D01*
X13565420Y-21461984D02*
X13565420Y-21328650D01*
X13565420Y-21347698D02*
X13574943Y-21338174D01*
X13574943Y-21338174D02*
X13593991Y-21328650D01*
X13593991Y-21328650D02*
X13622563Y-21328650D01*
X13622563Y-21328650D02*
X13641610Y-21338174D01*
X13641610Y-21338174D02*
X13651134Y-21357222D01*
X13651134Y-21357222D02*
X13651134Y-21461984D01*
X13651134Y-21357222D02*
X13660658Y-21338174D01*
X13660658Y-21338174D02*
X13679705Y-21328650D01*
X13679705Y-21328650D02*
X13708277Y-21328650D01*
X13708277Y-21328650D02*
X13727324Y-21338174D01*
X13727324Y-21338174D02*
X13736848Y-21357222D01*
X13736848Y-21357222D02*
X13736848Y-21461984D01*
X13832086Y-21461984D02*
X13832086Y-21328650D01*
X13832086Y-21347698D02*
X13841610Y-21338174D01*
X13841610Y-21338174D02*
X13860658Y-21328650D01*
X13860658Y-21328650D02*
X13889229Y-21328650D01*
X13889229Y-21328650D02*
X13908277Y-21338174D01*
X13908277Y-21338174D02*
X13917801Y-21357222D01*
X13917801Y-21357222D02*
X13917801Y-21461984D01*
X13917801Y-21357222D02*
X13927324Y-21338174D01*
X13927324Y-21338174D02*
X13946372Y-21328650D01*
X13946372Y-21328650D02*
X13974943Y-21328650D01*
X13974943Y-21328650D02*
X13993991Y-21338174D01*
X13993991Y-21338174D02*
X14003515Y-21357222D01*
X14003515Y-21357222D02*
X14003515Y-21461984D01*
X14393991Y-21252460D02*
X14222563Y-21509603D01*
X14651134Y-21261984D02*
X14670182Y-21261984D01*
X14670182Y-21261984D02*
X14689229Y-21271508D01*
X14689229Y-21271508D02*
X14698753Y-21281031D01*
X14698753Y-21281031D02*
X14708277Y-21300079D01*
X14708277Y-21300079D02*
X14717801Y-21338174D01*
X14717801Y-21338174D02*
X14717801Y-21385793D01*
X14717801Y-21385793D02*
X14708277Y-21423889D01*
X14708277Y-21423889D02*
X14698753Y-21442936D01*
X14698753Y-21442936D02*
X14689229Y-21452460D01*
X14689229Y-21452460D02*
X14670182Y-21461984D01*
X14670182Y-21461984D02*
X14651134Y-21461984D01*
X14651134Y-21461984D02*
X14632086Y-21452460D01*
X14632086Y-21452460D02*
X14622563Y-21442936D01*
X14622563Y-21442936D02*
X14613039Y-21423889D01*
X14613039Y-21423889D02*
X14603515Y-21385793D01*
X14603515Y-21385793D02*
X14603515Y-21338174D01*
X14603515Y-21338174D02*
X14613039Y-21300079D01*
X14613039Y-21300079D02*
X14622563Y-21281031D01*
X14622563Y-21281031D02*
X14632086Y-21271508D01*
X14632086Y-21271508D02*
X14651134Y-21261984D01*
X14803515Y-21442936D02*
X14813039Y-21452460D01*
X14813039Y-21452460D02*
X14803515Y-21461984D01*
X14803515Y-21461984D02*
X14793991Y-21452460D01*
X14793991Y-21452460D02*
X14803515Y-21442936D01*
X14803515Y-21442936D02*
X14803515Y-21461984D01*
X15003515Y-21461984D02*
X14889229Y-21461984D01*
X14946372Y-21461984D02*
X14946372Y-21261984D01*
X14946372Y-21261984D02*
X14927325Y-21290555D01*
X14927325Y-21290555D02*
X14908277Y-21309603D01*
X14908277Y-21309603D02*
X14889229Y-21319127D01*
X15079706Y-21281031D02*
X15089229Y-21271508D01*
X15089229Y-21271508D02*
X15108277Y-21261984D01*
X15108277Y-21261984D02*
X15155896Y-21261984D01*
X15155896Y-21261984D02*
X15174944Y-21271508D01*
X15174944Y-21271508D02*
X15184467Y-21281031D01*
X15184467Y-21281031D02*
X15193991Y-21300079D01*
X15193991Y-21300079D02*
X15193991Y-21319127D01*
X15193991Y-21319127D02*
X15184467Y-21347698D01*
X15184467Y-21347698D02*
X15070182Y-21461984D01*
X15070182Y-21461984D02*
X15193991Y-21461984D01*
X15365420Y-21261984D02*
X15327325Y-21261984D01*
X15327325Y-21261984D02*
X15308277Y-21271508D01*
X15308277Y-21271508D02*
X15298753Y-21281031D01*
X15298753Y-21281031D02*
X15279706Y-21309603D01*
X15279706Y-21309603D02*
X15270182Y-21347698D01*
X15270182Y-21347698D02*
X15270182Y-21423889D01*
X15270182Y-21423889D02*
X15279706Y-21442936D01*
X15279706Y-21442936D02*
X15289229Y-21452460D01*
X15289229Y-21452460D02*
X15308277Y-21461984D01*
X15308277Y-21461984D02*
X15346372Y-21461984D01*
X15346372Y-21461984D02*
X15365420Y-21452460D01*
X15365420Y-21452460D02*
X15374944Y-21442936D01*
X15374944Y-21442936D02*
X15384467Y-21423889D01*
X15384467Y-21423889D02*
X15384467Y-21376270D01*
X15384467Y-21376270D02*
X15374944Y-21357222D01*
X15374944Y-21357222D02*
X15365420Y-21347698D01*
X15365420Y-21347698D02*
X15346372Y-21338174D01*
X15346372Y-21338174D02*
X15308277Y-21338174D01*
X15308277Y-21338174D02*
X15289229Y-21347698D01*
X15289229Y-21347698D02*
X15279706Y-21357222D01*
X15279706Y-21357222D02*
X15270182Y-21376270D01*
X15508277Y-21261984D02*
X15527325Y-21261984D01*
X15527325Y-21261984D02*
X15546372Y-21271508D01*
X15546372Y-21271508D02*
X15555896Y-21281031D01*
X15555896Y-21281031D02*
X15565420Y-21300079D01*
X15565420Y-21300079D02*
X15574944Y-21338174D01*
X15574944Y-21338174D02*
X15574944Y-21385793D01*
X15574944Y-21385793D02*
X15565420Y-21423889D01*
X15565420Y-21423889D02*
X15555896Y-21442936D01*
X15555896Y-21442936D02*
X15546372Y-21452460D01*
X15546372Y-21452460D02*
X15527325Y-21461984D01*
X15527325Y-21461984D02*
X15508277Y-21461984D01*
X15508277Y-21461984D02*
X15489229Y-21452460D01*
X15489229Y-21452460D02*
X15479706Y-21442936D01*
X15479706Y-21442936D02*
X15470182Y-21423889D01*
X15470182Y-21423889D02*
X15460658Y-21385793D01*
X15460658Y-21385793D02*
X15460658Y-21338174D01*
X15460658Y-21338174D02*
X15470182Y-21300079D01*
X15470182Y-21300079D02*
X15479706Y-21281031D01*
X15479706Y-21281031D02*
X15489229Y-21271508D01*
X15489229Y-21271508D02*
X15508277Y-21261984D01*
X15651134Y-21261984D02*
X15651134Y-21300079D01*
X15727325Y-21261984D02*
X15727325Y-21300079D01*
X16022563Y-21538174D02*
X16013039Y-21528650D01*
X16013039Y-21528650D02*
X15993991Y-21500079D01*
X15993991Y-21500079D02*
X15984468Y-21481031D01*
X15984468Y-21481031D02*
X15974944Y-21452460D01*
X15974944Y-21452460D02*
X15965420Y-21404841D01*
X15965420Y-21404841D02*
X15965420Y-21366746D01*
X15965420Y-21366746D02*
X15974944Y-21319127D01*
X15974944Y-21319127D02*
X15984468Y-21290555D01*
X15984468Y-21290555D02*
X15993991Y-21271508D01*
X15993991Y-21271508D02*
X16013039Y-21242936D01*
X16013039Y-21242936D02*
X16022563Y-21233412D01*
X16184468Y-21328650D02*
X16184468Y-21461984D01*
X16136848Y-21252460D02*
X16089229Y-21395317D01*
X16089229Y-21395317D02*
X16213039Y-21395317D01*
X16441610Y-21461984D02*
X16441610Y-21261984D01*
X16527325Y-21461984D02*
X16527325Y-21357222D01*
X16527325Y-21357222D02*
X16517801Y-21338174D01*
X16517801Y-21338174D02*
X16498753Y-21328650D01*
X16498753Y-21328650D02*
X16470182Y-21328650D01*
X16470182Y-21328650D02*
X16451134Y-21338174D01*
X16451134Y-21338174D02*
X16441610Y-21347698D01*
X16651134Y-21461984D02*
X16632087Y-21452460D01*
X16632087Y-21452460D02*
X16622563Y-21442936D01*
X16622563Y-21442936D02*
X16613039Y-21423889D01*
X16613039Y-21423889D02*
X16613039Y-21366746D01*
X16613039Y-21366746D02*
X16622563Y-21347698D01*
X16622563Y-21347698D02*
X16632087Y-21338174D01*
X16632087Y-21338174D02*
X16651134Y-21328650D01*
X16651134Y-21328650D02*
X16679706Y-21328650D01*
X16679706Y-21328650D02*
X16698753Y-21338174D01*
X16698753Y-21338174D02*
X16708277Y-21347698D01*
X16708277Y-21347698D02*
X16717801Y-21366746D01*
X16717801Y-21366746D02*
X16717801Y-21423889D01*
X16717801Y-21423889D02*
X16708277Y-21442936D01*
X16708277Y-21442936D02*
X16698753Y-21452460D01*
X16698753Y-21452460D02*
X16679706Y-21461984D01*
X16679706Y-21461984D02*
X16651134Y-21461984D01*
X16832087Y-21461984D02*
X16813039Y-21452460D01*
X16813039Y-21452460D02*
X16803515Y-21433412D01*
X16803515Y-21433412D02*
X16803515Y-21261984D01*
X16984468Y-21452460D02*
X16965420Y-21461984D01*
X16965420Y-21461984D02*
X16927325Y-21461984D01*
X16927325Y-21461984D02*
X16908277Y-21452460D01*
X16908277Y-21452460D02*
X16898753Y-21433412D01*
X16898753Y-21433412D02*
X16898753Y-21357222D01*
X16898753Y-21357222D02*
X16908277Y-21338174D01*
X16908277Y-21338174D02*
X16927325Y-21328650D01*
X16927325Y-21328650D02*
X16965420Y-21328650D01*
X16965420Y-21328650D02*
X16984468Y-21338174D01*
X16984468Y-21338174D02*
X16993992Y-21357222D01*
X16993992Y-21357222D02*
X16993992Y-21376270D01*
X16993992Y-21376270D02*
X16898753Y-21395317D01*
X17070182Y-21452460D02*
X17089230Y-21461984D01*
X17089230Y-21461984D02*
X17127325Y-21461984D01*
X17127325Y-21461984D02*
X17146373Y-21452460D01*
X17146373Y-21452460D02*
X17155896Y-21433412D01*
X17155896Y-21433412D02*
X17155896Y-21423889D01*
X17155896Y-21423889D02*
X17146373Y-21404841D01*
X17146373Y-21404841D02*
X17127325Y-21395317D01*
X17127325Y-21395317D02*
X17098753Y-21395317D01*
X17098753Y-21395317D02*
X17079706Y-21385793D01*
X17079706Y-21385793D02*
X17070182Y-21366746D01*
X17070182Y-21366746D02*
X17070182Y-21357222D01*
X17070182Y-21357222D02*
X17079706Y-21338174D01*
X17079706Y-21338174D02*
X17098753Y-21328650D01*
X17098753Y-21328650D02*
X17127325Y-21328650D01*
X17127325Y-21328650D02*
X17146373Y-21338174D01*
X17222563Y-21538174D02*
X17232087Y-21528650D01*
X17232087Y-21528650D02*
X17251134Y-21500079D01*
X17251134Y-21500079D02*
X17260658Y-21481031D01*
X17260658Y-21481031D02*
X17270182Y-21452460D01*
X17270182Y-21452460D02*
X17279706Y-21404841D01*
X17279706Y-21404841D02*
X17279706Y-21366746D01*
X17279706Y-21366746D02*
X17270182Y-21319127D01*
X17270182Y-21319127D02*
X17260658Y-21290555D01*
X17260658Y-21290555D02*
X17251134Y-21271508D01*
X17251134Y-21271508D02*
X17232087Y-21242936D01*
X17232087Y-21242936D02*
X17222563Y-21233412D01*
M02*
