%TF.GenerationSoftware,KiCad,Pcbnew,8.0.4*%
%TF.CreationDate,2024-07-29T20:22:16+09:30*%
%TF.ProjectId,2024_LED_Breakout_Board,32303234-5f4c-4454-945f-427265616b6f,rev?*%
%TF.SameCoordinates,Original*%
%TF.FileFunction,Copper,L2,Bot*%
%TF.FilePolarity,Positive*%
%FSLAX46Y46*%
G04 Gerber Fmt 4.6, Leading zero omitted, Abs format (unit mm)*
G04 Created by KiCad (PCBNEW 8.0.4) date 2024-07-29 20:22:16*
%MOMM*%
%LPD*%
G01*
G04 APERTURE LIST*
%TA.AperFunction,ComponentPad*%
%ADD10C,0.800000*%
%TD*%
%TA.AperFunction,ComponentPad*%
%ADD11C,6.400000*%
%TD*%
%TA.AperFunction,SMDPad,CuDef*%
%ADD12R,1.270000X2.540000*%
%TD*%
%TA.AperFunction,ViaPad*%
%ADD13C,0.600000*%
%TD*%
%TA.AperFunction,Conductor*%
%ADD14C,0.200000*%
%TD*%
G04 APERTURE END LIST*
D10*
%TO.P,H3,1,1*%
%TO.N,GND*%
X191200000Y-70000000D03*
X191902944Y-68302944D03*
X191902944Y-71697056D03*
X193600000Y-67600000D03*
D11*
X193600000Y-70000000D03*
D10*
X193600000Y-72400000D03*
X195297056Y-68302944D03*
X195297056Y-71697056D03*
X196000000Y-70000000D03*
%TD*%
%TO.P,H2,1,1*%
%TO.N,GND*%
X128200000Y-196000000D03*
X128902944Y-194302944D03*
X128902944Y-197697056D03*
X130600000Y-193600000D03*
D11*
X130600000Y-196000000D03*
D10*
X130600000Y-198400000D03*
X132297056Y-194302944D03*
X132297056Y-197697056D03*
X133000000Y-196000000D03*
%TD*%
%TO.P,H4,1,1*%
%TO.N,GND*%
X191200000Y-196000000D03*
X191902944Y-194302944D03*
X191902944Y-197697056D03*
X193600000Y-193600000D03*
D11*
X193600000Y-196000000D03*
D10*
X193600000Y-198400000D03*
X195297056Y-194302944D03*
X195297056Y-197697056D03*
X196000000Y-196000000D03*
%TD*%
%TO.P,H1,1,1*%
%TO.N,GND*%
X128200000Y-70000000D03*
X128902944Y-68302944D03*
X128902944Y-71697056D03*
X130600000Y-67600000D03*
D11*
X130600000Y-70000000D03*
D10*
X130600000Y-72400000D03*
X132297056Y-68302944D03*
X132297056Y-71697056D03*
X133000000Y-70000000D03*
%TD*%
D12*
%TO.P,J2,1,Pin_1*%
%TO.N,+24V*%
X137200000Y-138700000D03*
%TO.P,J2,2,Pin_2*%
%TO.N,/AIR_POWER_24V*%
X140200000Y-138700000D03*
%TO.P,J2,3,Pin_3*%
%TO.N,/SAFETY_24V*%
X143200000Y-138700000D03*
%TO.P,J2,4,Pin_4*%
%TO.N,/MASTER_ACCUMULATOR_24V*%
X146200000Y-138700000D03*
%TO.P,J2,5,Pin_5*%
%TO.N,/SLAVE_ACCUMULATOR_24V*%
X149200000Y-138700000D03*
%TO.P,J2,6,Pin_6*%
%TO.N,/DASH_24V*%
X152200000Y-138700000D03*
%TO.P,J2,7,Pin_7*%
%TO.N,/ECU_24V*%
X155200000Y-138700000D03*
%TO.P,J2,8,Pin_8*%
%TO.N,/HIGH_VOLTAGE_BOX_24V*%
X158200000Y-138700000D03*
%TO.P,J2,9,Pin_9*%
%TO.N,/BREAK_LIGHT_12V*%
X137200000Y-129300000D03*
%TO.P,J2,10,Pin_10*%
%TO.N,/BSPD_12V*%
X140200000Y-129300000D03*
%TO.P,J2,11,Pin_11*%
%TO.N,/24V_RADIATOR_PUMP*%
X143200000Y-129300000D03*
%TO.P,J2,12,Pin_12*%
%TO.N,/24V_RADIATOR_FAN*%
X146200000Y-129300000D03*
%TO.P,J2,13,Pin_13*%
%TO.N,/12V_MOTOR_CONTROLLER*%
X149200000Y-129300000D03*
%TO.P,J2,14,Pin_14*%
%TO.N,GND*%
X152200000Y-129300000D03*
%TO.P,J2,15,Pin_15*%
X155200000Y-129300000D03*
%TO.P,J2,16,Pin_16*%
X158200000Y-129300000D03*
%TD*%
%TO.P,J1,1,Pin_1*%
%TO.N,/POWER_SIG_HIGH*%
X143950000Y-103700000D03*
%TO.P,J1,2,Pin_2*%
%TO.N,/BRAKE_SIG_AMP_HIGH*%
X146950000Y-103700000D03*
%TO.P,J1,3,Pin_3*%
%TO.N,/POWER_SIG_SHORT_HIGH*%
X149950000Y-103700000D03*
%TO.P,J1,4,Pin_4*%
%TO.N,/POWER_SIG_SHORT_GND*%
X152950000Y-103700000D03*
%TO.P,J1,5,Pin_5*%
%TO.N,/BRAKE_SIG_AMP_SHORT_HIGH*%
X155950000Y-103700000D03*
%TO.P,J1,6,Pin_6*%
%TO.N,/BRAKE_SIG_AMP_SHORT_GND*%
X143950000Y-94300000D03*
%TO.P,J1,7,Pin_7*%
%TO.N,/D_BSPD_TRIGGER*%
X146950000Y-94300000D03*
%TO.P,J1,8,Pin_8*%
%TO.N,/BRAKE_LIGHT_SIG*%
X149950000Y-94300000D03*
%TO.P,J1,9,Pin_9*%
%TO.N,GND*%
X152950000Y-94300000D03*
%TO.P,J1,10,Pin_10*%
X155950000Y-94300000D03*
%TD*%
%TO.P,J3,1,Pin_1*%
%TO.N,/DRIVER_OUTPUT*%
X137050000Y-174900000D03*
%TO.P,J3,2,Pin_2*%
%TO.N,/SHOULDER_OUT*%
X140050000Y-174900000D03*
%TO.P,J3,3,Pin_3*%
%TO.N,/HV_PDOC_LED*%
X143050000Y-174900000D03*
%TO.P,J3,4,Pin_4*%
%TO.N,/MA_PDOC_LED*%
X146050000Y-174900000D03*
%TO.P,J3,5,Pin_5*%
%TO.N,/SA_PDOC_LED*%
X149050000Y-174900000D03*
%TO.P,J3,6,Pin_6*%
%TO.N,/PDOC_LED*%
X152050000Y-174900000D03*
%TO.P,J3,7,Pin_7*%
%TO.N,/BSPD_LED*%
X155050000Y-174900000D03*
%TO.P,J3,8,Pin_8*%
%TO.N,/HV_IMD_LED*%
X158050000Y-174900000D03*
%TO.P,J3,9,Pin_9*%
%TO.N,/AMS_LED*%
X161050000Y-174900000D03*
%TO.P,J3,10,Pin_10*%
%TO.N,/FEATHER_OUT*%
X164050000Y-174900000D03*
%TO.P,J3,11,Pin_11*%
%TO.N,/MC_OK_INDICATOR*%
X167050000Y-174900000D03*
%TO.P,J3,12,Pin_12*%
%TO.N,/ECU_OK*%
X137050000Y-165500000D03*
%TO.P,J3,13,Pin_13*%
%TO.N,/CRASH_SENSOR_MONITOR*%
X140050000Y-165500000D03*
%TO.P,J3,14,Pin_14*%
%TO.N,/LEFT_ESTOP_OUT*%
X143050000Y-165500000D03*
%TO.P,J3,15,Pin_15*%
%TO.N,/DASH_ESTOP_OUT*%
X146050000Y-165500000D03*
%TO.P,J3,16,Pin_16*%
%TO.N,/BOTS_OUT*%
X149050000Y-165500000D03*
%TO.P,J3,17,Pin_17*%
%TO.N,/MASTER_ACC_HV_INT_OUT*%
X152050000Y-165500000D03*
%TO.P,J3,18,Pin_18*%
%TO.N,/SLAVE_ACC_HV_INT_OUT*%
X155050000Y-165500000D03*
%TO.P,J3,19,Pin_19*%
%TO.N,/SAFTEY_OUT*%
X158050000Y-165500000D03*
%TO.P,J3,20,Pin_20*%
%TO.N,/AIR_POWER*%
X161050000Y-165500000D03*
%TO.P,J3,21,Pin_21*%
%TO.N,GND*%
X164050000Y-165500000D03*
%TO.P,J3,22,Pin_22*%
X167050000Y-165500000D03*
%TD*%
D13*
%TO.N,/BRAKE_SIG_AMP_SHORT_HIGH*%
X153000000Y-101500000D03*
%TO.N,GND*%
X161500000Y-181600000D03*
X149500000Y-181500000D03*
X165000000Y-88000000D03*
X148000000Y-155000000D03*
X151500000Y-88000000D03*
X156000000Y-122500000D03*
X181000000Y-122500000D03*
X172000000Y-155000000D03*
X160500000Y-88000000D03*
X131500000Y-181500000D03*
X179500000Y-181500000D03*
X137500000Y-181500000D03*
X191363600Y-181660800D03*
X167500000Y-181500000D03*
X160000000Y-155000000D03*
X186000000Y-122500000D03*
X166000000Y-122500000D03*
X131000000Y-122500000D03*
X173500000Y-181500000D03*
X155500000Y-181500000D03*
X176000000Y-122500000D03*
X161000000Y-122500000D03*
X141000000Y-122500000D03*
X156000000Y-88000000D03*
X143500000Y-181500000D03*
X138000000Y-88000000D03*
X136000000Y-155000000D03*
X166000000Y-155000000D03*
X146000000Y-122500000D03*
X154000000Y-155000000D03*
X185500000Y-181500000D03*
X130000000Y-155000000D03*
X151000000Y-122500000D03*
X171000000Y-122500000D03*
X142500000Y-88000000D03*
X136000000Y-122500000D03*
X142000000Y-155000000D03*
X178000000Y-155000000D03*
X147000000Y-88000000D03*
X133500000Y-88000000D03*
%TO.N,/BRAKE_SIG_AMP_SHORT_GND*%
X155575000Y-98000000D03*
%TO.N,/BRAKE_SIG_AMP_HIGH*%
X139393750Y-101368750D03*
%TO.N,/POWER_SIG_SHORT_GND*%
X148500000Y-101500000D03*
%TO.N,/POWER_SIG_HIGH*%
X134000000Y-101500000D03*
%TO.N,/D_BSPD_TRIGGER*%
X159999086Y-97559493D03*
%TO.N,/POWER_SIG_SHORT_HIGH*%
X144575000Y-101400000D03*
%TO.N,/BRAKE_LIGHT_SIG*%
X164500000Y-96995409D03*
%TO.N,/BSPD_12V*%
X170500000Y-132000000D03*
%TO.N,/ECU_24V*%
X155200000Y-135500000D03*
%TO.N,/12V_MOTOR_CONTROLLER*%
X185100000Y-128000000D03*
%TO.N,/BREAK_LIGHT_12V*%
X165500000Y-132500000D03*
%TO.N,/AIR_POWER_24V*%
X131575000Y-135575000D03*
%TO.N,/24V_RADIATOR_FAN*%
X180500000Y-130900000D03*
%TO.N,/MASTER_ACCUMULATOR_24V*%
X142850000Y-135250000D03*
%TO.N,/SLAVE_ACCUMULATOR_24V*%
X146575000Y-135475000D03*
%TO.N,/DASH_24V*%
X151600000Y-135500000D03*
%TO.N,/24V_RADIATOR_PUMP*%
X175250000Y-131500000D03*
%TO.N,/SAFETY_24V*%
X139500000Y-135500000D03*
%TO.N,/HIGH_VOLTAGE_BOX_24V*%
X163100000Y-135500000D03*
%TO.N,/MC_OK_INDICATOR*%
X189575000Y-181000000D03*
%TO.N,/MA_PDOC_LED*%
X147075000Y-181000000D03*
%TO.N,/LEFT_ESTOP_OUT*%
X142600000Y-163500000D03*
%TO.N,/BSPD_LED*%
X163500000Y-181000000D03*
%TO.N,/AIR_POWER*%
X177000000Y-163500000D03*
%TO.N,/HV_PDOC_LED*%
X141075000Y-181000000D03*
%TO.N,/SHOULDER_OUT*%
X135075000Y-181000000D03*
%TO.N,/SA_PDOC_LED*%
X153075000Y-181000000D03*
%TO.N,/SLAVE_ACC_HV_INT_OUT*%
X160100000Y-163500000D03*
%TO.N,/BOTS_OUT*%
X150500000Y-163500000D03*
%TO.N,/PDOC_LED*%
X158075000Y-180925000D03*
%TO.N,/ECU_OK*%
X131562500Y-164937500D03*
%TO.N,/HV_IMD_LED*%
X171075000Y-181000000D03*
%TO.N,/CRASH_SENSOR_MONITOR*%
X137500000Y-163550000D03*
%TO.N,/FEATHER_OUT*%
X183575000Y-181000000D03*
%TO.N,/MASTER_ACC_HV_INT_OUT*%
X155000000Y-163500000D03*
%TO.N,/DRIVER_OUTPUT*%
X130075000Y-181000000D03*
%TO.N,/AMS_LED*%
X177075000Y-181000000D03*
%TO.N,/SAFTEY_OUT*%
X170180000Y-166979600D03*
%TO.N,/DASH_ESTOP_OUT*%
X146500000Y-163500000D03*
%TD*%
D14*
%TO.N,/BRAKE_SIG_AMP_SHORT_HIGH*%
X153000000Y-101500000D02*
X153750000Y-101500000D01*
X153750000Y-101500000D02*
X155950000Y-103700000D01*
%TO.N,/BRAKE_SIG_AMP_SHORT_GND*%
X147650000Y-98000000D02*
X155575000Y-98000000D01*
X143950000Y-94300000D02*
X147650000Y-98000000D01*
%TO.N,/BRAKE_SIG_AMP_HIGH*%
X146075000Y-102000000D02*
X146950000Y-102875000D01*
X140025000Y-102000000D02*
X146075000Y-102000000D01*
X139393750Y-101368750D02*
X140025000Y-102000000D01*
X146950000Y-102875000D02*
X146950000Y-103700000D01*
%TO.N,/POWER_SIG_SHORT_GND*%
X148500000Y-101500000D02*
X150750000Y-101500000D01*
X150750000Y-101500000D02*
X152950000Y-103700000D01*
%TO.N,/POWER_SIG_HIGH*%
X134075000Y-101500000D02*
X137075000Y-104500000D01*
X134000000Y-101500000D02*
X134075000Y-101500000D01*
X137075000Y-104500000D02*
X143150000Y-104500000D01*
X143150000Y-104500000D02*
X143950000Y-103700000D01*
%TO.N,/D_BSPD_TRIGGER*%
X149988242Y-97338242D02*
X146950000Y-94300000D01*
X157445000Y-97445000D02*
X157338242Y-97338242D01*
X157338242Y-97338242D02*
X149988242Y-97338242D01*
X159999086Y-97559493D02*
X159884593Y-97445000D01*
X159884593Y-97445000D02*
X157445000Y-97445000D01*
%TO.N,/POWER_SIG_SHORT_HIGH*%
X149362500Y-103700000D02*
X149950000Y-103700000D01*
X147062500Y-101400000D02*
X149362500Y-103700000D01*
X144575000Y-101400000D02*
X147062500Y-101400000D01*
%TO.N,/BRAKE_LIGHT_SIG*%
X152550000Y-96900000D02*
X149950000Y-94300000D01*
X164404591Y-96900000D02*
X152550000Y-96900000D01*
X164500000Y-96995409D02*
X164404591Y-96900000D01*
%TO.N,/BSPD_12V*%
X142800000Y-131900000D02*
X140200000Y-129300000D01*
X170400000Y-131900000D02*
X142800000Y-131900000D01*
X170500000Y-132000000D02*
X170400000Y-131900000D01*
%TO.N,/ECU_24V*%
X155200000Y-135500000D02*
X155200000Y-138700000D01*
%TO.N,/12V_MOTOR_CONTROLLER*%
X184830000Y-127730000D02*
X150770000Y-127730000D01*
X185100000Y-128000000D02*
X184830000Y-127730000D01*
X150770000Y-127730000D02*
X149200000Y-129300000D01*
%TO.N,/BREAK_LIGHT_12V*%
X140345000Y-132445000D02*
X137200000Y-129300000D01*
X165445000Y-132445000D02*
X140345000Y-132445000D01*
X165500000Y-132500000D02*
X165445000Y-132445000D01*
%TO.N,/AIR_POWER_24V*%
X133100000Y-137100000D02*
X133100000Y-137105000D01*
X136265000Y-140270000D02*
X138630000Y-140270000D01*
X133100000Y-137105000D02*
X136265000Y-140270000D01*
X131575000Y-135575000D02*
X133100000Y-137100000D01*
X138630000Y-140270000D02*
X140200000Y-138700000D01*
%TO.N,/24V_RADIATOR_FAN*%
X147800000Y-130900000D02*
X146200000Y-129300000D01*
X180500000Y-130900000D02*
X147800000Y-130900000D01*
%TO.N,/MASTER_ACCUMULATOR_24V*%
X142850000Y-135250000D02*
X146200000Y-138600000D01*
%TO.N,/SLAVE_ACCUMULATOR_24V*%
X146575000Y-135475000D02*
X149200000Y-138100000D01*
%TO.N,/DASH_24V*%
X152200000Y-136100000D02*
X151600000Y-135500000D01*
X152200000Y-138700000D02*
X152200000Y-136100000D01*
%TO.N,/24V_RADIATOR_PUMP*%
X175150000Y-131400000D02*
X145300000Y-131400000D01*
X175250000Y-131500000D02*
X175150000Y-131400000D01*
X145300000Y-131400000D02*
X143200000Y-129300000D01*
%TO.N,/SAFETY_24V*%
X140000000Y-135500000D02*
X139500000Y-135500000D01*
X143200000Y-138700000D02*
X140000000Y-135500000D01*
%TO.N,/HIGH_VOLTAGE_BOX_24V*%
X159900000Y-138700000D02*
X163100000Y-135500000D01*
X158200000Y-138700000D02*
X159900000Y-138700000D01*
%TO.N,/MC_OK_INDICATOR*%
X183475000Y-174900000D02*
X189575000Y-181000000D01*
X167050000Y-174900000D02*
X183475000Y-174900000D01*
%TO.N,/MA_PDOC_LED*%
X146050000Y-174900000D02*
X146050000Y-179975000D01*
X146050000Y-179975000D02*
X147075000Y-181000000D01*
%TO.N,/LEFT_ESTOP_OUT*%
X143050000Y-163950000D02*
X142600000Y-163500000D01*
X143050000Y-165500000D02*
X143050000Y-163950000D01*
%TO.N,/BSPD_LED*%
X161150000Y-181000000D02*
X155050000Y-174900000D01*
X163500000Y-181000000D02*
X161150000Y-181000000D01*
%TO.N,/AIR_POWER*%
X163050000Y-163500000D02*
X161050000Y-165500000D01*
X177000000Y-163500000D02*
X163050000Y-163500000D01*
%TO.N,/HV_PDOC_LED*%
X143050000Y-179025000D02*
X141075000Y-181000000D01*
X143050000Y-174900000D02*
X143050000Y-179025000D01*
%TO.N,/SHOULDER_OUT*%
X140050000Y-174900000D02*
X140050000Y-176025000D01*
X140050000Y-176025000D02*
X135075000Y-181000000D01*
%TO.N,/SA_PDOC_LED*%
X149050000Y-174900000D02*
X149050000Y-176975000D01*
X149050000Y-176975000D02*
X153075000Y-181000000D01*
%TO.N,/SLAVE_ACC_HV_INT_OUT*%
X155050000Y-165500000D02*
X157050000Y-163500000D01*
X157050000Y-163500000D02*
X160100000Y-163500000D01*
%TO.N,/BOTS_OUT*%
X150500000Y-163500000D02*
X149050000Y-164950000D01*
X149050000Y-164950000D02*
X149050000Y-165500000D01*
%TO.N,/PDOC_LED*%
X158075000Y-180925000D02*
X152050000Y-174900000D01*
%TO.N,/ECU_OK*%
X131562500Y-164937500D02*
X132125000Y-165500000D01*
X132125000Y-165500000D02*
X137050000Y-165500000D01*
%TO.N,/HV_IMD_LED*%
X158050000Y-174900000D02*
X158050000Y-176475000D01*
X170075000Y-180000000D02*
X171075000Y-181000000D01*
X158050000Y-176475000D02*
X161575000Y-180000000D01*
X161575000Y-180000000D02*
X170075000Y-180000000D01*
%TO.N,/CRASH_SENSOR_MONITOR*%
X137500000Y-163550000D02*
X138100000Y-163550000D01*
X138100000Y-163550000D02*
X140050000Y-165500000D01*
%TO.N,/FEATHER_OUT*%
X181775000Y-179200000D02*
X183575000Y-181000000D01*
X168350000Y-179200000D02*
X181775000Y-179200000D01*
X164050000Y-174900000D02*
X168350000Y-179200000D01*
%TO.N,/MASTER_ACC_HV_INT_OUT*%
X154050000Y-163500000D02*
X152050000Y-165500000D01*
X155000000Y-163500000D02*
X154050000Y-163500000D01*
%TO.N,/DRIVER_OUTPUT*%
X137050000Y-174900000D02*
X136175000Y-174900000D01*
X136175000Y-174900000D02*
X130075000Y-181000000D01*
%TO.N,/AMS_LED*%
X175675000Y-179600000D02*
X177075000Y-181000000D01*
X161050000Y-174900000D02*
X165750000Y-179600000D01*
X165750000Y-179600000D02*
X175675000Y-179600000D01*
%TO.N,/SAFTEY_OUT*%
X170180000Y-166979600D02*
X170089600Y-167070000D01*
X159620000Y-167070000D02*
X158050000Y-165500000D01*
X170089600Y-167070000D02*
X159620000Y-167070000D01*
%TO.N,/DASH_ESTOP_OUT*%
X146050000Y-163950000D02*
X146050000Y-165500000D01*
X146500000Y-163500000D02*
X146050000Y-163950000D01*
%TD*%
%TA.AperFunction,Conductor*%
%TO.N,GND*%
G36*
X193502562Y-64500605D02*
G01*
X193949036Y-64519072D01*
X193959209Y-64519915D01*
X194400114Y-64574873D01*
X194410194Y-64576555D01*
X194845042Y-64667733D01*
X194854950Y-64670242D01*
X195280786Y-64797019D01*
X195290454Y-64800338D01*
X195631430Y-64933388D01*
X195704339Y-64961838D01*
X195713724Y-64965954D01*
X196112869Y-65161083D01*
X196121877Y-65165958D01*
X196503544Y-65393383D01*
X196512123Y-65398989D01*
X196873693Y-65657144D01*
X196881775Y-65663435D01*
X197220796Y-65950571D01*
X197228336Y-65957512D01*
X197542487Y-66271663D01*
X197549428Y-66279203D01*
X197836564Y-66618224D01*
X197842859Y-66626312D01*
X198101010Y-66987876D01*
X198106616Y-66996455D01*
X198334041Y-67378122D01*
X198338919Y-67387136D01*
X198534045Y-67786275D01*
X198538161Y-67795660D01*
X198699656Y-68209533D01*
X198702984Y-68219226D01*
X198829753Y-68645036D01*
X198832269Y-68654971D01*
X198923441Y-69089791D01*
X198925128Y-69099900D01*
X198980082Y-69540769D01*
X198980928Y-69550983D01*
X198999394Y-69997437D01*
X198999500Y-70002561D01*
X198999500Y-195997438D01*
X198999394Y-196002562D01*
X198980928Y-196449016D01*
X198980082Y-196459230D01*
X198925128Y-196900099D01*
X198923441Y-196910208D01*
X198832269Y-197345028D01*
X198829753Y-197354963D01*
X198702984Y-197780773D01*
X198699656Y-197790466D01*
X198538161Y-198204339D01*
X198534045Y-198213724D01*
X198338919Y-198612863D01*
X198334041Y-198621877D01*
X198106616Y-199003544D01*
X198101010Y-199012123D01*
X197842859Y-199373687D01*
X197836564Y-199381775D01*
X197549428Y-199720796D01*
X197542487Y-199728336D01*
X197228336Y-200042487D01*
X197220796Y-200049428D01*
X196881775Y-200336564D01*
X196873687Y-200342859D01*
X196512123Y-200601010D01*
X196503544Y-200606616D01*
X196121877Y-200834041D01*
X196112863Y-200838919D01*
X195713724Y-201034045D01*
X195704339Y-201038161D01*
X195290466Y-201199656D01*
X195280773Y-201202984D01*
X194854963Y-201329753D01*
X194845028Y-201332269D01*
X194410208Y-201423441D01*
X194400099Y-201425128D01*
X193959230Y-201480082D01*
X193949016Y-201480928D01*
X193502563Y-201499394D01*
X193497439Y-201499500D01*
X130502561Y-201499500D01*
X130497437Y-201499394D01*
X130050983Y-201480928D01*
X130040769Y-201480082D01*
X129599900Y-201425128D01*
X129589791Y-201423441D01*
X129154971Y-201332269D01*
X129145036Y-201329753D01*
X128719226Y-201202984D01*
X128709533Y-201199656D01*
X128295660Y-201038161D01*
X128286275Y-201034045D01*
X127887136Y-200838919D01*
X127878122Y-200834041D01*
X127496455Y-200606616D01*
X127487876Y-200601010D01*
X127126312Y-200342859D01*
X127118224Y-200336564D01*
X126779203Y-200049428D01*
X126771663Y-200042487D01*
X126457512Y-199728336D01*
X126450571Y-199720796D01*
X126163435Y-199381775D01*
X126157140Y-199373687D01*
X125898989Y-199012123D01*
X125893383Y-199003544D01*
X125665958Y-198621877D01*
X125661080Y-198612863D01*
X125465954Y-198213724D01*
X125461838Y-198204339D01*
X125324566Y-197852543D01*
X125300338Y-197790454D01*
X125297019Y-197780786D01*
X125170242Y-197354950D01*
X125167733Y-197345042D01*
X125076555Y-196910194D01*
X125074873Y-196900114D01*
X125019915Y-196459209D01*
X125019072Y-196449036D01*
X125000606Y-196002562D01*
X125000553Y-195999999D01*
X126894922Y-195999999D01*
X126894922Y-196000000D01*
X126915219Y-196387287D01*
X126975886Y-196770323D01*
X126975887Y-196770330D01*
X127076262Y-197144936D01*
X127215244Y-197506994D01*
X127391310Y-197852543D01*
X127602531Y-198177793D01*
X127811095Y-198435350D01*
X127811096Y-198435350D01*
X129305748Y-196940698D01*
X129379588Y-197042330D01*
X129557670Y-197220412D01*
X129659300Y-197294251D01*
X128164648Y-198788903D01*
X128164649Y-198788904D01*
X128422206Y-198997468D01*
X128747456Y-199208689D01*
X129093005Y-199384755D01*
X129455063Y-199523737D01*
X129829669Y-199624112D01*
X129829676Y-199624113D01*
X130212712Y-199684780D01*
X130599999Y-199705078D01*
X130600001Y-199705078D01*
X130987287Y-199684780D01*
X131370323Y-199624113D01*
X131370330Y-199624112D01*
X131744936Y-199523737D01*
X132106994Y-199384755D01*
X132452543Y-199208689D01*
X132777783Y-198997476D01*
X132777785Y-198997475D01*
X133035349Y-198788902D01*
X131540698Y-197294251D01*
X131642330Y-197220412D01*
X131820412Y-197042330D01*
X131894251Y-196940698D01*
X133388902Y-198435349D01*
X133597475Y-198177785D01*
X133597476Y-198177783D01*
X133808689Y-197852543D01*
X133984755Y-197506994D01*
X134123737Y-197144936D01*
X134224112Y-196770330D01*
X134224113Y-196770323D01*
X134284780Y-196387287D01*
X134305078Y-196000000D01*
X134305078Y-195999999D01*
X189894922Y-195999999D01*
X189894922Y-196000000D01*
X189915219Y-196387287D01*
X189975886Y-196770323D01*
X189975887Y-196770330D01*
X190076262Y-197144936D01*
X190215244Y-197506994D01*
X190391310Y-197852543D01*
X190602531Y-198177793D01*
X190811095Y-198435350D01*
X190811096Y-198435350D01*
X192305748Y-196940698D01*
X192379588Y-197042330D01*
X192557670Y-197220412D01*
X192659300Y-197294251D01*
X191164648Y-198788903D01*
X191164649Y-198788904D01*
X191422206Y-198997468D01*
X191747456Y-199208689D01*
X192093005Y-199384755D01*
X192455063Y-199523737D01*
X192829669Y-199624112D01*
X192829676Y-199624113D01*
X193212712Y-199684780D01*
X193599999Y-199705078D01*
X193600001Y-199705078D01*
X193987287Y-199684780D01*
X194370323Y-199624113D01*
X194370330Y-199624112D01*
X194744936Y-199523737D01*
X195106994Y-199384755D01*
X195452543Y-199208689D01*
X195777783Y-198997476D01*
X195777785Y-198997475D01*
X196035349Y-198788902D01*
X194540698Y-197294251D01*
X194642330Y-197220412D01*
X194820412Y-197042330D01*
X194894251Y-196940698D01*
X196388902Y-198435349D01*
X196597475Y-198177785D01*
X196597476Y-198177783D01*
X196808689Y-197852543D01*
X196984755Y-197506994D01*
X197123737Y-197144936D01*
X197224112Y-196770330D01*
X197224113Y-196770323D01*
X197284780Y-196387287D01*
X197305078Y-196000000D01*
X197305078Y-195999999D01*
X197284780Y-195612712D01*
X197224113Y-195229676D01*
X197224112Y-195229669D01*
X197123737Y-194855063D01*
X196984755Y-194493005D01*
X196808689Y-194147456D01*
X196597468Y-193822206D01*
X196388904Y-193564649D01*
X196388903Y-193564648D01*
X194894251Y-195059300D01*
X194820412Y-194957670D01*
X194642330Y-194779588D01*
X194540698Y-194705748D01*
X196035350Y-193211096D01*
X196035350Y-193211095D01*
X195777793Y-193002531D01*
X195452543Y-192791310D01*
X195106994Y-192615244D01*
X194744936Y-192476262D01*
X194370330Y-192375887D01*
X194370323Y-192375886D01*
X193987287Y-192315219D01*
X193600001Y-192294922D01*
X193599999Y-192294922D01*
X193212712Y-192315219D01*
X192829676Y-192375886D01*
X192829669Y-192375887D01*
X192455063Y-192476262D01*
X192093005Y-192615244D01*
X191747456Y-192791310D01*
X191422206Y-193002531D01*
X191164648Y-193211095D01*
X191164648Y-193211096D01*
X192659301Y-194705748D01*
X192557670Y-194779588D01*
X192379588Y-194957670D01*
X192305748Y-195059300D01*
X190811096Y-193564648D01*
X190811095Y-193564648D01*
X190602531Y-193822206D01*
X190391310Y-194147456D01*
X190215244Y-194493005D01*
X190076262Y-194855063D01*
X189975887Y-195229669D01*
X189975886Y-195229676D01*
X189915219Y-195612712D01*
X189894922Y-195999999D01*
X134305078Y-195999999D01*
X134284780Y-195612712D01*
X134224113Y-195229676D01*
X134224112Y-195229669D01*
X134123737Y-194855063D01*
X133984755Y-194493005D01*
X133808689Y-194147456D01*
X133597468Y-193822206D01*
X133388904Y-193564649D01*
X133388903Y-193564648D01*
X131894251Y-195059300D01*
X131820412Y-194957670D01*
X131642330Y-194779588D01*
X131540698Y-194705748D01*
X133035350Y-193211096D01*
X133035350Y-193211095D01*
X132777793Y-193002531D01*
X132452543Y-192791310D01*
X132106994Y-192615244D01*
X131744936Y-192476262D01*
X131370330Y-192375887D01*
X131370323Y-192375886D01*
X130987287Y-192315219D01*
X130600001Y-192294922D01*
X130599999Y-192294922D01*
X130212712Y-192315219D01*
X129829676Y-192375886D01*
X129829669Y-192375887D01*
X129455063Y-192476262D01*
X129093005Y-192615244D01*
X128747456Y-192791310D01*
X128422206Y-193002531D01*
X128164648Y-193211095D01*
X128164648Y-193211096D01*
X129659301Y-194705748D01*
X129557670Y-194779588D01*
X129379588Y-194957670D01*
X129305748Y-195059300D01*
X127811096Y-193564648D01*
X127811095Y-193564648D01*
X127602531Y-193822206D01*
X127391310Y-194147456D01*
X127215244Y-194493005D01*
X127076262Y-194855063D01*
X126975887Y-195229669D01*
X126975886Y-195229676D01*
X126915219Y-195612712D01*
X126894922Y-195999999D01*
X125000553Y-195999999D01*
X125000500Y-195997438D01*
X125000500Y-180999996D01*
X129269435Y-180999996D01*
X129269435Y-181000003D01*
X129289630Y-181179249D01*
X129289631Y-181179254D01*
X129349211Y-181349523D01*
X129431525Y-181480524D01*
X129445184Y-181502262D01*
X129572738Y-181629816D01*
X129663080Y-181686582D01*
X129700935Y-181710368D01*
X129725478Y-181725789D01*
X129895745Y-181785368D01*
X129895750Y-181785369D01*
X130074996Y-181805565D01*
X130075000Y-181805565D01*
X130075004Y-181805565D01*
X130254249Y-181785369D01*
X130254252Y-181785368D01*
X130254255Y-181785368D01*
X130424522Y-181725789D01*
X130577262Y-181629816D01*
X130704816Y-181502262D01*
X130800789Y-181349522D01*
X130860368Y-181179255D01*
X130870161Y-181092329D01*
X130897226Y-181027918D01*
X130905690Y-181018543D01*
X130924237Y-180999996D01*
X134269435Y-180999996D01*
X134269435Y-181000003D01*
X134289630Y-181179249D01*
X134289631Y-181179254D01*
X134349211Y-181349523D01*
X134431525Y-181480524D01*
X134445184Y-181502262D01*
X134572738Y-181629816D01*
X134663080Y-181686582D01*
X134700935Y-181710368D01*
X134725478Y-181725789D01*
X134895745Y-181785368D01*
X134895750Y-181785369D01*
X135074996Y-181805565D01*
X135075000Y-181805565D01*
X135075004Y-181805565D01*
X135254249Y-181785369D01*
X135254252Y-181785368D01*
X135254255Y-181785368D01*
X135424522Y-181725789D01*
X135577262Y-181629816D01*
X135704816Y-181502262D01*
X135800789Y-181349522D01*
X135860368Y-181179255D01*
X135870161Y-181092329D01*
X135897226Y-181027918D01*
X135905690Y-181018543D01*
X135924237Y-180999996D01*
X140269435Y-180999996D01*
X140269435Y-181000003D01*
X140289630Y-181179249D01*
X140289631Y-181179254D01*
X140349211Y-181349523D01*
X140431525Y-181480524D01*
X140445184Y-181502262D01*
X140572738Y-181629816D01*
X140663080Y-181686582D01*
X140700935Y-181710368D01*
X140725478Y-181725789D01*
X140895745Y-181785368D01*
X140895750Y-181785369D01*
X141074996Y-181805565D01*
X141075000Y-181805565D01*
X141075004Y-181805565D01*
X141254249Y-181785369D01*
X141254252Y-181785368D01*
X141254255Y-181785368D01*
X141424522Y-181725789D01*
X141577262Y-181629816D01*
X141704816Y-181502262D01*
X141800789Y-181349522D01*
X141860368Y-181179255D01*
X141870161Y-181092329D01*
X141897226Y-181027918D01*
X141905690Y-181018543D01*
X143530520Y-179393716D01*
X143609577Y-179256785D01*
X143650501Y-179104057D01*
X143650501Y-178945942D01*
X143650501Y-178938347D01*
X143650500Y-178938329D01*
X143650500Y-176790738D01*
X143670185Y-176723699D01*
X143722989Y-176677944D01*
X143761247Y-176667448D01*
X143792483Y-176664091D01*
X143927331Y-176613796D01*
X144042546Y-176527546D01*
X144128796Y-176412331D01*
X144179091Y-176277483D01*
X144185500Y-176217873D01*
X144185499Y-173582135D01*
X144914500Y-173582135D01*
X144914500Y-176217870D01*
X144914501Y-176217876D01*
X144920908Y-176277483D01*
X144971202Y-176412328D01*
X144971206Y-176412335D01*
X145057452Y-176527544D01*
X145057455Y-176527547D01*
X145172664Y-176613793D01*
X145172671Y-176613797D01*
X145307517Y-176664091D01*
X145307515Y-176664091D01*
X145338756Y-176667450D01*
X145403307Y-176694188D01*
X145443155Y-176751581D01*
X145449500Y-176790739D01*
X145449500Y-179888330D01*
X145449499Y-179888348D01*
X145449499Y-180054054D01*
X145449498Y-180054054D01*
X145449499Y-180054057D01*
X145490423Y-180206785D01*
X145490424Y-180206786D01*
X145504856Y-180231785D01*
X145504857Y-180231786D01*
X145569475Y-180343709D01*
X145569481Y-180343717D01*
X145688349Y-180462585D01*
X145688355Y-180462590D01*
X146244298Y-181018533D01*
X146277783Y-181079856D01*
X146279837Y-181092330D01*
X146289630Y-181179249D01*
X146349210Y-181349521D01*
X146398058Y-181427262D01*
X146445184Y-181502262D01*
X146572738Y-181629816D01*
X146663080Y-181686582D01*
X146700935Y-181710368D01*
X146725478Y-181725789D01*
X146895745Y-181785368D01*
X146895750Y-181785369D01*
X147074996Y-181805565D01*
X147075000Y-181805565D01*
X147075004Y-181805565D01*
X147254249Y-181785369D01*
X147254252Y-181785368D01*
X147254255Y-181785368D01*
X147424522Y-181725789D01*
X147577262Y-181629816D01*
X147704816Y-181502262D01*
X147800789Y-181349522D01*
X147860368Y-181179255D01*
X147860369Y-181179249D01*
X147880565Y-181000003D01*
X147880565Y-180999996D01*
X147860369Y-180820750D01*
X147860368Y-180820745D01*
X147800788Y-180650476D01*
X147704815Y-180497737D01*
X147577262Y-180370184D01*
X147424521Y-180274210D01*
X147276849Y-180222538D01*
X147254255Y-180214632D01*
X147254254Y-180214631D01*
X147254249Y-180214630D01*
X147167330Y-180204837D01*
X147102916Y-180177770D01*
X147093533Y-180169298D01*
X146686819Y-179762584D01*
X146653334Y-179701261D01*
X146650500Y-179674903D01*
X146650500Y-176790738D01*
X146670185Y-176723699D01*
X146722989Y-176677944D01*
X146761247Y-176667448D01*
X146792483Y-176664091D01*
X146927331Y-176613796D01*
X147042546Y-176527546D01*
X147128796Y-176412331D01*
X147179091Y-176277483D01*
X147185500Y-176217873D01*
X147185499Y-173582135D01*
X147914500Y-173582135D01*
X147914500Y-176217870D01*
X147914501Y-176217876D01*
X147920908Y-176277483D01*
X147971202Y-176412328D01*
X147971206Y-176412335D01*
X148057452Y-176527544D01*
X148057455Y-176527547D01*
X148172664Y-176613793D01*
X148172671Y-176613797D01*
X148307517Y-176664091D01*
X148307515Y-176664091D01*
X148338756Y-176667450D01*
X148403307Y-176694188D01*
X148443155Y-176751581D01*
X148449500Y-176790739D01*
X148449500Y-176888330D01*
X148449499Y-176888348D01*
X148449499Y-177054054D01*
X148449498Y-177054054D01*
X148490423Y-177206785D01*
X148519358Y-177256900D01*
X148519359Y-177256904D01*
X148519360Y-177256904D01*
X148569479Y-177343714D01*
X148569481Y-177343717D01*
X148688349Y-177462585D01*
X148688355Y-177462590D01*
X152244298Y-181018534D01*
X152277783Y-181079857D01*
X152279837Y-181092331D01*
X152289630Y-181179249D01*
X152349210Y-181349521D01*
X152398058Y-181427262D01*
X152445184Y-181502262D01*
X152572738Y-181629816D01*
X152663080Y-181686582D01*
X152700935Y-181710368D01*
X152725478Y-181725789D01*
X152895745Y-181785368D01*
X152895750Y-181785369D01*
X153074996Y-181805565D01*
X153075000Y-181805565D01*
X153075004Y-181805565D01*
X153254249Y-181785369D01*
X153254252Y-181785368D01*
X153254255Y-181785368D01*
X153424522Y-181725789D01*
X153577262Y-181629816D01*
X153704816Y-181502262D01*
X153800789Y-181349522D01*
X153860368Y-181179255D01*
X153860369Y-181179249D01*
X153880565Y-181000003D01*
X153880565Y-180999996D01*
X153860369Y-180820750D01*
X153860368Y-180820745D01*
X153800788Y-180650476D01*
X153704815Y-180497737D01*
X153577262Y-180370184D01*
X153424521Y-180274210D01*
X153276849Y-180222538D01*
X153254255Y-180214632D01*
X153254254Y-180214631D01*
X153254249Y-180214630D01*
X153167331Y-180204837D01*
X153102917Y-180177770D01*
X153093534Y-180169298D01*
X149780222Y-176855986D01*
X149746737Y-176794663D01*
X149751721Y-176724971D01*
X149793593Y-176669038D01*
X149824571Y-176652123D01*
X149927326Y-176613798D01*
X149927326Y-176613797D01*
X149927331Y-176613796D01*
X150042546Y-176527546D01*
X150128796Y-176412331D01*
X150179091Y-176277483D01*
X150185500Y-176217873D01*
X150185499Y-173582135D01*
X150914500Y-173582135D01*
X150914500Y-176217870D01*
X150914501Y-176217876D01*
X150920908Y-176277483D01*
X150971202Y-176412328D01*
X150971206Y-176412335D01*
X151057452Y-176527544D01*
X151057455Y-176527547D01*
X151172664Y-176613793D01*
X151172671Y-176613797D01*
X151307517Y-176664091D01*
X151307516Y-176664091D01*
X151314444Y-176664835D01*
X151367127Y-176670500D01*
X152732872Y-176670499D01*
X152792483Y-176664091D01*
X152843362Y-176645113D01*
X152913054Y-176640129D01*
X152974375Y-176673611D01*
X152974378Y-176673614D01*
X157244298Y-180943534D01*
X157277783Y-181004857D01*
X157279837Y-181017331D01*
X157289630Y-181104249D01*
X157349210Y-181274521D01*
X157396337Y-181349523D01*
X157445184Y-181427262D01*
X157572738Y-181554816D01*
X157645444Y-181600500D01*
X157692096Y-181629814D01*
X157725478Y-181650789D01*
X157895745Y-181710368D01*
X157895750Y-181710369D01*
X158074996Y-181730565D01*
X158075000Y-181730565D01*
X158075004Y-181730565D01*
X158254249Y-181710369D01*
X158254252Y-181710368D01*
X158254255Y-181710368D01*
X158424522Y-181650789D01*
X158577262Y-181554816D01*
X158704816Y-181427262D01*
X158800789Y-181274522D01*
X158860368Y-181104255D01*
X158860369Y-181104249D01*
X158880565Y-180925003D01*
X158880565Y-180924996D01*
X158860369Y-180745750D01*
X158860368Y-180745745D01*
X158842848Y-180695676D01*
X158800789Y-180575478D01*
X158704816Y-180422738D01*
X158577262Y-180295184D01*
X158476365Y-180231786D01*
X158424521Y-180199210D01*
X158254249Y-180139630D01*
X158167331Y-180129837D01*
X158102917Y-180102770D01*
X158093534Y-180094298D01*
X154881416Y-176882180D01*
X154847931Y-176820857D01*
X154852915Y-176751165D01*
X154894787Y-176695232D01*
X154960251Y-176670815D01*
X154969097Y-176670499D01*
X155732871Y-176670499D01*
X155732872Y-176670499D01*
X155792483Y-176664091D01*
X155843362Y-176645113D01*
X155913054Y-176640129D01*
X155974375Y-176673611D01*
X160781284Y-181480520D01*
X160781286Y-181480521D01*
X160781290Y-181480524D01*
X160909968Y-181554815D01*
X160918216Y-181559577D01*
X161070943Y-181600501D01*
X161070945Y-181600501D01*
X161236654Y-181600501D01*
X161236670Y-181600500D01*
X162917588Y-181600500D01*
X162984627Y-181620185D01*
X162994903Y-181627555D01*
X162997736Y-181629814D01*
X162997738Y-181629816D01*
X163111270Y-181701152D01*
X163125935Y-181710368D01*
X163150478Y-181725789D01*
X163320745Y-181785368D01*
X163320750Y-181785369D01*
X163499996Y-181805565D01*
X163500000Y-181805565D01*
X163500004Y-181805565D01*
X163679249Y-181785369D01*
X163679252Y-181785368D01*
X163679255Y-181785368D01*
X163849522Y-181725789D01*
X164002262Y-181629816D01*
X164129816Y-181502262D01*
X164225789Y-181349522D01*
X164285368Y-181179255D01*
X164285369Y-181179249D01*
X164305565Y-181000003D01*
X164305565Y-180999996D01*
X164285369Y-180820750D01*
X164285366Y-180820737D01*
X164266022Y-180765455D01*
X164262460Y-180695676D01*
X164297188Y-180635049D01*
X164359182Y-180602821D01*
X164383063Y-180600500D01*
X169774903Y-180600500D01*
X169841942Y-180620185D01*
X169862584Y-180636819D01*
X170244298Y-181018533D01*
X170277783Y-181079856D01*
X170279837Y-181092330D01*
X170289630Y-181179249D01*
X170349210Y-181349521D01*
X170398058Y-181427262D01*
X170445184Y-181502262D01*
X170572738Y-181629816D01*
X170663080Y-181686582D01*
X170700935Y-181710368D01*
X170725478Y-181725789D01*
X170895745Y-181785368D01*
X170895750Y-181785369D01*
X171074996Y-181805565D01*
X171075000Y-181805565D01*
X171075004Y-181805565D01*
X171254249Y-181785369D01*
X171254252Y-181785368D01*
X171254255Y-181785368D01*
X171424522Y-181725789D01*
X171577262Y-181629816D01*
X171704816Y-181502262D01*
X171800789Y-181349522D01*
X171860368Y-181179255D01*
X171860369Y-181179249D01*
X171880565Y-181000003D01*
X171880565Y-180999996D01*
X171860369Y-180820750D01*
X171860368Y-180820745D01*
X171800788Y-180650476D01*
X171704815Y-180497737D01*
X171619259Y-180412181D01*
X171585774Y-180350858D01*
X171590758Y-180281166D01*
X171632630Y-180225233D01*
X171698094Y-180200816D01*
X171706940Y-180200500D01*
X175374903Y-180200500D01*
X175441942Y-180220185D01*
X175462584Y-180236819D01*
X176244298Y-181018533D01*
X176277783Y-181079856D01*
X176279837Y-181092330D01*
X176289630Y-181179249D01*
X176349210Y-181349521D01*
X176398058Y-181427262D01*
X176445184Y-181502262D01*
X176572738Y-181629816D01*
X176663080Y-181686582D01*
X176700935Y-181710368D01*
X176725478Y-181725789D01*
X176895745Y-181785368D01*
X176895750Y-181785369D01*
X177074996Y-181805565D01*
X177075000Y-181805565D01*
X177075004Y-181805565D01*
X177254249Y-181785369D01*
X177254252Y-181785368D01*
X177254255Y-181785368D01*
X177424522Y-181725789D01*
X177577262Y-181629816D01*
X177704816Y-181502262D01*
X177800789Y-181349522D01*
X177860368Y-181179255D01*
X177860369Y-181179249D01*
X177880565Y-181000003D01*
X177880565Y-180999996D01*
X177860369Y-180820750D01*
X177860368Y-180820745D01*
X177800788Y-180650476D01*
X177704815Y-180497737D01*
X177577262Y-180370184D01*
X177424521Y-180274210D01*
X177276849Y-180222538D01*
X177254255Y-180214632D01*
X177254254Y-180214631D01*
X177254249Y-180214630D01*
X177167330Y-180204837D01*
X177102916Y-180177770D01*
X177093533Y-180169298D01*
X176936416Y-180012181D01*
X176902931Y-179950858D01*
X176907915Y-179881166D01*
X176949787Y-179825233D01*
X177015251Y-179800816D01*
X177024097Y-179800500D01*
X181474903Y-179800500D01*
X181541942Y-179820185D01*
X181562584Y-179836819D01*
X182744298Y-181018533D01*
X182777783Y-181079856D01*
X182779837Y-181092330D01*
X182789630Y-181179249D01*
X182849210Y-181349521D01*
X182898058Y-181427262D01*
X182945184Y-181502262D01*
X183072738Y-181629816D01*
X183163080Y-181686582D01*
X183200935Y-181710368D01*
X183225478Y-181725789D01*
X183395745Y-181785368D01*
X183395750Y-181785369D01*
X183574996Y-181805565D01*
X183575000Y-181805565D01*
X183575004Y-181805565D01*
X183754249Y-181785369D01*
X183754252Y-181785368D01*
X183754255Y-181785368D01*
X183924522Y-181725789D01*
X184077262Y-181629816D01*
X184204816Y-181502262D01*
X184300789Y-181349522D01*
X184360368Y-181179255D01*
X184360369Y-181179249D01*
X184380565Y-181000003D01*
X184380565Y-180999996D01*
X184360369Y-180820750D01*
X184360368Y-180820745D01*
X184300788Y-180650476D01*
X184204815Y-180497737D01*
X184077262Y-180370184D01*
X183924521Y-180274210D01*
X183776849Y-180222538D01*
X183754255Y-180214632D01*
X183754254Y-180214631D01*
X183754249Y-180214630D01*
X183667330Y-180204837D01*
X183602916Y-180177770D01*
X183593533Y-180169298D01*
X182262590Y-178838355D01*
X182262588Y-178838352D01*
X182143717Y-178719481D01*
X182143716Y-178719480D01*
X182056904Y-178669360D01*
X182056904Y-178669359D01*
X182056900Y-178669358D01*
X182006785Y-178640423D01*
X181854057Y-178599499D01*
X181695943Y-178599499D01*
X181688347Y-178599499D01*
X181688331Y-178599500D01*
X168650097Y-178599500D01*
X168583058Y-178579815D01*
X168562416Y-178563181D01*
X166881415Y-176882180D01*
X166847930Y-176820857D01*
X166852914Y-176751165D01*
X166894786Y-176695232D01*
X166960250Y-176670815D01*
X166969096Y-176670499D01*
X167732871Y-176670499D01*
X167732872Y-176670499D01*
X167792483Y-176664091D01*
X167927331Y-176613796D01*
X168042546Y-176527546D01*
X168128796Y-176412331D01*
X168179091Y-176277483D01*
X168185500Y-176217873D01*
X168185500Y-175624500D01*
X168205185Y-175557461D01*
X168257989Y-175511706D01*
X168309500Y-175500500D01*
X183174903Y-175500500D01*
X183241942Y-175520185D01*
X183262584Y-175536819D01*
X188744298Y-181018534D01*
X188777783Y-181079857D01*
X188779837Y-181092331D01*
X188789630Y-181179249D01*
X188849210Y-181349521D01*
X188898058Y-181427262D01*
X188945184Y-181502262D01*
X189072738Y-181629816D01*
X189163080Y-181686582D01*
X189200935Y-181710368D01*
X189225478Y-181725789D01*
X189395745Y-181785368D01*
X189395750Y-181785369D01*
X189574996Y-181805565D01*
X189575000Y-181805565D01*
X189575004Y-181805565D01*
X189754249Y-181785369D01*
X189754252Y-181785368D01*
X189754255Y-181785368D01*
X189924522Y-181725789D01*
X190077262Y-181629816D01*
X190204816Y-181502262D01*
X190300789Y-181349522D01*
X190360368Y-181179255D01*
X190360369Y-181179249D01*
X190380565Y-181000003D01*
X190380565Y-180999996D01*
X190360369Y-180820750D01*
X190360368Y-180820745D01*
X190300788Y-180650476D01*
X190204815Y-180497737D01*
X190077262Y-180370184D01*
X189924521Y-180274210D01*
X189776849Y-180222538D01*
X189754255Y-180214632D01*
X189754254Y-180214631D01*
X189754249Y-180214630D01*
X189667331Y-180204837D01*
X189602917Y-180177770D01*
X189593534Y-180169298D01*
X183962590Y-174538355D01*
X183962588Y-174538352D01*
X183843717Y-174419481D01*
X183843716Y-174419480D01*
X183756904Y-174369360D01*
X183756904Y-174369359D01*
X183756900Y-174369358D01*
X183706785Y-174340423D01*
X183554057Y-174299499D01*
X183395943Y-174299499D01*
X183388347Y-174299499D01*
X183388331Y-174299500D01*
X168309499Y-174299500D01*
X168242460Y-174279815D01*
X168196705Y-174227011D01*
X168185499Y-174175500D01*
X168185499Y-173582129D01*
X168185498Y-173582123D01*
X168185497Y-173582116D01*
X168179091Y-173522517D01*
X168128796Y-173387669D01*
X168128795Y-173387668D01*
X168128793Y-173387664D01*
X168042547Y-173272455D01*
X168042544Y-173272452D01*
X167927335Y-173186206D01*
X167927328Y-173186202D01*
X167792482Y-173135908D01*
X167792483Y-173135908D01*
X167732883Y-173129501D01*
X167732881Y-173129500D01*
X167732873Y-173129500D01*
X167732864Y-173129500D01*
X166367129Y-173129500D01*
X166367123Y-173129501D01*
X166307516Y-173135908D01*
X166172671Y-173186202D01*
X166172664Y-173186206D01*
X166057455Y-173272452D01*
X166057452Y-173272455D01*
X165971206Y-173387664D01*
X165971202Y-173387671D01*
X165920908Y-173522517D01*
X165914501Y-173582116D01*
X165914501Y-173582123D01*
X165914500Y-173582135D01*
X165914500Y-175615903D01*
X165894815Y-175682942D01*
X165842011Y-175728697D01*
X165772853Y-175738641D01*
X165709297Y-175709616D01*
X165702819Y-175703584D01*
X165221818Y-175222583D01*
X165188333Y-175161260D01*
X165185499Y-175134902D01*
X165185499Y-173582129D01*
X165185498Y-173582123D01*
X165185497Y-173582116D01*
X165179091Y-173522517D01*
X165128796Y-173387669D01*
X165128795Y-173387668D01*
X165128793Y-173387664D01*
X165042547Y-173272455D01*
X165042544Y-173272452D01*
X164927335Y-173186206D01*
X164927328Y-173186202D01*
X164792482Y-173135908D01*
X164792483Y-173135908D01*
X164732883Y-173129501D01*
X164732881Y-173129500D01*
X164732873Y-173129500D01*
X164732864Y-173129500D01*
X163367129Y-173129500D01*
X163367123Y-173129501D01*
X163307516Y-173135908D01*
X163172671Y-173186202D01*
X163172664Y-173186206D01*
X163057455Y-173272452D01*
X163057452Y-173272455D01*
X162971206Y-173387664D01*
X162971202Y-173387671D01*
X162920908Y-173522517D01*
X162914501Y-173582116D01*
X162914501Y-173582123D01*
X162914500Y-173582135D01*
X162914500Y-175615903D01*
X162894815Y-175682942D01*
X162842011Y-175728697D01*
X162772853Y-175738641D01*
X162709297Y-175709616D01*
X162702819Y-175703584D01*
X162221818Y-175222583D01*
X162188333Y-175161260D01*
X162185499Y-175134902D01*
X162185499Y-173582129D01*
X162185498Y-173582123D01*
X162185497Y-173582116D01*
X162179091Y-173522517D01*
X162128796Y-173387669D01*
X162128795Y-173387668D01*
X162128793Y-173387664D01*
X162042547Y-173272455D01*
X162042544Y-173272452D01*
X161927335Y-173186206D01*
X161927328Y-173186202D01*
X161792482Y-173135908D01*
X161792483Y-173135908D01*
X161732883Y-173129501D01*
X161732881Y-173129500D01*
X161732873Y-173129500D01*
X161732864Y-173129500D01*
X160367129Y-173129500D01*
X160367123Y-173129501D01*
X160307516Y-173135908D01*
X160172671Y-173186202D01*
X160172664Y-173186206D01*
X160057455Y-173272452D01*
X160057452Y-173272455D01*
X159971206Y-173387664D01*
X159971202Y-173387671D01*
X159920908Y-173522517D01*
X159914501Y-173582116D01*
X159914501Y-173582123D01*
X159914500Y-173582135D01*
X159914500Y-176217870D01*
X159914501Y-176217876D01*
X159920908Y-176277483D01*
X159971202Y-176412328D01*
X159971206Y-176412335D01*
X160057452Y-176527544D01*
X160057455Y-176527547D01*
X160172664Y-176613793D01*
X160172671Y-176613797D01*
X160307517Y-176664091D01*
X160307516Y-176664091D01*
X160314444Y-176664835D01*
X160367127Y-176670500D01*
X161732872Y-176670499D01*
X161792483Y-176664091D01*
X161843362Y-176645113D01*
X161913054Y-176640129D01*
X161974375Y-176673611D01*
X161974378Y-176673614D01*
X164488583Y-179187819D01*
X164522068Y-179249142D01*
X164517084Y-179318834D01*
X164475212Y-179374767D01*
X164409748Y-179399184D01*
X164400902Y-179399500D01*
X161875097Y-179399500D01*
X161808058Y-179379815D01*
X161787416Y-179363181D01*
X159079665Y-176655430D01*
X159046180Y-176594107D01*
X159051164Y-176524415D01*
X159068079Y-176493438D01*
X159128796Y-176412331D01*
X159179091Y-176277483D01*
X159185500Y-176217873D01*
X159185499Y-173582128D01*
X159179091Y-173522517D01*
X159128796Y-173387669D01*
X159128795Y-173387668D01*
X159128793Y-173387664D01*
X159042547Y-173272455D01*
X159042544Y-173272452D01*
X158927335Y-173186206D01*
X158927328Y-173186202D01*
X158792482Y-173135908D01*
X158792483Y-173135908D01*
X158732883Y-173129501D01*
X158732881Y-173129500D01*
X158732873Y-173129500D01*
X158732864Y-173129500D01*
X157367129Y-173129500D01*
X157367123Y-173129501D01*
X157307516Y-173135908D01*
X157172671Y-173186202D01*
X157172664Y-173186206D01*
X157057455Y-173272452D01*
X157057452Y-173272455D01*
X156971206Y-173387664D01*
X156971202Y-173387671D01*
X156920908Y-173522517D01*
X156914501Y-173582116D01*
X156914501Y-173582123D01*
X156914500Y-173582135D01*
X156914500Y-175615903D01*
X156894815Y-175682942D01*
X156842011Y-175728697D01*
X156772853Y-175738641D01*
X156709297Y-175709616D01*
X156702819Y-175703584D01*
X156221818Y-175222583D01*
X156188333Y-175161260D01*
X156185499Y-175134902D01*
X156185499Y-173582129D01*
X156185498Y-173582123D01*
X156185497Y-173582116D01*
X156179091Y-173522517D01*
X156128796Y-173387669D01*
X156128795Y-173387668D01*
X156128793Y-173387664D01*
X156042547Y-173272455D01*
X156042544Y-173272452D01*
X155927335Y-173186206D01*
X155927328Y-173186202D01*
X155792482Y-173135908D01*
X155792483Y-173135908D01*
X155732883Y-173129501D01*
X155732881Y-173129500D01*
X155732873Y-173129500D01*
X155732864Y-173129500D01*
X154367129Y-173129500D01*
X154367123Y-173129501D01*
X154307516Y-173135908D01*
X154172671Y-173186202D01*
X154172664Y-173186206D01*
X154057455Y-173272452D01*
X154057452Y-173272455D01*
X153971206Y-173387664D01*
X153971202Y-173387671D01*
X153920908Y-173522517D01*
X153914501Y-173582116D01*
X153914501Y-173582123D01*
X153914500Y-173582135D01*
X153914500Y-175615903D01*
X153894815Y-175682942D01*
X153842011Y-175728697D01*
X153772853Y-175738641D01*
X153709297Y-175709616D01*
X153702819Y-175703584D01*
X153221818Y-175222583D01*
X153188333Y-175161260D01*
X153185499Y-175134902D01*
X153185499Y-173582129D01*
X153185498Y-173582123D01*
X153185497Y-173582116D01*
X153179091Y-173522517D01*
X153128796Y-173387669D01*
X153128795Y-173387668D01*
X153128793Y-173387664D01*
X153042547Y-173272455D01*
X153042544Y-173272452D01*
X152927335Y-173186206D01*
X152927328Y-173186202D01*
X152792482Y-173135908D01*
X152792483Y-173135908D01*
X152732883Y-173129501D01*
X152732881Y-173129500D01*
X152732873Y-173129500D01*
X152732864Y-173129500D01*
X151367129Y-173129500D01*
X151367123Y-173129501D01*
X151307516Y-173135908D01*
X151172671Y-173186202D01*
X151172664Y-173186206D01*
X151057455Y-173272452D01*
X151057452Y-173272455D01*
X150971206Y-173387664D01*
X150971202Y-173387671D01*
X150920908Y-173522517D01*
X150914501Y-173582116D01*
X150914501Y-173582123D01*
X150914500Y-173582135D01*
X150185499Y-173582135D01*
X150185499Y-173582128D01*
X150179091Y-173522517D01*
X150128796Y-173387669D01*
X150128795Y-173387668D01*
X150128793Y-173387664D01*
X150042547Y-173272455D01*
X150042544Y-173272452D01*
X149927335Y-173186206D01*
X149927328Y-173186202D01*
X149792482Y-173135908D01*
X149792483Y-173135908D01*
X149732883Y-173129501D01*
X149732881Y-173129500D01*
X149732873Y-173129500D01*
X149732864Y-173129500D01*
X148367129Y-173129500D01*
X148367123Y-173129501D01*
X148307516Y-173135908D01*
X148172671Y-173186202D01*
X148172664Y-173186206D01*
X148057455Y-173272452D01*
X148057452Y-173272455D01*
X147971206Y-173387664D01*
X147971202Y-173387671D01*
X147920908Y-173522517D01*
X147914501Y-173582116D01*
X147914501Y-173582123D01*
X147914500Y-173582135D01*
X147185499Y-173582135D01*
X147185499Y-173582128D01*
X147179091Y-173522517D01*
X147128796Y-173387669D01*
X147128795Y-173387668D01*
X147128793Y-173387664D01*
X147042547Y-173272455D01*
X147042544Y-173272452D01*
X146927335Y-173186206D01*
X146927328Y-173186202D01*
X146792482Y-173135908D01*
X146792483Y-173135908D01*
X146732883Y-173129501D01*
X146732881Y-173129500D01*
X146732873Y-173129500D01*
X146732864Y-173129500D01*
X145367129Y-173129500D01*
X145367123Y-173129501D01*
X145307516Y-173135908D01*
X145172671Y-173186202D01*
X145172664Y-173186206D01*
X145057455Y-173272452D01*
X145057452Y-173272455D01*
X144971206Y-173387664D01*
X144971202Y-173387671D01*
X144920908Y-173522517D01*
X144914501Y-173582116D01*
X144914501Y-173582123D01*
X144914500Y-173582135D01*
X144185499Y-173582135D01*
X144185499Y-173582128D01*
X144179091Y-173522517D01*
X144128796Y-173387669D01*
X144128795Y-173387668D01*
X144128793Y-173387664D01*
X144042547Y-173272455D01*
X144042544Y-173272452D01*
X143927335Y-173186206D01*
X143927328Y-173186202D01*
X143792482Y-173135908D01*
X143792483Y-173135908D01*
X143732883Y-173129501D01*
X143732881Y-173129500D01*
X143732873Y-173129500D01*
X143732864Y-173129500D01*
X142367129Y-173129500D01*
X142367123Y-173129501D01*
X142307516Y-173135908D01*
X142172671Y-173186202D01*
X142172664Y-173186206D01*
X142057455Y-173272452D01*
X142057452Y-173272455D01*
X141971206Y-173387664D01*
X141971202Y-173387671D01*
X141920908Y-173522517D01*
X141914501Y-173582116D01*
X141914501Y-173582123D01*
X141914500Y-173582135D01*
X141914500Y-176217870D01*
X141914501Y-176217876D01*
X141920908Y-176277483D01*
X141971202Y-176412328D01*
X141971206Y-176412335D01*
X142057452Y-176527544D01*
X142057455Y-176527547D01*
X142172664Y-176613793D01*
X142172671Y-176613797D01*
X142307517Y-176664091D01*
X142307515Y-176664091D01*
X142338756Y-176667450D01*
X142403307Y-176694188D01*
X142443155Y-176751581D01*
X142449500Y-176790739D01*
X142449500Y-178724902D01*
X142429815Y-178791941D01*
X142413181Y-178812583D01*
X141056465Y-180169298D01*
X140995142Y-180202783D01*
X140982668Y-180204837D01*
X140895750Y-180214630D01*
X140725478Y-180274210D01*
X140572737Y-180370184D01*
X140445184Y-180497737D01*
X140349211Y-180650476D01*
X140289631Y-180820745D01*
X140289630Y-180820750D01*
X140269435Y-180999996D01*
X135924237Y-180999996D01*
X140217416Y-176706818D01*
X140278739Y-176673333D01*
X140305097Y-176670499D01*
X140732871Y-176670499D01*
X140732872Y-176670499D01*
X140792483Y-176664091D01*
X140927331Y-176613796D01*
X141042546Y-176527546D01*
X141128796Y-176412331D01*
X141179091Y-176277483D01*
X141185500Y-176217873D01*
X141185499Y-173582128D01*
X141179091Y-173522517D01*
X141128796Y-173387669D01*
X141128795Y-173387668D01*
X141128793Y-173387664D01*
X141042547Y-173272455D01*
X141042544Y-173272452D01*
X140927335Y-173186206D01*
X140927328Y-173186202D01*
X140792482Y-173135908D01*
X140792483Y-173135908D01*
X140732883Y-173129501D01*
X140732881Y-173129500D01*
X140732873Y-173129500D01*
X140732864Y-173129500D01*
X139367129Y-173129500D01*
X139367123Y-173129501D01*
X139307516Y-173135908D01*
X139172671Y-173186202D01*
X139172664Y-173186206D01*
X139057455Y-173272452D01*
X139057452Y-173272455D01*
X138971206Y-173387664D01*
X138971202Y-173387671D01*
X138920908Y-173522517D01*
X138914501Y-173582116D01*
X138914501Y-173582123D01*
X138914500Y-173582135D01*
X138914500Y-176217870D01*
X138914501Y-176217874D01*
X138917225Y-176243212D01*
X138904818Y-176311972D01*
X138881616Y-176344147D01*
X135056465Y-180169298D01*
X134995142Y-180202783D01*
X134982668Y-180204837D01*
X134895750Y-180214630D01*
X134725478Y-180274210D01*
X134572737Y-180370184D01*
X134445184Y-180497737D01*
X134349211Y-180650476D01*
X134289631Y-180820745D01*
X134289630Y-180820750D01*
X134269435Y-180999996D01*
X130924237Y-180999996D01*
X135711284Y-176212949D01*
X135772605Y-176179466D01*
X135842297Y-176184450D01*
X135898230Y-176226322D01*
X135919638Y-176272108D01*
X135920908Y-176277481D01*
X135971202Y-176412328D01*
X135971206Y-176412335D01*
X136057452Y-176527544D01*
X136057455Y-176527547D01*
X136172664Y-176613793D01*
X136172671Y-176613797D01*
X136307517Y-176664091D01*
X136307516Y-176664091D01*
X136314444Y-176664835D01*
X136367127Y-176670500D01*
X137732872Y-176670499D01*
X137792483Y-176664091D01*
X137927331Y-176613796D01*
X138042546Y-176527546D01*
X138128796Y-176412331D01*
X138179091Y-176277483D01*
X138185500Y-176217873D01*
X138185499Y-173582128D01*
X138179091Y-173522517D01*
X138128796Y-173387669D01*
X138128795Y-173387668D01*
X138128793Y-173387664D01*
X138042547Y-173272455D01*
X138042544Y-173272452D01*
X137927335Y-173186206D01*
X137927328Y-173186202D01*
X137792482Y-173135908D01*
X137792483Y-173135908D01*
X137732883Y-173129501D01*
X137732881Y-173129500D01*
X137732873Y-173129500D01*
X137732864Y-173129500D01*
X136367129Y-173129500D01*
X136367123Y-173129501D01*
X136307516Y-173135908D01*
X136172671Y-173186202D01*
X136172664Y-173186206D01*
X136057455Y-173272452D01*
X136057452Y-173272455D01*
X135971206Y-173387664D01*
X135971202Y-173387671D01*
X135920908Y-173522517D01*
X135914501Y-173582116D01*
X135914501Y-173582123D01*
X135914500Y-173582135D01*
X135914500Y-174285409D01*
X135894815Y-174352448D01*
X135852502Y-174392795D01*
X135806287Y-174419478D01*
X135806281Y-174419482D01*
X130056465Y-180169298D01*
X129995142Y-180202783D01*
X129982668Y-180204837D01*
X129895750Y-180214630D01*
X129725478Y-180274210D01*
X129572737Y-180370184D01*
X129445184Y-180497737D01*
X129349211Y-180650476D01*
X129289631Y-180820745D01*
X129289630Y-180820750D01*
X129269435Y-180999996D01*
X125000500Y-180999996D01*
X125000500Y-170085444D01*
X133444500Y-170085444D01*
X133444500Y-170314555D01*
X133480338Y-170540830D01*
X133551136Y-170758722D01*
X133655147Y-170962851D01*
X133789801Y-171148188D01*
X133789805Y-171148193D01*
X133951806Y-171310194D01*
X133951811Y-171310198D01*
X134113472Y-171427650D01*
X134137152Y-171444855D01*
X134267221Y-171511128D01*
X134341277Y-171548863D01*
X134341279Y-171548863D01*
X134341282Y-171548865D01*
X134458076Y-171586813D01*
X134559169Y-171619661D01*
X134785445Y-171655500D01*
X134785450Y-171655500D01*
X135014555Y-171655500D01*
X135240830Y-171619661D01*
X135458718Y-171548865D01*
X135662848Y-171444855D01*
X135848195Y-171310193D01*
X136010193Y-171148195D01*
X136144855Y-170962848D01*
X136248865Y-170758718D01*
X136319661Y-170540830D01*
X136355500Y-170314555D01*
X136355500Y-170085444D01*
X167744500Y-170085444D01*
X167744500Y-170314555D01*
X167780338Y-170540830D01*
X167851136Y-170758722D01*
X167955147Y-170962851D01*
X168089801Y-171148188D01*
X168089805Y-171148193D01*
X168251806Y-171310194D01*
X168251811Y-171310198D01*
X168413472Y-171427650D01*
X168437152Y-171444855D01*
X168567221Y-171511128D01*
X168641277Y-171548863D01*
X168641279Y-171548863D01*
X168641282Y-171548865D01*
X168758076Y-171586813D01*
X168859169Y-171619661D01*
X169085445Y-171655500D01*
X169085450Y-171655500D01*
X169314555Y-171655500D01*
X169540830Y-171619661D01*
X169758718Y-171548865D01*
X169962848Y-171444855D01*
X170148195Y-171310193D01*
X170310193Y-171148195D01*
X170444855Y-170962848D01*
X170548865Y-170758718D01*
X170619661Y-170540830D01*
X170655500Y-170314555D01*
X170655500Y-170085444D01*
X170619661Y-169859169D01*
X170548863Y-169641277D01*
X170511128Y-169567221D01*
X170444855Y-169437152D01*
X170427650Y-169413472D01*
X170310198Y-169251811D01*
X170310194Y-169251806D01*
X170148193Y-169089805D01*
X170148188Y-169089801D01*
X169962851Y-168955147D01*
X169962850Y-168955146D01*
X169962848Y-168955145D01*
X169899102Y-168922665D01*
X169758722Y-168851136D01*
X169540830Y-168780338D01*
X169314555Y-168744500D01*
X169314550Y-168744500D01*
X169085450Y-168744500D01*
X169085445Y-168744500D01*
X168859169Y-168780338D01*
X168641277Y-168851136D01*
X168437148Y-168955147D01*
X168251811Y-169089801D01*
X168251806Y-169089805D01*
X168089805Y-169251806D01*
X168089801Y-169251811D01*
X167955147Y-169437148D01*
X167851136Y-169641277D01*
X167780338Y-169859169D01*
X167744500Y-170085444D01*
X136355500Y-170085444D01*
X136319661Y-169859169D01*
X136248863Y-169641277D01*
X136211128Y-169567221D01*
X136144855Y-169437152D01*
X136127650Y-169413472D01*
X136010198Y-169251811D01*
X136010194Y-169251806D01*
X135848193Y-169089805D01*
X135848188Y-169089801D01*
X135662851Y-168955147D01*
X135662850Y-168955146D01*
X135662848Y-168955145D01*
X135599102Y-168922665D01*
X135458722Y-168851136D01*
X135240830Y-168780338D01*
X135014555Y-168744500D01*
X135014550Y-168744500D01*
X134785450Y-168744500D01*
X134785445Y-168744500D01*
X134559169Y-168780338D01*
X134341277Y-168851136D01*
X134137148Y-168955147D01*
X133951811Y-169089801D01*
X133951806Y-169089805D01*
X133789805Y-169251806D01*
X133789801Y-169251811D01*
X133655147Y-169437148D01*
X133551136Y-169641277D01*
X133480338Y-169859169D01*
X133444500Y-170085444D01*
X125000500Y-170085444D01*
X125000500Y-164937496D01*
X130756935Y-164937496D01*
X130756935Y-164937503D01*
X130777130Y-165116749D01*
X130777131Y-165116754D01*
X130836711Y-165287023D01*
X130932684Y-165439762D01*
X131060238Y-165567316D01*
X131212978Y-165663289D01*
X131383245Y-165722868D01*
X131470169Y-165732661D01*
X131534580Y-165759726D01*
X131543965Y-165768200D01*
X131640139Y-165864374D01*
X131640149Y-165864385D01*
X131644479Y-165868715D01*
X131644480Y-165868716D01*
X131756284Y-165980520D01*
X131843095Y-166030639D01*
X131843097Y-166030641D01*
X131881151Y-166052611D01*
X131893215Y-166059577D01*
X132045943Y-166100500D01*
X135790501Y-166100500D01*
X135857540Y-166120185D01*
X135903295Y-166172989D01*
X135914501Y-166224500D01*
X135914501Y-166817876D01*
X135920908Y-166877483D01*
X135971202Y-167012328D01*
X135971206Y-167012335D01*
X136057452Y-167127544D01*
X136057455Y-167127547D01*
X136172664Y-167213793D01*
X136172671Y-167213797D01*
X136307517Y-167264091D01*
X136307516Y-167264091D01*
X136314444Y-167264835D01*
X136367127Y-167270500D01*
X137732872Y-167270499D01*
X137792483Y-167264091D01*
X137927331Y-167213796D01*
X138042546Y-167127546D01*
X138128796Y-167012331D01*
X138179091Y-166877483D01*
X138185500Y-166817873D01*
X138185499Y-164784095D01*
X138205184Y-164717057D01*
X138257987Y-164671302D01*
X138327146Y-164661358D01*
X138390702Y-164690383D01*
X138397180Y-164696415D01*
X138878181Y-165177416D01*
X138911666Y-165238739D01*
X138914500Y-165265097D01*
X138914500Y-166817870D01*
X138914501Y-166817876D01*
X138920908Y-166877483D01*
X138971202Y-167012328D01*
X138971206Y-167012335D01*
X139057452Y-167127544D01*
X139057455Y-167127547D01*
X139172664Y-167213793D01*
X139172671Y-167213797D01*
X139307517Y-167264091D01*
X139307516Y-167264091D01*
X139314444Y-167264835D01*
X139367127Y-167270500D01*
X140732872Y-167270499D01*
X140792483Y-167264091D01*
X140927331Y-167213796D01*
X141042546Y-167127546D01*
X141128796Y-167012331D01*
X141179091Y-166877483D01*
X141185500Y-166817873D01*
X141185499Y-164182128D01*
X141179091Y-164122517D01*
X141178221Y-164120185D01*
X141128797Y-163987671D01*
X141128793Y-163987664D01*
X141042547Y-163872455D01*
X141042544Y-163872452D01*
X140927335Y-163786206D01*
X140927328Y-163786202D01*
X140792482Y-163735908D01*
X140792483Y-163735908D01*
X140732883Y-163729501D01*
X140732881Y-163729500D01*
X140732873Y-163729500D01*
X140732864Y-163729500D01*
X139367129Y-163729500D01*
X139367123Y-163729501D01*
X139307518Y-163735908D01*
X139256632Y-163754887D01*
X139186940Y-163759870D01*
X139125620Y-163726385D01*
X138899231Y-163499996D01*
X141794435Y-163499996D01*
X141794435Y-163500003D01*
X141814630Y-163679249D01*
X141814631Y-163679254D01*
X141874211Y-163849524D01*
X141934804Y-163945955D01*
X141953805Y-164013192D01*
X141945993Y-164055260D01*
X141920909Y-164122514D01*
X141920908Y-164122516D01*
X141915482Y-164172989D01*
X141914501Y-164182123D01*
X141914500Y-164182135D01*
X141914500Y-166817870D01*
X141914501Y-166817876D01*
X141920908Y-166877483D01*
X141971202Y-167012328D01*
X141971206Y-167012335D01*
X142057452Y-167127544D01*
X142057455Y-167127547D01*
X142172664Y-167213793D01*
X142172671Y-167213797D01*
X142307517Y-167264091D01*
X142307516Y-167264091D01*
X142314444Y-167264835D01*
X142367127Y-167270500D01*
X143732872Y-167270499D01*
X143792483Y-167264091D01*
X143927331Y-167213796D01*
X144042546Y-167127546D01*
X144128796Y-167012331D01*
X144179091Y-166877483D01*
X144185500Y-166817873D01*
X144185499Y-164182135D01*
X144914500Y-164182135D01*
X144914500Y-166817870D01*
X144914501Y-166817876D01*
X144920908Y-166877483D01*
X144971202Y-167012328D01*
X144971206Y-167012335D01*
X145057452Y-167127544D01*
X145057455Y-167127547D01*
X145172664Y-167213793D01*
X145172671Y-167213797D01*
X145307517Y-167264091D01*
X145307516Y-167264091D01*
X145314444Y-167264835D01*
X145367127Y-167270500D01*
X146732872Y-167270499D01*
X146792483Y-167264091D01*
X146927331Y-167213796D01*
X147042546Y-167127546D01*
X147128796Y-167012331D01*
X147179091Y-166877483D01*
X147185500Y-166817873D01*
X147185499Y-164182135D01*
X147914500Y-164182135D01*
X147914500Y-166817870D01*
X147914501Y-166817876D01*
X147920908Y-166877483D01*
X147971202Y-167012328D01*
X147971206Y-167012335D01*
X148057452Y-167127544D01*
X148057455Y-167127547D01*
X148172664Y-167213793D01*
X148172671Y-167213797D01*
X148307517Y-167264091D01*
X148307516Y-167264091D01*
X148314444Y-167264835D01*
X148367127Y-167270500D01*
X149732872Y-167270499D01*
X149792483Y-167264091D01*
X149927331Y-167213796D01*
X150042546Y-167127546D01*
X150128796Y-167012331D01*
X150179091Y-166877483D01*
X150185500Y-166817873D01*
X150185499Y-164715096D01*
X150205184Y-164648058D01*
X150221814Y-164627420D01*
X150518535Y-164330698D01*
X150579856Y-164297215D01*
X150592311Y-164295163D01*
X150679255Y-164285368D01*
X150685502Y-164283182D01*
X150749545Y-164260773D01*
X150819324Y-164257211D01*
X150879951Y-164291939D01*
X150912179Y-164353933D01*
X150914500Y-164377814D01*
X150914500Y-166817870D01*
X150914501Y-166817876D01*
X150920908Y-166877483D01*
X150971202Y-167012328D01*
X150971206Y-167012335D01*
X151057452Y-167127544D01*
X151057455Y-167127547D01*
X151172664Y-167213793D01*
X151172671Y-167213797D01*
X151307517Y-167264091D01*
X151307516Y-167264091D01*
X151314444Y-167264835D01*
X151367127Y-167270500D01*
X152732872Y-167270499D01*
X152792483Y-167264091D01*
X152927331Y-167213796D01*
X153042546Y-167127546D01*
X153128796Y-167012331D01*
X153179091Y-166877483D01*
X153185500Y-166817873D01*
X153185499Y-165265095D01*
X153205184Y-165198057D01*
X153221813Y-165177420D01*
X153702821Y-164696412D01*
X153764142Y-164662929D01*
X153833834Y-164667913D01*
X153889767Y-164709785D01*
X153914184Y-164775249D01*
X153914500Y-164784095D01*
X153914500Y-166817870D01*
X153914501Y-166817876D01*
X153920908Y-166877483D01*
X153971202Y-167012328D01*
X153971206Y-167012335D01*
X154057452Y-167127544D01*
X154057455Y-167127547D01*
X154172664Y-167213793D01*
X154172671Y-167213797D01*
X154307517Y-167264091D01*
X154307516Y-167264091D01*
X154314444Y-167264835D01*
X154367127Y-167270500D01*
X155732872Y-167270499D01*
X155792483Y-167264091D01*
X155927331Y-167213796D01*
X156042546Y-167127546D01*
X156128796Y-167012331D01*
X156179091Y-166877483D01*
X156185500Y-166817873D01*
X156185499Y-165265095D01*
X156205184Y-165198057D01*
X156221813Y-165177420D01*
X156702821Y-164696412D01*
X156764142Y-164662929D01*
X156833834Y-164667913D01*
X156889767Y-164709785D01*
X156914184Y-164775249D01*
X156914500Y-164784095D01*
X156914500Y-166817870D01*
X156914501Y-166817876D01*
X156920908Y-166877483D01*
X156971202Y-167012328D01*
X156971206Y-167012335D01*
X157057452Y-167127544D01*
X157057455Y-167127547D01*
X157172664Y-167213793D01*
X157172671Y-167213797D01*
X157307517Y-167264091D01*
X157307516Y-167264091D01*
X157314444Y-167264835D01*
X157367127Y-167270500D01*
X158732872Y-167270499D01*
X158792483Y-167264091D01*
X158843366Y-167245112D01*
X158913056Y-167240129D01*
X158974379Y-167273614D01*
X159135139Y-167434374D01*
X159135149Y-167434385D01*
X159139479Y-167438715D01*
X159139480Y-167438716D01*
X159251284Y-167550520D01*
X159323643Y-167592296D01*
X159388215Y-167629577D01*
X159540942Y-167670500D01*
X159540943Y-167670500D01*
X169739228Y-167670500D01*
X169805200Y-167689506D01*
X169830476Y-167705388D01*
X169830478Y-167705389D01*
X170000745Y-167764968D01*
X170000750Y-167764969D01*
X170179996Y-167785165D01*
X170180000Y-167785165D01*
X170180004Y-167785165D01*
X170359249Y-167764969D01*
X170359252Y-167764968D01*
X170359255Y-167764968D01*
X170529522Y-167705389D01*
X170682262Y-167609416D01*
X170809816Y-167481862D01*
X170905789Y-167329122D01*
X170965368Y-167158855D01*
X170981877Y-167012331D01*
X170985565Y-166979603D01*
X170985565Y-166979596D01*
X170965369Y-166800350D01*
X170965368Y-166800345D01*
X170905788Y-166630076D01*
X170809815Y-166477337D01*
X170682262Y-166349784D01*
X170529523Y-166253811D01*
X170359254Y-166194231D01*
X170359249Y-166194230D01*
X170180004Y-166174035D01*
X170179996Y-166174035D01*
X170000750Y-166194230D01*
X170000745Y-166194231D01*
X169830476Y-166253811D01*
X169677737Y-166349784D01*
X169594341Y-166433181D01*
X169533018Y-166466666D01*
X169506660Y-166469500D01*
X168309000Y-166469500D01*
X168241961Y-166449815D01*
X168196206Y-166397011D01*
X168185000Y-166345500D01*
X168185000Y-165750000D01*
X165915000Y-165750000D01*
X165915000Y-166345500D01*
X165895315Y-166412539D01*
X165842511Y-166458294D01*
X165791000Y-166469500D01*
X165309000Y-166469500D01*
X165241961Y-166449815D01*
X165196206Y-166397011D01*
X165185000Y-166345500D01*
X165185000Y-165750000D01*
X162915000Y-165750000D01*
X162915000Y-166345500D01*
X162895315Y-166412539D01*
X162842511Y-166458294D01*
X162791000Y-166469500D01*
X162309500Y-166469500D01*
X162242461Y-166449815D01*
X162196706Y-166397011D01*
X162185500Y-166345500D01*
X162185499Y-165265096D01*
X162205183Y-165198057D01*
X162221813Y-165177420D01*
X162703320Y-164695914D01*
X162764642Y-164662430D01*
X162834334Y-164667414D01*
X162890267Y-164709286D01*
X162914684Y-164774750D01*
X162915000Y-164783596D01*
X162915000Y-165250000D01*
X165185000Y-165250000D01*
X165185000Y-164224500D01*
X165204685Y-164157461D01*
X165257489Y-164111706D01*
X165309000Y-164100500D01*
X165791000Y-164100500D01*
X165858039Y-164120185D01*
X165903794Y-164172989D01*
X165915000Y-164224500D01*
X165915000Y-165250000D01*
X168185000Y-165250000D01*
X168185000Y-164224500D01*
X168204685Y-164157461D01*
X168257489Y-164111706D01*
X168309000Y-164100500D01*
X176417588Y-164100500D01*
X176484627Y-164120185D01*
X176494903Y-164127555D01*
X176497736Y-164129814D01*
X176497738Y-164129816D01*
X176580992Y-164182128D01*
X176648426Y-164224500D01*
X176650478Y-164225789D01*
X176731452Y-164254123D01*
X176820745Y-164285368D01*
X176820750Y-164285369D01*
X176999996Y-164305565D01*
X177000000Y-164305565D01*
X177000004Y-164305565D01*
X177179249Y-164285369D01*
X177179252Y-164285368D01*
X177179255Y-164285368D01*
X177349522Y-164225789D01*
X177502262Y-164129816D01*
X177629816Y-164002262D01*
X177725789Y-163849522D01*
X177785368Y-163679255D01*
X177785369Y-163679249D01*
X177805565Y-163500003D01*
X177805565Y-163499996D01*
X177785369Y-163320750D01*
X177785368Y-163320745D01*
X177739043Y-163188355D01*
X177725789Y-163150478D01*
X177629816Y-162997738D01*
X177502262Y-162870184D01*
X177349523Y-162774211D01*
X177179254Y-162714631D01*
X177179249Y-162714630D01*
X177000004Y-162694435D01*
X176999996Y-162694435D01*
X176820750Y-162714630D01*
X176820745Y-162714631D01*
X176650476Y-162774211D01*
X176497736Y-162870185D01*
X176494903Y-162872445D01*
X176492724Y-162873334D01*
X176491842Y-162873889D01*
X176491744Y-162873734D01*
X176430217Y-162898855D01*
X176417588Y-162899500D01*
X163129057Y-162899500D01*
X162970943Y-162899500D01*
X162818215Y-162940423D01*
X162818214Y-162940423D01*
X162818212Y-162940424D01*
X162818209Y-162940425D01*
X162783066Y-162960716D01*
X162783064Y-162960717D01*
X162681290Y-163019475D01*
X162681282Y-163019481D01*
X162569478Y-163131286D01*
X161974378Y-163726385D01*
X161913055Y-163759870D01*
X161843364Y-163754886D01*
X161792482Y-163735908D01*
X161792483Y-163735908D01*
X161732883Y-163729501D01*
X161732881Y-163729500D01*
X161732873Y-163729500D01*
X161732865Y-163729500D01*
X161018463Y-163729500D01*
X160951424Y-163709815D01*
X160905669Y-163657011D01*
X160895243Y-163591617D01*
X160905565Y-163500003D01*
X160905565Y-163499996D01*
X160885369Y-163320750D01*
X160885368Y-163320745D01*
X160839043Y-163188355D01*
X160825789Y-163150478D01*
X160729816Y-162997738D01*
X160602262Y-162870184D01*
X160449523Y-162774211D01*
X160279254Y-162714631D01*
X160279249Y-162714630D01*
X160100004Y-162694435D01*
X160099996Y-162694435D01*
X159920750Y-162714630D01*
X159920745Y-162714631D01*
X159750476Y-162774211D01*
X159597736Y-162870185D01*
X159594903Y-162872445D01*
X159592724Y-162873334D01*
X159591842Y-162873889D01*
X159591744Y-162873734D01*
X159530217Y-162898855D01*
X159517588Y-162899500D01*
X157129057Y-162899500D01*
X156970943Y-162899500D01*
X156818215Y-162940423D01*
X156818214Y-162940423D01*
X156818212Y-162940424D01*
X156818209Y-162940425D01*
X156783066Y-162960716D01*
X156783064Y-162960717D01*
X156681290Y-163019475D01*
X156681282Y-163019481D01*
X156569478Y-163131286D01*
X156005961Y-163694802D01*
X155944638Y-163728287D01*
X155874946Y-163723303D01*
X155819013Y-163681431D01*
X155794596Y-163615967D01*
X155795060Y-163593237D01*
X155805565Y-163500002D01*
X155805565Y-163499996D01*
X155785369Y-163320750D01*
X155785368Y-163320745D01*
X155739043Y-163188355D01*
X155725789Y-163150478D01*
X155629816Y-162997738D01*
X155502262Y-162870184D01*
X155349523Y-162774211D01*
X155179254Y-162714631D01*
X155179249Y-162714630D01*
X155000004Y-162694435D01*
X154999996Y-162694435D01*
X154820750Y-162714630D01*
X154820745Y-162714631D01*
X154650476Y-162774211D01*
X154497736Y-162870185D01*
X154494903Y-162872445D01*
X154492724Y-162873334D01*
X154491842Y-162873889D01*
X154491744Y-162873734D01*
X154430217Y-162898855D01*
X154417588Y-162899500D01*
X154129057Y-162899500D01*
X153970943Y-162899500D01*
X153818215Y-162940423D01*
X153818214Y-162940423D01*
X153818212Y-162940424D01*
X153818209Y-162940425D01*
X153783066Y-162960716D01*
X153783064Y-162960717D01*
X153681290Y-163019475D01*
X153681282Y-163019481D01*
X153569478Y-163131286D01*
X152974378Y-163726385D01*
X152913055Y-163759870D01*
X152843364Y-163754886D01*
X152792482Y-163735908D01*
X152792483Y-163735908D01*
X152732883Y-163729501D01*
X152732881Y-163729500D01*
X152732873Y-163729500D01*
X152732865Y-163729500D01*
X151418462Y-163729500D01*
X151351423Y-163709815D01*
X151305668Y-163657011D01*
X151295242Y-163591616D01*
X151296407Y-163581284D01*
X151305565Y-163500000D01*
X151303476Y-163481463D01*
X151285369Y-163320750D01*
X151285368Y-163320745D01*
X151239043Y-163188355D01*
X151225789Y-163150478D01*
X151129816Y-162997738D01*
X151002262Y-162870184D01*
X150849523Y-162774211D01*
X150679254Y-162714631D01*
X150679249Y-162714630D01*
X150500004Y-162694435D01*
X150499996Y-162694435D01*
X150320750Y-162714630D01*
X150320745Y-162714631D01*
X150150476Y-162774211D01*
X149997737Y-162870184D01*
X149870184Y-162997737D01*
X149774210Y-163150478D01*
X149714630Y-163320750D01*
X149704837Y-163407668D01*
X149677770Y-163472082D01*
X149669298Y-163481465D01*
X149457582Y-163693181D01*
X149396259Y-163726666D01*
X149369901Y-163729500D01*
X148367129Y-163729500D01*
X148367123Y-163729501D01*
X148307516Y-163735908D01*
X148172671Y-163786202D01*
X148172664Y-163786206D01*
X148057455Y-163872452D01*
X148057452Y-163872455D01*
X147971206Y-163987664D01*
X147971202Y-163987671D01*
X147920908Y-164122517D01*
X147915482Y-164172989D01*
X147914501Y-164182123D01*
X147914500Y-164182135D01*
X147185499Y-164182135D01*
X147185499Y-164182128D01*
X147179091Y-164122517D01*
X147154005Y-164055260D01*
X147149022Y-163985570D01*
X147165195Y-163945955D01*
X147225789Y-163849522D01*
X147285368Y-163679255D01*
X147285369Y-163679249D01*
X147305565Y-163500003D01*
X147305565Y-163499996D01*
X147285369Y-163320750D01*
X147285368Y-163320745D01*
X147239043Y-163188355D01*
X147225789Y-163150478D01*
X147129816Y-162997738D01*
X147002262Y-162870184D01*
X146849523Y-162774211D01*
X146679254Y-162714631D01*
X146679249Y-162714630D01*
X146500004Y-162694435D01*
X146499996Y-162694435D01*
X146320750Y-162714630D01*
X146320745Y-162714631D01*
X146150476Y-162774211D01*
X145997737Y-162870184D01*
X145870184Y-162997737D01*
X145774210Y-163150478D01*
X145714630Y-163320750D01*
X145704837Y-163407668D01*
X145677770Y-163472082D01*
X145669299Y-163481465D01*
X145569477Y-163581287D01*
X145525871Y-163656817D01*
X145525866Y-163656826D01*
X145519697Y-163667509D01*
X145469126Y-163715720D01*
X145412318Y-163729500D01*
X145367131Y-163729500D01*
X145367123Y-163729501D01*
X145307516Y-163735908D01*
X145172671Y-163786202D01*
X145172664Y-163786206D01*
X145057455Y-163872452D01*
X145057452Y-163872455D01*
X144971206Y-163987664D01*
X144971202Y-163987671D01*
X144920908Y-164122517D01*
X144915482Y-164172989D01*
X144914501Y-164182123D01*
X144914500Y-164182135D01*
X144185499Y-164182135D01*
X144185499Y-164182128D01*
X144179091Y-164122517D01*
X144178221Y-164120185D01*
X144128797Y-163987671D01*
X144128793Y-163987664D01*
X144042547Y-163872455D01*
X144042544Y-163872452D01*
X143927335Y-163786206D01*
X143927328Y-163786202D01*
X143792482Y-163735908D01*
X143792483Y-163735908D01*
X143732883Y-163729501D01*
X143732881Y-163729500D01*
X143732873Y-163729500D01*
X143732865Y-163729500D01*
X143687684Y-163729500D01*
X143620645Y-163709815D01*
X143580298Y-163667501D01*
X143574130Y-163656818D01*
X143574129Y-163656817D01*
X143530522Y-163581287D01*
X143530521Y-163581286D01*
X143530520Y-163581284D01*
X143430699Y-163481463D01*
X143397215Y-163420140D01*
X143395161Y-163407664D01*
X143385369Y-163320747D01*
X143325789Y-163150478D01*
X143274895Y-163069481D01*
X143229816Y-162997738D01*
X143102262Y-162870184D01*
X142949523Y-162774211D01*
X142779254Y-162714631D01*
X142779249Y-162714630D01*
X142600004Y-162694435D01*
X142599996Y-162694435D01*
X142420750Y-162714630D01*
X142420745Y-162714631D01*
X142250476Y-162774211D01*
X142097737Y-162870184D01*
X141970184Y-162997737D01*
X141874211Y-163150476D01*
X141814631Y-163320745D01*
X141814630Y-163320750D01*
X141794435Y-163499996D01*
X138899231Y-163499996D01*
X138587590Y-163188355D01*
X138587588Y-163188352D01*
X138468717Y-163069481D01*
X138468709Y-163069475D01*
X138366936Y-163010717D01*
X138366934Y-163010716D01*
X138331790Y-162990425D01*
X138331789Y-162990424D01*
X138319263Y-162987067D01*
X138179057Y-162949499D01*
X138179054Y-162949499D01*
X138082411Y-162949499D01*
X138015372Y-162929814D01*
X138005097Y-162922445D01*
X138002262Y-162920184D01*
X137849523Y-162824211D01*
X137679254Y-162764631D01*
X137679249Y-162764630D01*
X137500004Y-162744435D01*
X137499996Y-162744435D01*
X137320750Y-162764630D01*
X137320745Y-162764631D01*
X137150476Y-162824211D01*
X136997737Y-162920184D01*
X136870184Y-163047737D01*
X136774211Y-163200476D01*
X136714631Y-163370745D01*
X136714630Y-163370750D01*
X136694435Y-163549996D01*
X136699124Y-163591618D01*
X136687068Y-163660440D01*
X136639718Y-163711819D01*
X136575904Y-163729500D01*
X136367130Y-163729500D01*
X136367123Y-163729501D01*
X136307516Y-163735908D01*
X136172671Y-163786202D01*
X136172664Y-163786206D01*
X136057455Y-163872452D01*
X136057452Y-163872455D01*
X135971206Y-163987664D01*
X135971202Y-163987671D01*
X135920908Y-164122517D01*
X135915482Y-164172989D01*
X135914501Y-164182123D01*
X135914500Y-164182135D01*
X135914500Y-164775500D01*
X135894815Y-164842539D01*
X135842011Y-164888294D01*
X135790500Y-164899500D01*
X132474597Y-164899500D01*
X132407558Y-164879815D01*
X132361803Y-164827011D01*
X132351377Y-164789383D01*
X132348639Y-164765090D01*
X132347868Y-164758245D01*
X132288289Y-164587978D01*
X132192316Y-164435238D01*
X132064762Y-164307684D01*
X132029248Y-164285369D01*
X131912023Y-164211711D01*
X131741754Y-164152131D01*
X131741749Y-164152130D01*
X131562504Y-164131935D01*
X131562496Y-164131935D01*
X131383250Y-164152130D01*
X131383245Y-164152131D01*
X131212976Y-164211711D01*
X131060237Y-164307684D01*
X130932684Y-164435237D01*
X130836711Y-164587976D01*
X130777131Y-164758245D01*
X130777130Y-164758250D01*
X130756935Y-164937496D01*
X125000500Y-164937496D01*
X125000500Y-135574996D01*
X130769435Y-135574996D01*
X130769435Y-135575003D01*
X130789630Y-135754249D01*
X130789631Y-135754254D01*
X130849211Y-135924523D01*
X130918860Y-136035368D01*
X130945184Y-136077262D01*
X131072738Y-136204816D01*
X131225478Y-136300789D01*
X131395745Y-136360368D01*
X131482669Y-136370161D01*
X131547080Y-136397226D01*
X131556464Y-136405699D01*
X132079948Y-136929184D01*
X132601106Y-137450342D01*
X132614260Y-137467484D01*
X132614536Y-137467273D01*
X132619477Y-137473713D01*
X132619479Y-137473715D01*
X132619480Y-137473716D01*
X132731284Y-137585520D01*
X132731285Y-137585520D01*
X132738352Y-137592587D01*
X132738351Y-137592587D01*
X132738355Y-137592590D01*
X135780139Y-140634374D01*
X135780149Y-140634385D01*
X135784479Y-140638715D01*
X135784480Y-140638716D01*
X135896284Y-140750520D01*
X135983095Y-140800639D01*
X135983097Y-140800641D01*
X136021151Y-140822611D01*
X136033215Y-140829577D01*
X136185943Y-140870501D01*
X136185946Y-140870501D01*
X136351653Y-140870501D01*
X136351669Y-140870500D01*
X138543331Y-140870500D01*
X138543347Y-140870501D01*
X138550943Y-140870501D01*
X138709054Y-140870501D01*
X138709057Y-140870501D01*
X138861785Y-140829577D01*
X138911904Y-140800639D01*
X138998716Y-140750520D01*
X139110520Y-140638716D01*
X139110520Y-140638714D01*
X139120728Y-140628507D01*
X139120730Y-140628504D01*
X139275621Y-140473612D01*
X139336942Y-140440129D01*
X139406633Y-140445113D01*
X139457517Y-140464091D01*
X139457516Y-140464091D01*
X139464444Y-140464835D01*
X139517127Y-140470500D01*
X140882872Y-140470499D01*
X140942483Y-140464091D01*
X141077331Y-140413796D01*
X141192546Y-140327546D01*
X141278796Y-140212331D01*
X141329091Y-140077483D01*
X141335500Y-140017873D01*
X141335499Y-137984095D01*
X141355184Y-137917057D01*
X141407987Y-137871302D01*
X141477146Y-137861358D01*
X141540702Y-137890383D01*
X141547180Y-137896415D01*
X142028181Y-138377416D01*
X142061666Y-138438739D01*
X142064500Y-138465097D01*
X142064500Y-140017870D01*
X142064501Y-140017876D01*
X142070908Y-140077483D01*
X142121202Y-140212328D01*
X142121206Y-140212335D01*
X142207452Y-140327544D01*
X142207455Y-140327547D01*
X142322664Y-140413793D01*
X142322671Y-140413797D01*
X142457517Y-140464091D01*
X142457516Y-140464091D01*
X142464444Y-140464835D01*
X142517127Y-140470500D01*
X143882872Y-140470499D01*
X143942483Y-140464091D01*
X144077331Y-140413796D01*
X144192546Y-140327546D01*
X144278796Y-140212331D01*
X144329091Y-140077483D01*
X144335500Y-140017873D01*
X144335499Y-137884095D01*
X144355184Y-137817057D01*
X144407987Y-137771302D01*
X144477146Y-137761358D01*
X144540702Y-137790383D01*
X144547180Y-137796415D01*
X145028181Y-138277416D01*
X145061666Y-138338739D01*
X145064500Y-138365097D01*
X145064500Y-140017870D01*
X145064501Y-140017876D01*
X145070908Y-140077483D01*
X145121202Y-140212328D01*
X145121206Y-140212335D01*
X145207452Y-140327544D01*
X145207455Y-140327547D01*
X145322664Y-140413793D01*
X145322671Y-140413797D01*
X145457517Y-140464091D01*
X145457516Y-140464091D01*
X145464444Y-140464835D01*
X145517127Y-140470500D01*
X146882872Y-140470499D01*
X146942483Y-140464091D01*
X147077331Y-140413796D01*
X147192546Y-140327546D01*
X147278796Y-140212331D01*
X147329091Y-140077483D01*
X147335500Y-140017873D01*
X147335499Y-137384095D01*
X147355184Y-137317057D01*
X147407987Y-137271302D01*
X147477146Y-137261358D01*
X147540702Y-137290383D01*
X147547180Y-137296415D01*
X148028181Y-137777416D01*
X148061666Y-137838739D01*
X148064500Y-137865097D01*
X148064500Y-140017870D01*
X148064501Y-140017876D01*
X148070908Y-140077483D01*
X148121202Y-140212328D01*
X148121206Y-140212335D01*
X148207452Y-140327544D01*
X148207455Y-140327547D01*
X148322664Y-140413793D01*
X148322671Y-140413797D01*
X148457517Y-140464091D01*
X148457516Y-140464091D01*
X148464444Y-140464835D01*
X148517127Y-140470500D01*
X149882872Y-140470499D01*
X149942483Y-140464091D01*
X150077331Y-140413796D01*
X150192546Y-140327546D01*
X150278796Y-140212331D01*
X150329091Y-140077483D01*
X150335500Y-140017873D01*
X150335499Y-137382128D01*
X150329091Y-137322517D01*
X150306280Y-137261358D01*
X150278797Y-137187671D01*
X150278793Y-137187664D01*
X150192547Y-137072455D01*
X150192544Y-137072452D01*
X150077335Y-136986206D01*
X150077328Y-136986202D01*
X149942482Y-136935908D01*
X149942483Y-136935908D01*
X149882883Y-136929501D01*
X149882881Y-136929500D01*
X149882873Y-136929500D01*
X149882865Y-136929500D01*
X148930098Y-136929500D01*
X148863059Y-136909815D01*
X148842417Y-136893181D01*
X147449231Y-135499996D01*
X150794435Y-135499996D01*
X150794435Y-135500003D01*
X150814630Y-135679249D01*
X150814631Y-135679254D01*
X150874211Y-135849523D01*
X150921337Y-135924523D01*
X150970184Y-136002262D01*
X151097738Y-136129816D01*
X151250478Y-136225789D01*
X151420745Y-136285368D01*
X151489384Y-136293101D01*
X151553796Y-136320166D01*
X151593352Y-136377760D01*
X151599500Y-136416321D01*
X151599500Y-136809261D01*
X151579815Y-136876300D01*
X151527011Y-136922055D01*
X151488754Y-136932551D01*
X151457516Y-136935909D01*
X151322671Y-136986202D01*
X151322664Y-136986206D01*
X151207455Y-137072452D01*
X151207452Y-137072455D01*
X151121206Y-137187664D01*
X151121202Y-137187671D01*
X151070908Y-137322517D01*
X151064501Y-137382116D01*
X151064501Y-137382123D01*
X151064500Y-137382135D01*
X151064500Y-140017870D01*
X151064501Y-140017876D01*
X151070908Y-140077483D01*
X151121202Y-140212328D01*
X151121206Y-140212335D01*
X151207452Y-140327544D01*
X151207455Y-140327547D01*
X151322664Y-140413793D01*
X151322671Y-140413797D01*
X151457517Y-140464091D01*
X151457516Y-140464091D01*
X151464444Y-140464835D01*
X151517127Y-140470500D01*
X152882872Y-140470499D01*
X152942483Y-140464091D01*
X153077331Y-140413796D01*
X153192546Y-140327546D01*
X153278796Y-140212331D01*
X153329091Y-140077483D01*
X153335500Y-140017873D01*
X153335499Y-137382135D01*
X154064500Y-137382135D01*
X154064500Y-140017870D01*
X154064501Y-140017876D01*
X154070908Y-140077483D01*
X154121202Y-140212328D01*
X154121206Y-140212335D01*
X154207452Y-140327544D01*
X154207455Y-140327547D01*
X154322664Y-140413793D01*
X154322671Y-140413797D01*
X154457517Y-140464091D01*
X154457516Y-140464091D01*
X154464444Y-140464835D01*
X154517127Y-140470500D01*
X155882872Y-140470499D01*
X155942483Y-140464091D01*
X156077331Y-140413796D01*
X156192546Y-140327546D01*
X156278796Y-140212331D01*
X156329091Y-140077483D01*
X156335500Y-140017873D01*
X156335499Y-137382135D01*
X157064500Y-137382135D01*
X157064500Y-140017870D01*
X157064501Y-140017876D01*
X157070908Y-140077483D01*
X157121202Y-140212328D01*
X157121206Y-140212335D01*
X157207452Y-140327544D01*
X157207455Y-140327547D01*
X157322664Y-140413793D01*
X157322671Y-140413797D01*
X157457517Y-140464091D01*
X157457516Y-140464091D01*
X157464444Y-140464835D01*
X157517127Y-140470500D01*
X158882872Y-140470499D01*
X158942483Y-140464091D01*
X159077331Y-140413796D01*
X159192546Y-140327546D01*
X159278796Y-140212331D01*
X159329091Y-140077483D01*
X159335500Y-140017873D01*
X159335500Y-139424500D01*
X159355185Y-139357461D01*
X159407989Y-139311706D01*
X159459500Y-139300500D01*
X159813331Y-139300500D01*
X159813347Y-139300501D01*
X159820943Y-139300501D01*
X159979054Y-139300501D01*
X159979057Y-139300501D01*
X160131785Y-139259577D01*
X160181904Y-139230639D01*
X160268716Y-139180520D01*
X160380520Y-139068716D01*
X160380520Y-139068714D01*
X160390728Y-139058507D01*
X160390730Y-139058504D01*
X163118535Y-136330698D01*
X163179856Y-136297215D01*
X163192311Y-136295163D01*
X163279255Y-136285368D01*
X163449522Y-136225789D01*
X163602262Y-136129816D01*
X163729816Y-136002262D01*
X163825789Y-135849522D01*
X163885368Y-135679255D01*
X163888185Y-135654254D01*
X163905565Y-135500003D01*
X163905565Y-135499996D01*
X163885369Y-135320750D01*
X163885368Y-135320745D01*
X163858812Y-135244852D01*
X163825789Y-135150478D01*
X163810080Y-135125478D01*
X163776941Y-135072737D01*
X163729816Y-134997738D01*
X163602262Y-134870184D01*
X163562475Y-134845184D01*
X163449523Y-134774211D01*
X163279254Y-134714631D01*
X163279249Y-134714630D01*
X163100004Y-134694435D01*
X163099996Y-134694435D01*
X162920750Y-134714630D01*
X162920745Y-134714631D01*
X162750476Y-134774211D01*
X162597737Y-134870184D01*
X162470184Y-134997737D01*
X162374210Y-135150478D01*
X162314630Y-135320750D01*
X162304837Y-135407668D01*
X162277770Y-135472082D01*
X162269298Y-135481465D01*
X159687584Y-138063181D01*
X159626261Y-138096666D01*
X159599903Y-138099500D01*
X159459499Y-138099500D01*
X159392460Y-138079815D01*
X159346705Y-138027011D01*
X159335499Y-137975500D01*
X159335499Y-137382129D01*
X159335498Y-137382123D01*
X159335497Y-137382116D01*
X159329091Y-137322517D01*
X159306280Y-137261358D01*
X159278797Y-137187671D01*
X159278793Y-137187664D01*
X159192547Y-137072455D01*
X159192544Y-137072452D01*
X159077335Y-136986206D01*
X159077328Y-136986202D01*
X158942482Y-136935908D01*
X158942483Y-136935908D01*
X158882883Y-136929501D01*
X158882881Y-136929500D01*
X158882873Y-136929500D01*
X158882864Y-136929500D01*
X157517129Y-136929500D01*
X157517123Y-136929501D01*
X157457516Y-136935908D01*
X157322671Y-136986202D01*
X157322664Y-136986206D01*
X157207455Y-137072452D01*
X157207452Y-137072455D01*
X157121206Y-137187664D01*
X157121202Y-137187671D01*
X157070908Y-137322517D01*
X157064501Y-137382116D01*
X157064501Y-137382123D01*
X157064500Y-137382135D01*
X156335499Y-137382135D01*
X156335499Y-137382128D01*
X156329091Y-137322517D01*
X156306280Y-137261358D01*
X156278797Y-137187671D01*
X156278793Y-137187664D01*
X156192547Y-137072455D01*
X156192544Y-137072452D01*
X156077335Y-136986206D01*
X156077328Y-136986202D01*
X155942482Y-136935908D01*
X155942484Y-136935908D01*
X155911244Y-136932550D01*
X155846693Y-136905812D01*
X155806845Y-136848419D01*
X155800500Y-136809261D01*
X155800500Y-136082412D01*
X155820185Y-136015373D01*
X155827555Y-136005097D01*
X155829810Y-136002267D01*
X155829816Y-136002262D01*
X155925789Y-135849522D01*
X155985368Y-135679255D01*
X155988185Y-135654254D01*
X156005565Y-135500003D01*
X156005565Y-135499996D01*
X155985369Y-135320750D01*
X155985368Y-135320745D01*
X155958812Y-135244852D01*
X155925789Y-135150478D01*
X155910080Y-135125478D01*
X155876941Y-135072737D01*
X155829816Y-134997738D01*
X155702262Y-134870184D01*
X155662475Y-134845184D01*
X155549523Y-134774211D01*
X155379254Y-134714631D01*
X155379249Y-134714630D01*
X155200004Y-134694435D01*
X155199996Y-134694435D01*
X155020750Y-134714630D01*
X155020745Y-134714631D01*
X154850476Y-134774211D01*
X154697737Y-134870184D01*
X154570184Y-134997737D01*
X154474211Y-135150476D01*
X154414631Y-135320745D01*
X154414630Y-135320750D01*
X154394435Y-135499996D01*
X154394435Y-135500003D01*
X154414630Y-135679249D01*
X154414631Y-135679254D01*
X154474211Y-135849523D01*
X154521337Y-135924522D01*
X154554475Y-135977262D01*
X154570185Y-136002263D01*
X154572445Y-136005097D01*
X154573334Y-136007275D01*
X154573889Y-136008158D01*
X154573734Y-136008255D01*
X154598855Y-136069783D01*
X154599500Y-136082412D01*
X154599500Y-136809261D01*
X154579815Y-136876300D01*
X154527011Y-136922055D01*
X154488754Y-136932551D01*
X154457516Y-136935909D01*
X154322671Y-136986202D01*
X154322664Y-136986206D01*
X154207455Y-137072452D01*
X154207452Y-137072455D01*
X154121206Y-137187664D01*
X154121202Y-137187671D01*
X154070908Y-137322517D01*
X154064501Y-137382116D01*
X154064501Y-137382123D01*
X154064500Y-137382135D01*
X153335499Y-137382135D01*
X153335499Y-137382128D01*
X153329091Y-137322517D01*
X153306280Y-137261358D01*
X153278797Y-137187671D01*
X153278793Y-137187664D01*
X153192547Y-137072455D01*
X153192544Y-137072452D01*
X153077335Y-136986206D01*
X153077328Y-136986202D01*
X152942482Y-136935908D01*
X152942484Y-136935908D01*
X152911244Y-136932550D01*
X152846693Y-136905812D01*
X152806845Y-136848419D01*
X152800500Y-136809261D01*
X152800500Y-136020945D01*
X152800500Y-136020943D01*
X152770647Y-135909530D01*
X152759577Y-135868215D01*
X152714005Y-135789283D01*
X152680520Y-135731284D01*
X152568716Y-135619480D01*
X152568715Y-135619479D01*
X152564385Y-135615149D01*
X152564374Y-135615139D01*
X152430700Y-135481465D01*
X152397215Y-135420142D01*
X152395163Y-135407686D01*
X152385368Y-135320745D01*
X152325789Y-135150478D01*
X152229816Y-134997738D01*
X152102262Y-134870184D01*
X152062475Y-134845184D01*
X151949523Y-134774211D01*
X151779254Y-134714631D01*
X151779249Y-134714630D01*
X151600004Y-134694435D01*
X151599996Y-134694435D01*
X151420750Y-134714630D01*
X151420745Y-134714631D01*
X151250476Y-134774211D01*
X151097737Y-134870184D01*
X150970184Y-134997737D01*
X150874211Y-135150476D01*
X150814631Y-135320745D01*
X150814630Y-135320750D01*
X150794435Y-135499996D01*
X147449231Y-135499996D01*
X147405700Y-135456465D01*
X147372215Y-135395142D01*
X147370163Y-135382686D01*
X147360368Y-135295745D01*
X147300789Y-135125478D01*
X147204816Y-134972738D01*
X147077262Y-134845184D01*
X146988852Y-134789632D01*
X146924523Y-134749211D01*
X146754254Y-134689631D01*
X146754249Y-134689630D01*
X146575004Y-134669435D01*
X146574996Y-134669435D01*
X146395750Y-134689630D01*
X146395745Y-134689631D01*
X146225476Y-134749211D01*
X146072737Y-134845184D01*
X145945184Y-134972737D01*
X145849211Y-135125476D01*
X145789631Y-135295745D01*
X145789630Y-135295750D01*
X145769435Y-135474996D01*
X145769435Y-135475003D01*
X145789630Y-135654249D01*
X145789631Y-135654254D01*
X145849211Y-135824523D01*
X145902625Y-135909530D01*
X145945184Y-135977262D01*
X146072738Y-136104816D01*
X146225478Y-136200789D01*
X146395745Y-136260368D01*
X146482669Y-136270161D01*
X146547080Y-136297226D01*
X146556465Y-136305700D01*
X146968584Y-136717819D01*
X147002069Y-136779142D01*
X146997085Y-136848834D01*
X146955213Y-136904767D01*
X146889749Y-136929184D01*
X146880903Y-136929500D01*
X145517129Y-136929500D01*
X145517118Y-136929501D01*
X145451150Y-136936592D01*
X145382391Y-136924184D01*
X145350218Y-136900983D01*
X143680700Y-135231465D01*
X143647215Y-135170142D01*
X143645163Y-135157686D01*
X143635368Y-135070745D01*
X143575789Y-134900478D01*
X143479816Y-134747738D01*
X143352262Y-134620184D01*
X143199523Y-134524211D01*
X143029254Y-134464631D01*
X143029249Y-134464630D01*
X142850004Y-134444435D01*
X142849996Y-134444435D01*
X142670750Y-134464630D01*
X142670745Y-134464631D01*
X142500476Y-134524211D01*
X142347737Y-134620184D01*
X142220184Y-134747737D01*
X142124211Y-134900476D01*
X142064631Y-135070745D01*
X142064630Y-135070750D01*
X142044435Y-135249996D01*
X142044435Y-135250003D01*
X142064630Y-135429249D01*
X142064631Y-135429254D01*
X142124211Y-135599523D01*
X142207003Y-135731284D01*
X142220184Y-135752262D01*
X142347738Y-135879816D01*
X142500478Y-135975789D01*
X142670745Y-136035368D01*
X142757669Y-136045161D01*
X142822080Y-136072226D01*
X142831465Y-136080700D01*
X143468584Y-136717819D01*
X143502069Y-136779142D01*
X143497085Y-136848834D01*
X143455213Y-136904767D01*
X143389749Y-136929184D01*
X143380903Y-136929500D01*
X142517129Y-136929500D01*
X142517123Y-136929501D01*
X142457518Y-136935908D01*
X142406632Y-136954887D01*
X142336940Y-136959870D01*
X142275620Y-136926385D01*
X140487590Y-135138355D01*
X140487588Y-135138352D01*
X140368717Y-135019481D01*
X140368716Y-135019480D01*
X140281904Y-134969360D01*
X140281904Y-134969359D01*
X140281900Y-134969358D01*
X140231785Y-134940423D01*
X140082711Y-134900478D01*
X140079054Y-134899498D01*
X140070997Y-134898438D01*
X140071287Y-134896232D01*
X140015372Y-134879814D01*
X140005097Y-134872445D01*
X140002262Y-134870184D01*
X139849523Y-134774211D01*
X139679254Y-134714631D01*
X139679249Y-134714630D01*
X139500004Y-134694435D01*
X139499996Y-134694435D01*
X139320750Y-134714630D01*
X139320745Y-134714631D01*
X139150476Y-134774211D01*
X138997737Y-134870184D01*
X138870184Y-134997737D01*
X138774211Y-135150476D01*
X138714631Y-135320745D01*
X138714630Y-135320750D01*
X138694435Y-135499996D01*
X138694435Y-135500003D01*
X138714630Y-135679249D01*
X138714631Y-135679254D01*
X138774211Y-135849523D01*
X138821337Y-135924523D01*
X138870184Y-136002262D01*
X138997738Y-136129816D01*
X139088080Y-136186582D01*
X139133875Y-136215357D01*
X139150478Y-136225789D01*
X139249299Y-136260368D01*
X139320745Y-136285368D01*
X139320750Y-136285369D01*
X139499996Y-136305565D01*
X139500000Y-136305565D01*
X139500004Y-136305565D01*
X139679249Y-136285369D01*
X139679252Y-136285368D01*
X139679255Y-136285368D01*
X139679256Y-136285367D01*
X139679259Y-136285367D01*
X139722717Y-136270160D01*
X139796006Y-136244514D01*
X139865782Y-136240952D01*
X139924640Y-136273875D01*
X140368584Y-136717819D01*
X140402069Y-136779142D01*
X140397085Y-136848834D01*
X140355213Y-136904767D01*
X140289749Y-136929184D01*
X140280903Y-136929500D01*
X139517129Y-136929500D01*
X139517123Y-136929501D01*
X139457516Y-136935908D01*
X139322671Y-136986202D01*
X139322664Y-136986206D01*
X139207455Y-137072452D01*
X139207452Y-137072455D01*
X139121206Y-137187664D01*
X139121202Y-137187671D01*
X139070908Y-137322517D01*
X139064501Y-137382116D01*
X139064501Y-137382123D01*
X139064500Y-137382135D01*
X139064500Y-138934902D01*
X139044815Y-139001941D01*
X139028181Y-139022583D01*
X138547180Y-139503583D01*
X138485857Y-139537068D01*
X138416165Y-139532084D01*
X138360232Y-139490212D01*
X138335815Y-139424748D01*
X138335499Y-139415926D01*
X138335499Y-137382128D01*
X138329091Y-137322517D01*
X138306280Y-137261358D01*
X138278797Y-137187671D01*
X138278793Y-137187664D01*
X138192547Y-137072455D01*
X138192544Y-137072452D01*
X138077335Y-136986206D01*
X138077328Y-136986202D01*
X137942482Y-136935908D01*
X137942483Y-136935908D01*
X137882883Y-136929501D01*
X137882881Y-136929500D01*
X137882873Y-136929500D01*
X137882864Y-136929500D01*
X136517129Y-136929500D01*
X136517123Y-136929501D01*
X136457516Y-136935908D01*
X136322671Y-136986202D01*
X136322664Y-136986206D01*
X136207455Y-137072452D01*
X136207452Y-137072455D01*
X136121206Y-137187664D01*
X136121202Y-137187671D01*
X136070908Y-137322517D01*
X136064501Y-137382116D01*
X136064501Y-137382123D01*
X136064500Y-137382135D01*
X136064500Y-138920903D01*
X136044815Y-138987942D01*
X135992011Y-139033697D01*
X135922853Y-139043641D01*
X135859297Y-139014616D01*
X135852819Y-139008584D01*
X133598896Y-136754661D01*
X133585745Y-136737523D01*
X133585470Y-136737735D01*
X133580518Y-136731282D01*
X133050025Y-136200789D01*
X132405699Y-135556464D01*
X132372215Y-135495142D01*
X132370163Y-135482686D01*
X132360368Y-135395745D01*
X132300789Y-135225478D01*
X132204816Y-135072738D01*
X132077262Y-134945184D01*
X132004555Y-134899499D01*
X131924523Y-134849211D01*
X131754254Y-134789631D01*
X131754249Y-134789630D01*
X131575004Y-134769435D01*
X131574996Y-134769435D01*
X131395750Y-134789630D01*
X131395745Y-134789631D01*
X131225476Y-134849211D01*
X131072737Y-134945184D01*
X130945184Y-135072737D01*
X130849211Y-135225476D01*
X130789631Y-135395745D01*
X130789630Y-135395750D01*
X130769435Y-135574996D01*
X125000500Y-135574996D01*
X125000500Y-133885444D01*
X133594500Y-133885444D01*
X133594500Y-134114555D01*
X133630338Y-134340830D01*
X133701136Y-134558722D01*
X133805147Y-134762851D01*
X133939801Y-134948188D01*
X133939805Y-134948193D01*
X134101806Y-135110194D01*
X134101811Y-135110198D01*
X134167146Y-135157666D01*
X134287152Y-135244855D01*
X134387025Y-135295743D01*
X134491277Y-135348863D01*
X134491279Y-135348863D01*
X134491282Y-135348865D01*
X134595311Y-135382666D01*
X134709169Y-135419661D01*
X134935445Y-135455500D01*
X134935450Y-135455500D01*
X135164555Y-135455500D01*
X135390830Y-135419661D01*
X135608718Y-135348865D01*
X135812848Y-135244855D01*
X135998195Y-135110193D01*
X136160193Y-134948195D01*
X136294855Y-134762848D01*
X136398865Y-134558718D01*
X136469661Y-134340830D01*
X136505500Y-134114555D01*
X136505500Y-133885444D01*
X136469661Y-133659169D01*
X136398863Y-133441277D01*
X136329713Y-133305565D01*
X136294855Y-133237152D01*
X136216871Y-133129816D01*
X136160198Y-133051811D01*
X136160194Y-133051806D01*
X135998193Y-132889805D01*
X135998188Y-132889801D01*
X135812851Y-132755147D01*
X135812850Y-132755146D01*
X135812848Y-132755145D01*
X135749102Y-132722665D01*
X135608722Y-132651136D01*
X135390830Y-132580338D01*
X135164555Y-132544500D01*
X135164550Y-132544500D01*
X134935450Y-132544500D01*
X134935445Y-132544500D01*
X134709169Y-132580338D01*
X134491277Y-132651136D01*
X134287148Y-132755147D01*
X134101811Y-132889801D01*
X134101806Y-132889805D01*
X133939805Y-133051806D01*
X133939801Y-133051811D01*
X133805147Y-133237148D01*
X133701136Y-133441277D01*
X133630338Y-133659169D01*
X133594500Y-133885444D01*
X125000500Y-133885444D01*
X125000500Y-127982135D01*
X136064500Y-127982135D01*
X136064500Y-130617870D01*
X136064501Y-130617876D01*
X136070908Y-130677483D01*
X136121202Y-130812328D01*
X136121206Y-130812335D01*
X136207452Y-130927544D01*
X136207455Y-130927547D01*
X136322664Y-131013793D01*
X136322671Y-131013797D01*
X136457517Y-131064091D01*
X136457516Y-131064091D01*
X136464444Y-131064835D01*
X136517127Y-131070500D01*
X137882872Y-131070499D01*
X137942483Y-131064091D01*
X137993362Y-131045113D01*
X138063054Y-131040129D01*
X138124375Y-131073611D01*
X139976284Y-132925520D01*
X139976286Y-132925521D01*
X139976290Y-132925524D01*
X140109206Y-133002262D01*
X140113216Y-133004577D01*
X140265943Y-133045501D01*
X140265945Y-133045501D01*
X140431654Y-133045501D01*
X140431670Y-133045500D01*
X159001171Y-133045500D01*
X159068210Y-133065185D01*
X159113965Y-133117989D01*
X159123909Y-133187147D01*
X159106901Y-133234285D01*
X159105149Y-133237143D01*
X159001136Y-133441277D01*
X158930338Y-133659169D01*
X158894500Y-133885444D01*
X158894500Y-134114555D01*
X158930338Y-134340830D01*
X159001136Y-134558722D01*
X159105147Y-134762851D01*
X159239801Y-134948188D01*
X159239805Y-134948193D01*
X159401806Y-135110194D01*
X159401811Y-135110198D01*
X159467146Y-135157666D01*
X159587152Y-135244855D01*
X159687025Y-135295743D01*
X159791277Y-135348863D01*
X159791279Y-135348863D01*
X159791282Y-135348865D01*
X159895311Y-135382666D01*
X160009169Y-135419661D01*
X160235445Y-135455500D01*
X160235450Y-135455500D01*
X160464555Y-135455500D01*
X160690830Y-135419661D01*
X160908718Y-135348865D01*
X161112848Y-135244855D01*
X161298195Y-135110193D01*
X161460193Y-134948195D01*
X161594855Y-134762848D01*
X161698865Y-134558718D01*
X161769661Y-134340830D01*
X161805500Y-134114555D01*
X161805500Y-133885444D01*
X161769661Y-133659169D01*
X161698863Y-133441277D01*
X161594850Y-133237143D01*
X161593099Y-133234285D01*
X161592765Y-133233050D01*
X161592643Y-133232811D01*
X161592693Y-133232785D01*
X161574858Y-133166839D01*
X161595976Y-133100237D01*
X161649750Y-133055626D01*
X161698829Y-133045500D01*
X164862060Y-133045500D01*
X164929099Y-133065185D01*
X164949741Y-133081819D01*
X164997738Y-133129816D01*
X165150478Y-133225789D01*
X165182952Y-133237152D01*
X165320745Y-133285368D01*
X165320750Y-133285369D01*
X165499996Y-133305565D01*
X165500000Y-133305565D01*
X165500004Y-133305565D01*
X165679249Y-133285369D01*
X165679252Y-133285368D01*
X165679255Y-133285368D01*
X165849522Y-133225789D01*
X166002262Y-133129816D01*
X166129816Y-133002262D01*
X166225789Y-132849522D01*
X166285368Y-132679255D01*
X166288537Y-132651136D01*
X166293102Y-132610617D01*
X166320168Y-132546203D01*
X166377763Y-132506648D01*
X166416322Y-132500500D01*
X169817059Y-132500500D01*
X169884098Y-132520185D01*
X169904740Y-132536818D01*
X169997738Y-132629816D01*
X170150478Y-132725789D01*
X170320745Y-132785368D01*
X170320750Y-132785369D01*
X170499996Y-132805565D01*
X170500000Y-132805565D01*
X170500004Y-132805565D01*
X170679249Y-132785369D01*
X170679252Y-132785368D01*
X170679255Y-132785368D01*
X170849522Y-132725789D01*
X171002262Y-132629816D01*
X171129816Y-132502262D01*
X171225789Y-132349522D01*
X171285368Y-132179255D01*
X171290939Y-132129816D01*
X171293102Y-132110617D01*
X171320168Y-132046203D01*
X171377763Y-132006648D01*
X171416322Y-132000500D01*
X174567059Y-132000500D01*
X174634098Y-132020185D01*
X174654740Y-132036818D01*
X174747738Y-132129816D01*
X174900478Y-132225789D01*
X175070745Y-132285368D01*
X175070750Y-132285369D01*
X175249996Y-132305565D01*
X175250000Y-132305565D01*
X175250004Y-132305565D01*
X175429249Y-132285369D01*
X175429252Y-132285368D01*
X175429255Y-132285368D01*
X175599522Y-132225789D01*
X175752262Y-132129816D01*
X175879816Y-132002262D01*
X175975789Y-131849522D01*
X176035368Y-131679255D01*
X176041393Y-131625789D01*
X176043102Y-131610617D01*
X176070168Y-131546203D01*
X176127763Y-131506648D01*
X176166322Y-131500500D01*
X179917588Y-131500500D01*
X179984627Y-131520185D01*
X179994903Y-131527555D01*
X179997736Y-131529814D01*
X179997738Y-131529816D01*
X180150478Y-131625789D01*
X180170569Y-131632819D01*
X180320745Y-131685368D01*
X180320750Y-131685369D01*
X180499996Y-131705565D01*
X180500000Y-131705565D01*
X180500004Y-131705565D01*
X180679249Y-131685369D01*
X180679252Y-131685368D01*
X180679255Y-131685368D01*
X180849522Y-131625789D01*
X181002262Y-131529816D01*
X181129816Y-131402262D01*
X181225789Y-131249522D01*
X181285368Y-131079255D01*
X181286319Y-131070815D01*
X181305565Y-130900003D01*
X181305565Y-130899996D01*
X181285369Y-130720750D01*
X181285368Y-130720745D01*
X181270230Y-130677483D01*
X181225789Y-130550478D01*
X181129816Y-130397738D01*
X181002262Y-130270184D01*
X180849523Y-130174211D01*
X180679254Y-130114631D01*
X180679249Y-130114630D01*
X180500004Y-130094435D01*
X180499996Y-130094435D01*
X180320750Y-130114630D01*
X180320745Y-130114631D01*
X180150476Y-130174211D01*
X179997736Y-130270185D01*
X179994903Y-130272445D01*
X179992724Y-130273334D01*
X179991842Y-130273889D01*
X179991744Y-130273734D01*
X179930217Y-130298855D01*
X179917588Y-130299500D01*
X159459000Y-130299500D01*
X159391961Y-130279815D01*
X159346206Y-130227011D01*
X159335000Y-130175500D01*
X159335000Y-129550000D01*
X157065000Y-129550000D01*
X157065000Y-130175500D01*
X157045315Y-130242539D01*
X156992511Y-130288294D01*
X156941000Y-130299500D01*
X156459000Y-130299500D01*
X156391961Y-130279815D01*
X156346206Y-130227011D01*
X156335000Y-130175500D01*
X156335000Y-129550000D01*
X154065000Y-129550000D01*
X154065000Y-130175500D01*
X154045315Y-130242539D01*
X153992511Y-130288294D01*
X153941000Y-130299500D01*
X153459000Y-130299500D01*
X153391961Y-130279815D01*
X153346206Y-130227011D01*
X153335000Y-130175500D01*
X153335000Y-129550000D01*
X151065000Y-129550000D01*
X151065000Y-130175500D01*
X151045315Y-130242539D01*
X150992511Y-130288294D01*
X150941000Y-130299500D01*
X150459500Y-130299500D01*
X150392461Y-130279815D01*
X150346706Y-130227011D01*
X150335500Y-130175500D01*
X150335499Y-129065097D01*
X150355184Y-128998058D01*
X150371818Y-128977416D01*
X150623446Y-128725788D01*
X150853320Y-128495914D01*
X150914642Y-128462430D01*
X150984334Y-128467414D01*
X151040267Y-128509286D01*
X151064684Y-128574750D01*
X151065000Y-128583596D01*
X151065000Y-129050000D01*
X153335000Y-129050000D01*
X153335000Y-128454500D01*
X153354685Y-128387461D01*
X153407489Y-128341706D01*
X153459000Y-128330500D01*
X153941000Y-128330500D01*
X154008039Y-128350185D01*
X154053794Y-128402989D01*
X154065000Y-128454500D01*
X154065000Y-129050000D01*
X156335000Y-129050000D01*
X156335000Y-128454500D01*
X156354685Y-128387461D01*
X156407489Y-128341706D01*
X156459000Y-128330500D01*
X156941000Y-128330500D01*
X157008039Y-128350185D01*
X157053794Y-128402989D01*
X157065000Y-128454500D01*
X157065000Y-129050000D01*
X159335000Y-129050000D01*
X159335000Y-128454500D01*
X159354685Y-128387461D01*
X159407489Y-128341706D01*
X159459000Y-128330500D01*
X184293726Y-128330500D01*
X184360765Y-128350185D01*
X184398720Y-128388528D01*
X184466196Y-128495915D01*
X184470184Y-128502262D01*
X184597738Y-128629816D01*
X184750478Y-128725789D01*
X184920745Y-128785368D01*
X184920750Y-128785369D01*
X185099996Y-128805565D01*
X185100000Y-128805565D01*
X185100004Y-128805565D01*
X185279249Y-128785369D01*
X185279252Y-128785368D01*
X185279255Y-128785368D01*
X185449522Y-128725789D01*
X185602262Y-128629816D01*
X185729816Y-128502262D01*
X185825789Y-128349522D01*
X185885368Y-128179255D01*
X185905565Y-128000000D01*
X185903552Y-127982135D01*
X185885369Y-127820750D01*
X185885368Y-127820745D01*
X185833479Y-127672455D01*
X185825789Y-127650478D01*
X185729816Y-127497738D01*
X185602262Y-127370184D01*
X185588098Y-127361284D01*
X185449521Y-127274210D01*
X185279249Y-127214630D01*
X185129903Y-127197803D01*
X185081789Y-127181971D01*
X185061790Y-127170425D01*
X185061787Y-127170423D01*
X185000693Y-127154053D01*
X184909057Y-127129499D01*
X184750943Y-127129499D01*
X184743347Y-127129499D01*
X184743331Y-127129500D01*
X150849057Y-127129500D01*
X150690942Y-127129500D01*
X150538215Y-127170423D01*
X150538214Y-127170423D01*
X150538212Y-127170424D01*
X150538209Y-127170425D01*
X150488096Y-127199359D01*
X150488095Y-127199360D01*
X150461643Y-127214632D01*
X150401285Y-127249479D01*
X150401282Y-127249481D01*
X150289480Y-127361284D01*
X150289478Y-127361286D01*
X150153027Y-127497737D01*
X150124378Y-127526386D01*
X150063055Y-127559870D01*
X149993364Y-127554886D01*
X149942482Y-127535908D01*
X149942483Y-127535908D01*
X149882883Y-127529501D01*
X149882881Y-127529500D01*
X149882873Y-127529500D01*
X149882864Y-127529500D01*
X148517129Y-127529500D01*
X148517123Y-127529501D01*
X148457516Y-127535908D01*
X148322671Y-127586202D01*
X148322664Y-127586206D01*
X148207455Y-127672452D01*
X148207452Y-127672455D01*
X148121206Y-127787664D01*
X148121202Y-127787671D01*
X148070908Y-127922517D01*
X148064501Y-127982116D01*
X148064501Y-127982123D01*
X148064500Y-127982135D01*
X148064500Y-130015903D01*
X148044815Y-130082942D01*
X147992011Y-130128697D01*
X147922853Y-130138641D01*
X147859297Y-130109616D01*
X147852829Y-130103593D01*
X147644458Y-129895223D01*
X147371818Y-129622582D01*
X147338333Y-129561259D01*
X147335499Y-129534901D01*
X147335499Y-127982129D01*
X147335498Y-127982123D01*
X147335497Y-127982116D01*
X147329091Y-127922517D01*
X147291134Y-127820750D01*
X147278797Y-127787671D01*
X147278793Y-127787664D01*
X147192547Y-127672455D01*
X147192544Y-127672452D01*
X147077335Y-127586206D01*
X147077328Y-127586202D01*
X146942482Y-127535908D01*
X146942483Y-127535908D01*
X146882883Y-127529501D01*
X146882881Y-127529500D01*
X146882873Y-127529500D01*
X146882864Y-127529500D01*
X145517129Y-127529500D01*
X145517123Y-127529501D01*
X145457516Y-127535908D01*
X145322671Y-127586202D01*
X145322664Y-127586206D01*
X145207455Y-127672452D01*
X145207452Y-127672455D01*
X145121206Y-127787664D01*
X145121202Y-127787671D01*
X145070908Y-127922517D01*
X145064501Y-127982116D01*
X145064501Y-127982123D01*
X145064500Y-127982135D01*
X145064500Y-130015903D01*
X145044815Y-130082942D01*
X144992011Y-130128697D01*
X144922853Y-130138641D01*
X144859297Y-130109616D01*
X144852819Y-130103584D01*
X144371818Y-129622583D01*
X144338333Y-129561260D01*
X144335499Y-129534902D01*
X144335499Y-127982129D01*
X144335498Y-127982123D01*
X144335497Y-127982116D01*
X144329091Y-127922517D01*
X144291134Y-127820750D01*
X144278797Y-127787671D01*
X144278793Y-127787664D01*
X144192547Y-127672455D01*
X144192544Y-127672452D01*
X144077335Y-127586206D01*
X144077328Y-127586202D01*
X143942482Y-127535908D01*
X143942483Y-127535908D01*
X143882883Y-127529501D01*
X143882881Y-127529500D01*
X143882873Y-127529500D01*
X143882864Y-127529500D01*
X142517129Y-127529500D01*
X142517123Y-127529501D01*
X142457516Y-127535908D01*
X142322671Y-127586202D01*
X142322664Y-127586206D01*
X142207455Y-127672452D01*
X142207452Y-127672455D01*
X142121206Y-127787664D01*
X142121202Y-127787671D01*
X142070908Y-127922517D01*
X142064501Y-127982116D01*
X142064501Y-127982123D01*
X142064500Y-127982135D01*
X142064500Y-130015903D01*
X142044815Y-130082942D01*
X141992011Y-130128697D01*
X141922853Y-130138641D01*
X141859297Y-130109616D01*
X141852819Y-130103584D01*
X141371818Y-129622583D01*
X141338333Y-129561260D01*
X141335499Y-129534902D01*
X141335499Y-127982129D01*
X141335498Y-127982123D01*
X141335497Y-127982116D01*
X141329091Y-127922517D01*
X141291134Y-127820750D01*
X141278797Y-127787671D01*
X141278793Y-127787664D01*
X141192547Y-127672455D01*
X141192544Y-127672452D01*
X141077335Y-127586206D01*
X141077328Y-127586202D01*
X140942482Y-127535908D01*
X140942483Y-127535908D01*
X140882883Y-127529501D01*
X140882881Y-127529500D01*
X140882873Y-127529500D01*
X140882864Y-127529500D01*
X139517129Y-127529500D01*
X139517123Y-127529501D01*
X139457516Y-127535908D01*
X139322671Y-127586202D01*
X139322664Y-127586206D01*
X139207455Y-127672452D01*
X139207452Y-127672455D01*
X139121206Y-127787664D01*
X139121202Y-127787671D01*
X139070908Y-127922517D01*
X139064501Y-127982116D01*
X139064501Y-127982123D01*
X139064500Y-127982135D01*
X139064500Y-130015903D01*
X139044815Y-130082942D01*
X138992011Y-130128697D01*
X138922853Y-130138641D01*
X138859297Y-130109616D01*
X138852819Y-130103584D01*
X138371818Y-129622583D01*
X138338333Y-129561260D01*
X138335499Y-129534902D01*
X138335499Y-127982129D01*
X138335498Y-127982123D01*
X138335497Y-127982116D01*
X138329091Y-127922517D01*
X138291134Y-127820750D01*
X138278797Y-127787671D01*
X138278793Y-127787664D01*
X138192547Y-127672455D01*
X138192544Y-127672452D01*
X138077335Y-127586206D01*
X138077328Y-127586202D01*
X137942482Y-127535908D01*
X137942483Y-127535908D01*
X137882883Y-127529501D01*
X137882881Y-127529500D01*
X137882873Y-127529500D01*
X137882864Y-127529500D01*
X136517129Y-127529500D01*
X136517123Y-127529501D01*
X136457516Y-127535908D01*
X136322671Y-127586202D01*
X136322664Y-127586206D01*
X136207455Y-127672452D01*
X136207452Y-127672455D01*
X136121206Y-127787664D01*
X136121202Y-127787671D01*
X136070908Y-127922517D01*
X136064501Y-127982116D01*
X136064501Y-127982123D01*
X136064500Y-127982135D01*
X125000500Y-127982135D01*
X125000500Y-101499996D01*
X133194435Y-101499996D01*
X133194435Y-101500003D01*
X133214630Y-101679249D01*
X133214631Y-101679254D01*
X133274211Y-101849523D01*
X133340416Y-101954887D01*
X133370184Y-102002262D01*
X133497738Y-102129816D01*
X133551998Y-102163910D01*
X133640728Y-102219663D01*
X133650478Y-102225789D01*
X133733444Y-102254820D01*
X133820745Y-102285368D01*
X133820750Y-102285369D01*
X133949408Y-102299864D01*
X133992191Y-102304685D01*
X134056605Y-102331751D01*
X134065988Y-102340223D01*
X136706284Y-104980520D01*
X136706286Y-104980521D01*
X136706290Y-104980524D01*
X136770987Y-105017876D01*
X136843216Y-105059577D01*
X136995943Y-105100501D01*
X136995945Y-105100501D01*
X137161654Y-105100501D01*
X137161670Y-105100500D01*
X142743398Y-105100500D01*
X142810437Y-105120185D01*
X142856192Y-105172989D01*
X142859580Y-105181167D01*
X142871202Y-105212328D01*
X142871206Y-105212335D01*
X142957452Y-105327544D01*
X142957455Y-105327547D01*
X143072664Y-105413793D01*
X143072671Y-105413797D01*
X143207517Y-105464091D01*
X143207516Y-105464091D01*
X143214444Y-105464835D01*
X143267127Y-105470500D01*
X144632872Y-105470499D01*
X144692483Y-105464091D01*
X144827331Y-105413796D01*
X144942546Y-105327546D01*
X145028796Y-105212331D01*
X145079091Y-105077483D01*
X145085500Y-105017873D01*
X145085499Y-102724499D01*
X145105184Y-102657461D01*
X145157987Y-102611706D01*
X145209499Y-102600500D01*
X145690500Y-102600500D01*
X145757539Y-102620185D01*
X145803294Y-102672989D01*
X145814500Y-102724500D01*
X145814500Y-105017870D01*
X145814501Y-105017876D01*
X145820908Y-105077483D01*
X145871202Y-105212328D01*
X145871206Y-105212335D01*
X145957452Y-105327544D01*
X145957455Y-105327547D01*
X146072664Y-105413793D01*
X146072671Y-105413797D01*
X146207517Y-105464091D01*
X146207516Y-105464091D01*
X146214444Y-105464835D01*
X146267127Y-105470500D01*
X147632872Y-105470499D01*
X147692483Y-105464091D01*
X147827331Y-105413796D01*
X147942546Y-105327546D01*
X148028796Y-105212331D01*
X148079091Y-105077483D01*
X148085500Y-105017873D01*
X148085499Y-103571595D01*
X148105184Y-103504557D01*
X148157987Y-103458802D01*
X148227146Y-103448858D01*
X148290702Y-103477883D01*
X148297180Y-103483915D01*
X148778181Y-103964916D01*
X148811666Y-104026239D01*
X148814500Y-104052597D01*
X148814500Y-105017870D01*
X148814501Y-105017876D01*
X148820908Y-105077483D01*
X148871202Y-105212328D01*
X148871206Y-105212335D01*
X148957452Y-105327544D01*
X148957455Y-105327547D01*
X149072664Y-105413793D01*
X149072671Y-105413797D01*
X149207517Y-105464091D01*
X149207516Y-105464091D01*
X149214444Y-105464835D01*
X149267127Y-105470500D01*
X150632872Y-105470499D01*
X150692483Y-105464091D01*
X150827331Y-105413796D01*
X150942546Y-105327546D01*
X151028796Y-105212331D01*
X151079091Y-105077483D01*
X151085500Y-105017873D01*
X151085499Y-102984095D01*
X151105184Y-102917057D01*
X151157987Y-102871302D01*
X151227146Y-102861358D01*
X151290702Y-102890383D01*
X151297180Y-102896415D01*
X151778181Y-103377416D01*
X151811666Y-103438739D01*
X151814500Y-103465097D01*
X151814500Y-105017870D01*
X151814501Y-105017876D01*
X151820908Y-105077483D01*
X151871202Y-105212328D01*
X151871206Y-105212335D01*
X151957452Y-105327544D01*
X151957455Y-105327547D01*
X152072664Y-105413793D01*
X152072671Y-105413797D01*
X152207517Y-105464091D01*
X152207516Y-105464091D01*
X152214444Y-105464835D01*
X152267127Y-105470500D01*
X153632872Y-105470499D01*
X153692483Y-105464091D01*
X153827331Y-105413796D01*
X153942546Y-105327546D01*
X154028796Y-105212331D01*
X154079091Y-105077483D01*
X154085500Y-105017873D01*
X154085499Y-102984095D01*
X154105184Y-102917057D01*
X154157987Y-102871302D01*
X154227146Y-102861358D01*
X154290702Y-102890383D01*
X154297180Y-102896415D01*
X154778181Y-103377416D01*
X154811666Y-103438739D01*
X154814500Y-103465097D01*
X154814500Y-105017870D01*
X154814501Y-105017876D01*
X154820908Y-105077483D01*
X154871202Y-105212328D01*
X154871206Y-105212335D01*
X154957452Y-105327544D01*
X154957455Y-105327547D01*
X155072664Y-105413793D01*
X155072671Y-105413797D01*
X155207517Y-105464091D01*
X155207516Y-105464091D01*
X155214444Y-105464835D01*
X155267127Y-105470500D01*
X156632872Y-105470499D01*
X156692483Y-105464091D01*
X156827331Y-105413796D01*
X156942546Y-105327546D01*
X157028796Y-105212331D01*
X157079091Y-105077483D01*
X157085500Y-105017873D01*
X157085499Y-102382128D01*
X157079091Y-102322517D01*
X157072768Y-102305565D01*
X157028797Y-102187671D01*
X157028793Y-102187664D01*
X156942547Y-102072455D01*
X156942544Y-102072452D01*
X156827335Y-101986206D01*
X156827328Y-101986202D01*
X156692482Y-101935908D01*
X156692483Y-101935908D01*
X156632883Y-101929501D01*
X156632881Y-101929500D01*
X156632873Y-101929500D01*
X156632864Y-101929500D01*
X155267129Y-101929500D01*
X155267123Y-101929501D01*
X155207518Y-101935908D01*
X155156632Y-101954887D01*
X155086940Y-101959870D01*
X155025620Y-101926385D01*
X154237590Y-101138355D01*
X154237588Y-101138352D01*
X154118717Y-101019481D01*
X154118709Y-101019475D01*
X154016936Y-100960717D01*
X154016934Y-100960716D01*
X153981790Y-100940425D01*
X153981789Y-100940424D01*
X153969263Y-100937067D01*
X153829057Y-100899499D01*
X153670943Y-100899499D01*
X153663347Y-100899499D01*
X153663331Y-100899500D01*
X153582412Y-100899500D01*
X153515373Y-100879815D01*
X153505097Y-100872445D01*
X153502263Y-100870185D01*
X153502262Y-100870184D01*
X153445496Y-100834515D01*
X153349523Y-100774211D01*
X153179254Y-100714631D01*
X153179249Y-100714630D01*
X153000004Y-100694435D01*
X152999996Y-100694435D01*
X152820750Y-100714630D01*
X152820745Y-100714631D01*
X152650476Y-100774211D01*
X152497737Y-100870184D01*
X152370184Y-100997737D01*
X152274211Y-101150476D01*
X152214631Y-101320745D01*
X152214630Y-101320750D01*
X152194435Y-101499996D01*
X152194435Y-101500003D01*
X152214630Y-101679249D01*
X152214631Y-101679254D01*
X152253122Y-101789253D01*
X152256683Y-101859032D01*
X152221954Y-101919660D01*
X152179413Y-101946390D01*
X152156634Y-101954886D01*
X152086942Y-101959870D01*
X152025620Y-101926385D01*
X151237590Y-101138355D01*
X151237588Y-101138352D01*
X151118717Y-101019481D01*
X151118709Y-101019475D01*
X151016936Y-100960717D01*
X151016934Y-100960716D01*
X150981790Y-100940425D01*
X150981789Y-100940424D01*
X150969263Y-100937067D01*
X150829057Y-100899499D01*
X150670943Y-100899499D01*
X150663347Y-100899499D01*
X150663331Y-100899500D01*
X149082412Y-100899500D01*
X149015373Y-100879815D01*
X149005097Y-100872445D01*
X149002263Y-100870185D01*
X149002262Y-100870184D01*
X148945496Y-100834515D01*
X148849523Y-100774211D01*
X148679254Y-100714631D01*
X148679249Y-100714630D01*
X148500004Y-100694435D01*
X148499996Y-100694435D01*
X148320750Y-100714630D01*
X148320745Y-100714631D01*
X148150476Y-100774211D01*
X147997737Y-100870184D01*
X147870184Y-100997737D01*
X147870182Y-100997740D01*
X147813718Y-101087601D01*
X147761383Y-101133892D01*
X147692330Y-101144539D01*
X147628481Y-101116164D01*
X147621044Y-101109309D01*
X147550090Y-101038355D01*
X147550088Y-101038352D01*
X147431217Y-100919481D01*
X147431209Y-100919475D01*
X147329436Y-100860717D01*
X147329434Y-100860716D01*
X147294290Y-100840425D01*
X147294289Y-100840424D01*
X147281763Y-100837067D01*
X147141557Y-100799499D01*
X146983443Y-100799499D01*
X146975847Y-100799499D01*
X146975831Y-100799500D01*
X145157412Y-100799500D01*
X145090373Y-100779815D01*
X145080097Y-100772445D01*
X145077263Y-100770185D01*
X145077262Y-100770184D01*
X144988850Y-100714631D01*
X144924523Y-100674211D01*
X144754254Y-100614631D01*
X144754249Y-100614630D01*
X144575004Y-100594435D01*
X144574996Y-100594435D01*
X144395750Y-100614630D01*
X144395745Y-100614631D01*
X144225476Y-100674211D01*
X144072737Y-100770184D01*
X143945184Y-100897737D01*
X143849210Y-101050478D01*
X143789630Y-101220750D01*
X143781898Y-101289383D01*
X143754832Y-101353797D01*
X143697237Y-101393352D01*
X143658678Y-101399500D01*
X140325097Y-101399500D01*
X140258058Y-101379815D01*
X140237416Y-101363181D01*
X140224450Y-101350215D01*
X140190965Y-101288892D01*
X140188913Y-101276436D01*
X140179118Y-101189495D01*
X140119539Y-101019228D01*
X140023566Y-100866488D01*
X139896012Y-100738934D01*
X139857334Y-100714631D01*
X139743273Y-100642961D01*
X139573004Y-100583381D01*
X139572999Y-100583380D01*
X139393754Y-100563185D01*
X139393746Y-100563185D01*
X139214500Y-100583380D01*
X139214495Y-100583381D01*
X139044226Y-100642961D01*
X138891487Y-100738934D01*
X138763934Y-100866487D01*
X138667961Y-101019226D01*
X138608381Y-101189495D01*
X138608380Y-101189500D01*
X138588185Y-101368746D01*
X138588185Y-101368753D01*
X138608380Y-101547999D01*
X138608381Y-101548004D01*
X138667961Y-101718273D01*
X138756406Y-101859032D01*
X138763934Y-101871012D01*
X138891488Y-101998566D01*
X139044228Y-102094539D01*
X139214495Y-102154118D01*
X139301419Y-102163911D01*
X139365830Y-102190976D01*
X139375215Y-102199450D01*
X139540139Y-102364374D01*
X139540149Y-102364385D01*
X139544479Y-102368715D01*
X139544480Y-102368716D01*
X139656284Y-102480520D01*
X139743095Y-102530639D01*
X139743097Y-102530641D01*
X139793213Y-102559576D01*
X139793215Y-102559577D01*
X139945942Y-102600500D01*
X139945943Y-102600500D01*
X142690500Y-102600500D01*
X142757539Y-102620185D01*
X142803294Y-102672989D01*
X142814500Y-102724500D01*
X142814501Y-103775500D01*
X142794817Y-103842539D01*
X142742013Y-103888294D01*
X142690501Y-103899500D01*
X137375098Y-103899500D01*
X137308059Y-103879815D01*
X137287417Y-103863181D01*
X134821177Y-101396942D01*
X134787692Y-101335619D01*
X134785638Y-101323149D01*
X134785368Y-101320745D01*
X134725789Y-101150478D01*
X134629816Y-100997738D01*
X134502262Y-100870184D01*
X134454901Y-100840425D01*
X134349523Y-100774211D01*
X134179254Y-100714631D01*
X134179249Y-100714630D01*
X134000004Y-100694435D01*
X133999996Y-100694435D01*
X133820750Y-100714630D01*
X133820745Y-100714631D01*
X133650476Y-100774211D01*
X133497737Y-100870184D01*
X133370184Y-100997737D01*
X133274211Y-101150476D01*
X133214631Y-101320745D01*
X133214630Y-101320750D01*
X133194435Y-101499996D01*
X125000500Y-101499996D01*
X125000500Y-98885444D01*
X140344500Y-98885444D01*
X140344500Y-99114555D01*
X140380338Y-99340830D01*
X140451136Y-99558722D01*
X140555147Y-99762851D01*
X140689801Y-99948188D01*
X140689805Y-99948193D01*
X140851806Y-100110194D01*
X140851811Y-100110198D01*
X141013472Y-100227650D01*
X141037152Y-100244855D01*
X141167221Y-100311128D01*
X141241277Y-100348863D01*
X141241279Y-100348863D01*
X141241282Y-100348865D01*
X141358076Y-100386813D01*
X141459169Y-100419661D01*
X141685445Y-100455500D01*
X141685450Y-100455500D01*
X141914555Y-100455500D01*
X142140830Y-100419661D01*
X142358718Y-100348865D01*
X142562848Y-100244855D01*
X142748195Y-100110193D01*
X142910193Y-99948195D01*
X143044855Y-99762848D01*
X143148865Y-99558718D01*
X143219661Y-99340830D01*
X143255500Y-99114555D01*
X143255500Y-98885444D01*
X143219661Y-98659169D01*
X143177899Y-98530639D01*
X143148865Y-98441282D01*
X143148863Y-98441279D01*
X143148863Y-98441277D01*
X143099736Y-98344861D01*
X143044855Y-98237152D01*
X143010095Y-98189309D01*
X142910198Y-98051811D01*
X142910194Y-98051806D01*
X142748193Y-97889805D01*
X142748188Y-97889801D01*
X142562851Y-97755147D01*
X142562850Y-97755146D01*
X142562848Y-97755145D01*
X142496222Y-97721197D01*
X142358722Y-97651136D01*
X142140830Y-97580338D01*
X141914555Y-97544500D01*
X141914550Y-97544500D01*
X141685450Y-97544500D01*
X141685445Y-97544500D01*
X141459169Y-97580338D01*
X141241277Y-97651136D01*
X141037148Y-97755147D01*
X140851811Y-97889801D01*
X140851806Y-97889805D01*
X140689805Y-98051806D01*
X140689801Y-98051811D01*
X140555147Y-98237148D01*
X140451136Y-98441277D01*
X140380338Y-98659169D01*
X140344500Y-98885444D01*
X125000500Y-98885444D01*
X125000500Y-92982135D01*
X142814500Y-92982135D01*
X142814500Y-95617870D01*
X142814501Y-95617876D01*
X142820908Y-95677483D01*
X142871202Y-95812328D01*
X142871206Y-95812335D01*
X142957452Y-95927544D01*
X142957455Y-95927547D01*
X143072664Y-96013793D01*
X143072671Y-96013797D01*
X143207517Y-96064091D01*
X143207516Y-96064091D01*
X143214444Y-96064835D01*
X143267127Y-96070500D01*
X144632872Y-96070499D01*
X144692483Y-96064091D01*
X144743366Y-96045112D01*
X144813056Y-96040129D01*
X144874379Y-96073614D01*
X147165139Y-98364374D01*
X147165149Y-98364385D01*
X147169479Y-98368715D01*
X147169480Y-98368716D01*
X147281284Y-98480520D01*
X147368095Y-98530639D01*
X147368097Y-98530641D01*
X147406151Y-98552611D01*
X147418215Y-98559577D01*
X147570943Y-98600500D01*
X147729057Y-98600500D01*
X154992588Y-98600500D01*
X155059627Y-98620185D01*
X155069903Y-98627555D01*
X155072736Y-98629814D01*
X155072738Y-98629816D01*
X155225478Y-98725789D01*
X155395745Y-98785368D01*
X155395750Y-98785369D01*
X155574996Y-98805565D01*
X155575000Y-98805565D01*
X155575004Y-98805565D01*
X155754249Y-98785369D01*
X155754252Y-98785368D01*
X155754255Y-98785368D01*
X155924522Y-98725789D01*
X156077262Y-98629816D01*
X156204816Y-98502262D01*
X156300789Y-98349522D01*
X156360368Y-98179255D01*
X156371508Y-98080389D01*
X156375060Y-98048859D01*
X156402126Y-97984445D01*
X156459721Y-97944890D01*
X156498280Y-97938742D01*
X156828588Y-97938742D01*
X156895627Y-97958427D01*
X156941382Y-98011231D01*
X156951326Y-98080389D01*
X156928906Y-98135627D01*
X156855147Y-98237148D01*
X156751136Y-98441277D01*
X156680338Y-98659169D01*
X156644500Y-98885444D01*
X156644500Y-99114555D01*
X156680338Y-99340830D01*
X156751136Y-99558722D01*
X156855147Y-99762851D01*
X156989801Y-99948188D01*
X156989805Y-99948193D01*
X157151806Y-100110194D01*
X157151811Y-100110198D01*
X157313472Y-100227650D01*
X157337152Y-100244855D01*
X157467221Y-100311128D01*
X157541277Y-100348863D01*
X157541279Y-100348863D01*
X157541282Y-100348865D01*
X157658076Y-100386813D01*
X157759169Y-100419661D01*
X157985445Y-100455500D01*
X157985450Y-100455500D01*
X158214555Y-100455500D01*
X158440830Y-100419661D01*
X158658718Y-100348865D01*
X158862848Y-100244855D01*
X159048195Y-100110193D01*
X159210193Y-99948195D01*
X159344855Y-99762848D01*
X159448865Y-99558718D01*
X159519661Y-99340830D01*
X159555500Y-99114555D01*
X159555500Y-98885444D01*
X159519661Y-98659169D01*
X159487301Y-98559577D01*
X159448865Y-98441282D01*
X159441413Y-98426657D01*
X159428516Y-98357991D01*
X159454790Y-98293250D01*
X159511895Y-98252991D01*
X159581700Y-98249996D01*
X159617870Y-98265367D01*
X159649564Y-98285282D01*
X159819831Y-98344861D01*
X159819836Y-98344862D01*
X159999082Y-98365058D01*
X159999086Y-98365058D01*
X159999090Y-98365058D01*
X160178335Y-98344862D01*
X160178338Y-98344861D01*
X160178341Y-98344861D01*
X160348608Y-98285282D01*
X160501348Y-98189309D01*
X160628902Y-98061755D01*
X160724875Y-97909015D01*
X160784454Y-97738748D01*
X160786432Y-97721198D01*
X160798891Y-97610617D01*
X160825957Y-97546203D01*
X160883552Y-97506648D01*
X160922111Y-97500500D01*
X163821651Y-97500500D01*
X163888690Y-97520185D01*
X163909332Y-97536819D01*
X163997738Y-97625225D01*
X164150478Y-97721198D01*
X164247493Y-97755145D01*
X164320745Y-97780777D01*
X164320750Y-97780778D01*
X164499996Y-97800974D01*
X164500000Y-97800974D01*
X164500004Y-97800974D01*
X164679249Y-97780778D01*
X164679252Y-97780777D01*
X164679255Y-97780777D01*
X164849522Y-97721198D01*
X165002262Y-97625225D01*
X165129816Y-97497671D01*
X165225789Y-97344931D01*
X165285368Y-97174664D01*
X165305565Y-96995409D01*
X165285368Y-96816154D01*
X165225789Y-96645887D01*
X165129816Y-96493147D01*
X165002262Y-96365593D01*
X164897076Y-96299500D01*
X164849523Y-96269620D01*
X164679254Y-96210040D01*
X164679249Y-96210039D01*
X164500004Y-96189844D01*
X164499996Y-96189844D01*
X164320750Y-96210039D01*
X164320737Y-96210042D01*
X164150482Y-96269617D01*
X164140399Y-96275952D01*
X164133169Y-96280495D01*
X164067200Y-96299500D01*
X156747185Y-96299500D01*
X156680146Y-96279815D01*
X156634391Y-96227011D01*
X156624447Y-96157853D01*
X156653472Y-96094297D01*
X156703852Y-96059318D01*
X156827086Y-96013354D01*
X156827093Y-96013350D01*
X156942187Y-95927190D01*
X156942190Y-95927187D01*
X157028350Y-95812093D01*
X157028354Y-95812086D01*
X157078596Y-95677379D01*
X157078598Y-95677372D01*
X157084999Y-95617844D01*
X157085000Y-95617827D01*
X157085000Y-94550000D01*
X154815000Y-94550000D01*
X154815000Y-95617844D01*
X154821401Y-95677372D01*
X154821403Y-95677379D01*
X154871645Y-95812086D01*
X154871649Y-95812093D01*
X154957809Y-95927187D01*
X154957812Y-95927190D01*
X155072906Y-96013350D01*
X155072913Y-96013354D01*
X155196148Y-96059318D01*
X155252082Y-96101189D01*
X155276499Y-96166654D01*
X155261647Y-96234927D01*
X155212242Y-96284332D01*
X155152815Y-96299500D01*
X153747185Y-96299500D01*
X153680146Y-96279815D01*
X153634391Y-96227011D01*
X153624447Y-96157853D01*
X153653472Y-96094297D01*
X153703852Y-96059318D01*
X153827086Y-96013354D01*
X153827093Y-96013350D01*
X153942187Y-95927190D01*
X153942190Y-95927187D01*
X154028350Y-95812093D01*
X154028354Y-95812086D01*
X154078596Y-95677379D01*
X154078598Y-95677372D01*
X154084999Y-95617844D01*
X154085000Y-95617827D01*
X154085000Y-94550000D01*
X151815000Y-94550000D01*
X151815000Y-95016403D01*
X151795315Y-95083442D01*
X151742511Y-95129197D01*
X151673353Y-95139141D01*
X151609797Y-95110116D01*
X151603319Y-95104084D01*
X151121818Y-94622583D01*
X151088333Y-94561260D01*
X151085499Y-94534902D01*
X151085499Y-92982155D01*
X151815000Y-92982155D01*
X151815000Y-94050000D01*
X152700000Y-94050000D01*
X153200000Y-94050000D01*
X154085000Y-94050000D01*
X154085000Y-92982172D01*
X154084999Y-92982155D01*
X154815000Y-92982155D01*
X154815000Y-94050000D01*
X155700000Y-94050000D01*
X156200000Y-94050000D01*
X157085000Y-94050000D01*
X157085000Y-92982172D01*
X157084999Y-92982155D01*
X157078598Y-92922627D01*
X157078596Y-92922620D01*
X157028354Y-92787913D01*
X157028350Y-92787906D01*
X156942190Y-92672812D01*
X156942187Y-92672809D01*
X156827093Y-92586649D01*
X156827086Y-92586645D01*
X156692379Y-92536403D01*
X156692372Y-92536401D01*
X156632844Y-92530000D01*
X156200000Y-92530000D01*
X156200000Y-94050000D01*
X155700000Y-94050000D01*
X155700000Y-92530000D01*
X155267155Y-92530000D01*
X155207627Y-92536401D01*
X155207620Y-92536403D01*
X155072913Y-92586645D01*
X155072906Y-92586649D01*
X154957812Y-92672809D01*
X154957809Y-92672812D01*
X154871649Y-92787906D01*
X154871645Y-92787913D01*
X154821403Y-92922620D01*
X154821401Y-92922627D01*
X154815000Y-92982155D01*
X154084999Y-92982155D01*
X154078598Y-92922627D01*
X154078596Y-92922620D01*
X154028354Y-92787913D01*
X154028350Y-92787906D01*
X153942190Y-92672812D01*
X153942187Y-92672809D01*
X153827093Y-92586649D01*
X153827086Y-92586645D01*
X153692379Y-92536403D01*
X153692372Y-92536401D01*
X153632844Y-92530000D01*
X153200000Y-92530000D01*
X153200000Y-94050000D01*
X152700000Y-94050000D01*
X152700000Y-92530000D01*
X152267155Y-92530000D01*
X152207627Y-92536401D01*
X152207620Y-92536403D01*
X152072913Y-92586645D01*
X152072906Y-92586649D01*
X151957812Y-92672809D01*
X151957809Y-92672812D01*
X151871649Y-92787906D01*
X151871645Y-92787913D01*
X151821403Y-92922620D01*
X151821401Y-92922627D01*
X151815000Y-92982155D01*
X151085499Y-92982155D01*
X151085499Y-92982129D01*
X151085498Y-92982123D01*
X151085497Y-92982116D01*
X151079091Y-92922517D01*
X151028884Y-92787906D01*
X151028797Y-92787671D01*
X151028793Y-92787664D01*
X150942547Y-92672455D01*
X150942544Y-92672452D01*
X150827335Y-92586206D01*
X150827328Y-92586202D01*
X150692482Y-92535908D01*
X150692483Y-92535908D01*
X150632883Y-92529501D01*
X150632881Y-92529500D01*
X150632873Y-92529500D01*
X150632864Y-92529500D01*
X149267129Y-92529500D01*
X149267123Y-92529501D01*
X149207516Y-92535908D01*
X149072671Y-92586202D01*
X149072664Y-92586206D01*
X148957455Y-92672452D01*
X148957452Y-92672455D01*
X148871206Y-92787664D01*
X148871202Y-92787671D01*
X148820908Y-92922517D01*
X148814501Y-92982116D01*
X148814501Y-92982123D01*
X148814500Y-92982135D01*
X148814500Y-95015903D01*
X148794815Y-95082942D01*
X148742011Y-95128697D01*
X148672853Y-95138641D01*
X148609297Y-95109616D01*
X148602819Y-95103584D01*
X148121818Y-94622583D01*
X148088333Y-94561260D01*
X148085499Y-94534902D01*
X148085499Y-92982129D01*
X148085498Y-92982123D01*
X148085497Y-92982116D01*
X148079091Y-92922517D01*
X148028884Y-92787906D01*
X148028797Y-92787671D01*
X148028793Y-92787664D01*
X147942547Y-92672455D01*
X147942544Y-92672452D01*
X147827335Y-92586206D01*
X147827328Y-92586202D01*
X147692482Y-92535908D01*
X147692483Y-92535908D01*
X147632883Y-92529501D01*
X147632881Y-92529500D01*
X147632873Y-92529500D01*
X147632864Y-92529500D01*
X146267129Y-92529500D01*
X146267123Y-92529501D01*
X146207516Y-92535908D01*
X146072671Y-92586202D01*
X146072664Y-92586206D01*
X145957455Y-92672452D01*
X145957452Y-92672455D01*
X145871206Y-92787664D01*
X145871202Y-92787671D01*
X145820908Y-92922517D01*
X145814501Y-92982116D01*
X145814501Y-92982123D01*
X145814500Y-92982135D01*
X145814500Y-95015903D01*
X145794815Y-95082942D01*
X145742011Y-95128697D01*
X145672853Y-95138641D01*
X145609297Y-95109616D01*
X145602819Y-95103584D01*
X145121818Y-94622583D01*
X145088333Y-94561260D01*
X145085499Y-94534902D01*
X145085499Y-92982129D01*
X145085498Y-92982123D01*
X145085497Y-92982116D01*
X145079091Y-92922517D01*
X145028884Y-92787906D01*
X145028797Y-92787671D01*
X145028793Y-92787664D01*
X144942547Y-92672455D01*
X144942544Y-92672452D01*
X144827335Y-92586206D01*
X144827328Y-92586202D01*
X144692482Y-92535908D01*
X144692483Y-92535908D01*
X144632883Y-92529501D01*
X144632881Y-92529500D01*
X144632873Y-92529500D01*
X144632864Y-92529500D01*
X143267129Y-92529500D01*
X143267123Y-92529501D01*
X143207516Y-92535908D01*
X143072671Y-92586202D01*
X143072664Y-92586206D01*
X142957455Y-92672452D01*
X142957452Y-92672455D01*
X142871206Y-92787664D01*
X142871202Y-92787671D01*
X142820908Y-92922517D01*
X142814501Y-92982116D01*
X142814501Y-92982123D01*
X142814500Y-92982135D01*
X125000500Y-92982135D01*
X125000500Y-70002561D01*
X125000553Y-69999999D01*
X126894922Y-69999999D01*
X126894922Y-70000000D01*
X126915219Y-70387287D01*
X126975886Y-70770323D01*
X126975887Y-70770330D01*
X127076262Y-71144936D01*
X127215244Y-71506994D01*
X127391310Y-71852543D01*
X127602531Y-72177793D01*
X127811095Y-72435350D01*
X127811096Y-72435350D01*
X129305748Y-70940698D01*
X129379588Y-71042330D01*
X129557670Y-71220412D01*
X129659300Y-71294251D01*
X128164648Y-72788903D01*
X128164649Y-72788904D01*
X128422206Y-72997468D01*
X128747456Y-73208689D01*
X129093005Y-73384755D01*
X129455063Y-73523737D01*
X129829669Y-73624112D01*
X129829676Y-73624113D01*
X130212712Y-73684780D01*
X130599999Y-73705078D01*
X130600001Y-73705078D01*
X130987287Y-73684780D01*
X131370323Y-73624113D01*
X131370330Y-73624112D01*
X131744936Y-73523737D01*
X132106994Y-73384755D01*
X132452543Y-73208689D01*
X132777783Y-72997476D01*
X132777785Y-72997475D01*
X133035349Y-72788902D01*
X131540698Y-71294251D01*
X131642330Y-71220412D01*
X131820412Y-71042330D01*
X131894251Y-70940698D01*
X133388902Y-72435349D01*
X133597475Y-72177785D01*
X133597476Y-72177783D01*
X133808689Y-71852543D01*
X133984755Y-71506994D01*
X134123737Y-71144936D01*
X134224112Y-70770330D01*
X134224113Y-70770323D01*
X134284780Y-70387287D01*
X134305078Y-70000000D01*
X134305078Y-69999999D01*
X189894922Y-69999999D01*
X189894922Y-70000000D01*
X189915219Y-70387287D01*
X189975886Y-70770323D01*
X189975887Y-70770330D01*
X190076262Y-71144936D01*
X190215244Y-71506994D01*
X190391310Y-71852543D01*
X190602531Y-72177793D01*
X190811095Y-72435350D01*
X190811096Y-72435350D01*
X192305748Y-70940698D01*
X192379588Y-71042330D01*
X192557670Y-71220412D01*
X192659300Y-71294251D01*
X191164648Y-72788903D01*
X191164649Y-72788904D01*
X191422206Y-72997468D01*
X191747456Y-73208689D01*
X192093005Y-73384755D01*
X192455063Y-73523737D01*
X192829669Y-73624112D01*
X192829676Y-73624113D01*
X193212712Y-73684780D01*
X193599999Y-73705078D01*
X193600001Y-73705078D01*
X193987287Y-73684780D01*
X194370323Y-73624113D01*
X194370330Y-73624112D01*
X194744936Y-73523737D01*
X195106994Y-73384755D01*
X195452543Y-73208689D01*
X195777783Y-72997476D01*
X195777785Y-72997475D01*
X196035349Y-72788902D01*
X194540698Y-71294251D01*
X194642330Y-71220412D01*
X194820412Y-71042330D01*
X194894251Y-70940698D01*
X196388902Y-72435349D01*
X196597475Y-72177785D01*
X196597476Y-72177783D01*
X196808689Y-71852543D01*
X196984755Y-71506994D01*
X197123737Y-71144936D01*
X197224112Y-70770330D01*
X197224113Y-70770323D01*
X197284780Y-70387287D01*
X197305078Y-70000000D01*
X197305078Y-69999999D01*
X197284780Y-69612712D01*
X197224113Y-69229676D01*
X197224112Y-69229669D01*
X197123737Y-68855063D01*
X196984755Y-68493005D01*
X196808689Y-68147456D01*
X196597468Y-67822206D01*
X196388904Y-67564649D01*
X196388903Y-67564648D01*
X194894251Y-69059300D01*
X194820412Y-68957670D01*
X194642330Y-68779588D01*
X194540698Y-68705748D01*
X196035350Y-67211096D01*
X196035350Y-67211095D01*
X195777793Y-67002531D01*
X195452543Y-66791310D01*
X195106994Y-66615244D01*
X194744936Y-66476262D01*
X194370330Y-66375887D01*
X194370323Y-66375886D01*
X193987287Y-66315219D01*
X193600001Y-66294922D01*
X193599999Y-66294922D01*
X193212712Y-66315219D01*
X192829676Y-66375886D01*
X192829669Y-66375887D01*
X192455063Y-66476262D01*
X192093005Y-66615244D01*
X191747456Y-66791310D01*
X191422206Y-67002531D01*
X191164648Y-67211095D01*
X191164648Y-67211096D01*
X192659301Y-68705748D01*
X192557670Y-68779588D01*
X192379588Y-68957670D01*
X192305748Y-69059300D01*
X190811096Y-67564648D01*
X190811095Y-67564648D01*
X190602531Y-67822206D01*
X190391310Y-68147456D01*
X190215244Y-68493005D01*
X190076262Y-68855063D01*
X189975887Y-69229669D01*
X189975886Y-69229676D01*
X189915219Y-69612712D01*
X189894922Y-69999999D01*
X134305078Y-69999999D01*
X134284780Y-69612712D01*
X134224113Y-69229676D01*
X134224112Y-69229669D01*
X134123737Y-68855063D01*
X133984755Y-68493005D01*
X133808689Y-68147456D01*
X133597468Y-67822206D01*
X133388904Y-67564649D01*
X133388903Y-67564648D01*
X131894251Y-69059300D01*
X131820412Y-68957670D01*
X131642330Y-68779588D01*
X131540698Y-68705748D01*
X133035350Y-67211096D01*
X133035350Y-67211095D01*
X132777793Y-67002531D01*
X132452543Y-66791310D01*
X132106994Y-66615244D01*
X131744936Y-66476262D01*
X131370330Y-66375887D01*
X131370323Y-66375886D01*
X130987287Y-66315219D01*
X130600001Y-66294922D01*
X130599999Y-66294922D01*
X130212712Y-66315219D01*
X129829676Y-66375886D01*
X129829669Y-66375887D01*
X129455063Y-66476262D01*
X129093005Y-66615244D01*
X128747456Y-66791310D01*
X128422206Y-67002531D01*
X128164648Y-67211095D01*
X128164648Y-67211096D01*
X129659301Y-68705748D01*
X129557670Y-68779588D01*
X129379588Y-68957670D01*
X129305748Y-69059300D01*
X127811096Y-67564648D01*
X127811095Y-67564648D01*
X127602531Y-67822206D01*
X127391310Y-68147456D01*
X127215244Y-68493005D01*
X127076262Y-68855063D01*
X126975887Y-69229669D01*
X126975886Y-69229676D01*
X126915219Y-69612712D01*
X126894922Y-69999999D01*
X125000553Y-69999999D01*
X125000606Y-69997437D01*
X125015123Y-69646447D01*
X125019072Y-69550961D01*
X125019915Y-69540792D01*
X125074874Y-69099881D01*
X125076554Y-69089809D01*
X125167734Y-68654951D01*
X125170241Y-68645055D01*
X125297022Y-68219205D01*
X125300336Y-68209553D01*
X125461840Y-67795654D01*
X125465954Y-67786275D01*
X125574300Y-67564649D01*
X125661088Y-67387120D01*
X125665949Y-67378136D01*
X125893389Y-66996445D01*
X125898982Y-66987885D01*
X126157153Y-66626294D01*
X126163422Y-66618240D01*
X126450581Y-66279191D01*
X126457500Y-66271675D01*
X126771675Y-65957500D01*
X126779191Y-65950581D01*
X127118240Y-65663422D01*
X127126294Y-65657153D01*
X127487885Y-65398982D01*
X127496445Y-65393389D01*
X127878136Y-65165949D01*
X127887120Y-65161088D01*
X128286280Y-64965951D01*
X128295654Y-64961840D01*
X128709553Y-64800336D01*
X128719205Y-64797022D01*
X129145055Y-64670241D01*
X129154951Y-64667734D01*
X129589809Y-64576554D01*
X129599881Y-64574874D01*
X130040792Y-64519915D01*
X130050961Y-64519072D01*
X130497437Y-64500605D01*
X130502561Y-64500500D01*
X130565892Y-64500500D01*
X193434108Y-64500500D01*
X193497439Y-64500500D01*
X193502562Y-64500605D01*
G37*
%TD.AperFunction*%
%TD*%
M02*
